<svg width="178" height="138" viewBox="0 0 178 138" fill="none" xmlns="http://www.w3.org/2000/svg">
<path d="M26.4001 49.8938H26.3994V49.8945L26.4001 49.8938Z" fill="white"/>
<path d="M78.9177 37.12L78.917 37.1207H78.9177V37.12Z" fill="white"/>
<path d="M125.878 71.8069L125.879 71.8062H125.878V71.8069Z" fill="white"/>
<path d="M24.0707 37.1192C31.8174 38.5919 39.4484 40.0555 47.3015 37.5606C51.5707 36.1482 55.9456 35.0804 60.3843 34.3674C60.3971 34.4374 60.4018 34.5078 60.4174 34.5778C60.5678 35.2338 60.7983 35.8686 61.1037 36.4679C61.3857 37.025 61.6689 37.579 61.9216 38.149V38.147C61.7008 37.5278 61.4679 36.9136 61.2431 36.2951C61.1948 36.147 61.1465 35.9976 61.099 35.8491C61.0538 35.7091 61.0258 35.5629 60.9907 35.4191C60.9569 35.2834 60.9382 35.1431 60.9152 35.0058C60.8762 34.7744 60.8501 34.5422 60.8338 34.308C60.8338 34.3045 60.8338 34.301 60.8338 34.2971C61.236 34.24 61.6385 34.1871 62.0412 34.1384C62.0829 34.2556 62.1117 34.3788 62.1581 34.4961C62.3858 35.148 62.6668 35.7799 62.9982 36.3854C63.3255 36.9458 63.6899 37.4835 64.0888 37.9949C63.8216 38.034 63.5532 38.0934 63.2829 38.1157C63.156 38.1204 63.029 38.1115 62.9039 38.0891C62.7403 38.0446 62.5811 37.985 62.4284 37.9113C62.1576 37.7785 61.9253 37.5782 61.7538 37.3296C61.6606 37.1891 61.5858 37.0372 61.5314 36.8776V36.8776C61.518 36.8313 61.5081 36.784 61.5018 36.7361C61.4995 36.7 61.5009 36.6637 61.5056 36.6278V36.6278C61.5071 36.6135 61.5112 36.5996 61.5177 36.5868L61.522 36.5817C61.5246 36.5798 61.5275 36.5784 61.5306 36.5774C61.5306 36.5774 61.5306 36.5739 61.5306 36.5739C61.5239 36.5748 61.5179 36.5783 61.5138 36.5837C61.5066 36.5966 61.5012 36.6106 61.4979 36.6251C61.485 36.6761 61.4807 36.729 61.485 36.7815C61.4951 36.9024 61.5234 37.021 61.5691 37.1333C61.6307 37.2981 61.7104 37.4554 61.8067 37.6024C62.0657 37.9549 62.398 38.2466 62.7805 38.4574C62.9948 38.5485 63.2216 38.6065 63.4531 38.6294C63.7382 38.6548 64.0261 38.6638 64.312 38.6716C64.4265 38.6752 64.5414 38.6716 64.6563 38.6658C64.8012 38.8245 64.9488 38.9813 65.1023 39.131C65.394 39.4148 65.6951 39.6951 66.0117 39.9519C66.2094 40.1168 66.4194 40.2661 66.64 40.3984C66.9319 40.5828 67.245 40.7312 67.5725 40.8402C67.7917 40.903 68.0141 40.9537 68.2389 40.9922C68.3359 41.0101 68.434 41.0216 68.5326 41.0266C68.5622 41.061 68.5933 41.0946 68.6221 41.1298C68.6759 41.1967 68.7308 41.2624 68.7892 41.3253C68.8325 41.3734 68.8784 41.4195 68.924 41.4649C69.0042 41.5402 69.0947 41.6037 69.1928 41.6533C69.1928 41.6533 69.1963 41.6533 69.1928 41.6509C69.1295 41.5907 69.072 41.5246 69.021 41.4535C68.9361 41.3144 68.8603 41.17 68.7939 41.0212C69.1342 41.017 69.4721 40.9644 69.7976 40.8648L69.8826 40.8362C70.202 41.0125 70.5579 41.1121 70.9221 41.1271C70.9513 41.1271 70.9809 41.1271 71.0102 41.1271C71.2358 41.1231 71.4587 41.0767 71.6672 40.9903C71.8545 40.9183 72.0235 40.8053 72.1619 40.6595C72.4059 40.3871 72.5906 40.0666 72.7045 39.7186C72.729 39.6447 72.7582 39.5708 72.7773 39.4949C72.7983 39.4117 72.8198 39.3276 72.8412 39.2436C72.8827 39.063 72.9146 38.8803 72.9366 38.6963C72.9479 38.6251 72.9565 38.5544 72.9619 38.482C72.9654 38.4332 72.9693 38.3839 72.9732 38.3343C73.1173 38.1454 73.2579 37.9531 73.3876 37.7514C73.7342 37.2063 74.0487 36.6414 74.3294 36.0594C74.5951 35.5122 74.8291 34.9502 75.0305 34.376C76.6308 34.6463 78.2137 35.0118 79.7707 35.4707C91.4326 38.9367 102.418 42.5161 114.111 46.9802C122.287 50.1342 130.015 48.2558 138.108 46.0607C142.098 45.0052 145.982 43.8609 149.891 41.7452C149.952 41.612 149.972 41.4628 149.946 41.3183C149.923 41.1533 149.859 41.0708 149.794 41.1271C137.984 45.7694 126.263 47.8312 114.177 43.5568C102.541 39.4355 91.6772 35.3714 79.9787 30.487C78.7314 29.966 77.4504 29.5303 76.1445 29.1829C76.1445 29.1692 76.1476 29.1555 76.1484 29.1438C76.1961 28.1771 76.1365 27.2082 75.9708 26.2548C75.9412 26.0784 75.8742 25.7939 75.8263 25.6207C75.7402 25.3157 75.6483 25.0089 75.5435 24.7055C75.4804 24.45 75.3833 24.2043 75.2549 23.9748C75.2089 23.8736 75.1614 23.7731 75.1104 23.6738C74.9068 23.2709 74.6665 22.8879 74.3925 22.5295V22.5264L74.2971 22.4146C74.2621 22.372 74.2293 22.3274 74.1919 22.286C74.1078 22.1918 74.0178 22.0937 73.9224 22.001C73.8306 21.9057 73.7337 21.8154 73.6322 21.7305C73.4118 21.558 73.1819 21.3981 72.9436 21.2516C72.7441 21.1258 72.5358 21.0146 72.3204 20.9189C71.8154 20.6901 71.2827 20.5286 70.7359 20.4384C70.2383 20.359 69.7348 20.3222 69.2309 20.3286C69.1149 20.3286 68.999 20.3328 68.8835 20.3411C68.5208 20.3661 68.1601 20.4142 67.8034 20.485C67.237 20.6463 66.6898 20.8692 66.1714 21.1495C63.8879 23.0658 62.122 25.5285 61.0367 28.3103C60.9876 28.4456 60.9646 28.5883 60.9265 28.7266C48.5907 30.6813 36.4731 36.6865 24.0801 34.5766C23.8596 34.5699 23.6727 35.1126 23.666 35.8346C23.6637 36.5184 23.837 37.0997 24.0707 37.1192ZM72.7415 38.9117C72.7107 39.0004 72.6838 39.0907 72.6476 39.1759C72.6114 39.2612 72.5814 39.3444 72.542 39.4242C72.507 39.4946 72.4731 39.5661 72.4353 39.6345C72.3347 39.8144 72.2165 39.9839 72.0824 40.1404C71.9947 40.2369 71.8975 40.3242 71.7923 40.4011C71.7199 40.4443 71.6441 40.4811 71.5656 40.5114C71.4341 40.553 71.2986 40.5802 71.1613 40.5923C71.0047 40.5977 70.848 40.5863 70.6939 40.5583C70.6654 40.5513 70.6366 40.5426 70.6082 40.5348C70.6522 40.5106 70.6974 40.4875 70.741 40.4602C71.2563 40.147 71.7273 39.7657 72.1412 39.3265C72.3882 39.0559 72.6266 38.7811 72.8536 38.4957C72.8242 38.6364 72.7868 38.7753 72.7415 38.9117Z" fill="white"/>
<path d="M149.796 58.0315C137.986 62.6711 126.265 64.7329 114.179 60.4553C102.544 56.338 91.6793 52.2762 79.9808 47.3918C68.2223 42.4618 56.8685 46.3328 45.5244 49.3144C45.4017 48.7124 45.2011 48.129 44.9277 47.5791C44.6142 46.984 44.229 46.4299 43.7806 45.9293C43.3654 45.4641 42.9498 45.0017 42.5595 44.5146V44.5169C42.9315 45.0583 43.314 45.5916 43.6891 46.1315C43.774 46.2624 43.8585 46.3942 43.9426 46.5255C44.0205 46.6491 44.0867 46.7831 44.1572 46.9122C44.2246 47.0345 44.2784 47.1651 44.336 47.2918C44.4334 47.5052 44.5175 47.7218 44.5935 47.945C44.689 48.2347 44.7616 48.5316 44.8104 48.8328C44.833 48.9751 44.8459 49.1186 44.8615 49.2628C44.8692 49.3371 44.8731 49.4122 44.879 49.4865C44.6585 49.5439 44.4377 49.5987 44.2168 49.655C43.9352 49.1176 43.6174 48.6001 43.2657 48.1061C42.8786 47.5348 42.4452 46.9966 41.9698 46.497C41.5106 46.0398 41.0213 45.614 40.5053 45.2225C40.7534 45.115 40.9976 44.988 41.2532 44.8981C41.3746 44.8606 41.4997 44.8364 41.6263 44.8257C41.7962 44.8266 41.9657 44.8431 42.1326 44.875C42.4283 44.9334 42.704 45.0671 42.9334 45.2632C43.0595 45.3747 43.1707 45.5022 43.2641 45.6424V45.6424C43.289 45.6837 43.3108 45.7268 43.3292 45.7714C43.3404 45.8058 43.3485 45.8411 43.3533 45.877V45.877C43.3557 45.8911 43.3557 45.9055 43.3533 45.9196V45.9196L43.3506 45.9258C43.3484 45.9282 43.3459 45.9303 43.3432 45.9321C43.3432 45.9321 43.3432 45.936 43.3432 45.9356C43.3494 45.9327 43.3543 45.9277 43.3572 45.9215C43.3607 45.9071 43.3623 45.8922 43.3619 45.8774C43.3612 45.824 43.3517 45.7712 43.3338 45.721C43.2933 45.6072 43.2356 45.5003 43.1629 45.4039C43.0608 45.261 42.9433 45.1298 42.8123 45.013C42.4715 44.7393 42.0757 44.5431 41.652 44.4379C41.4216 44.4052 41.1876 44.4077 40.9579 44.4454C40.6759 44.4942 40.3955 44.5603 40.117 44.6264C40.0056 44.6526 39.8954 44.6854 39.7855 44.7206C39.6052 44.6033 39.4221 44.4915 39.2356 44.3863C38.8811 44.1869 38.5181 43.9954 38.145 43.8281C37.912 43.7197 37.6709 43.6298 37.424 43.5591C37.0946 43.456 36.7539 43.3934 36.4094 43.3726C36.1814 43.3683 35.9533 43.3766 35.7262 43.3973C35.6279 43.4054 35.5302 43.4196 35.4337 43.4399C35.3947 43.4145 35.3558 43.3902 35.3211 43.3617C35.2518 43.3109 35.1817 43.2616 35.1092 43.2159C35.0551 43.1807 34.999 43.1482 34.9433 43.1162C34.8464 43.064 34.7427 43.0258 34.6352 43.0028V43.0028C34.6352 43.0028 34.6321 43.0028 34.6352 43.0055C34.7118 43.0476 34.7842 43.0967 34.8518 43.1521C34.9694 43.2647 35.0797 43.3847 35.1821 43.5114C34.8543 43.6031 34.5412 43.7409 34.252 43.9207L34.1772 43.9708C33.8232 43.8828 33.4538 43.8782 33.0979 43.9575C33.0694 43.9653 33.0414 43.9735 33.0137 43.9825C32.8969 44.0173 32.7833 44.0626 32.6745 44.1178C32.5834 44.1666 32.4961 44.2221 32.4131 44.2839C32.2508 44.4022 32.1166 44.555 32.0201 44.7315C31.854 45.0575 31.7576 45.4148 31.737 45.7804C31.7319 45.8586 31.7229 45.9368 31.7237 46.015C31.7237 46.1014 31.7257 46.1878 31.7261 46.2745C31.7324 46.4596 31.7484 46.6443 31.774 46.8277C31.7814 46.8993 31.7911 46.97 31.8047 47.0412L31.8316 47.187C31.7405 47.4067 31.654 47.6287 31.58 47.8574C31.3849 48.4731 31.2258 49.0997 31.1033 49.7339C30.9677 50.4466 30.8803 51.1677 30.8415 51.8923C28.5792 51.9872 26.3132 51.8487 24.0791 51.4791C23.8586 51.4751 23.6717 52.0142 23.665 52.7351C23.665 53.4197 23.838 54.0025 24.0709 54.0166C26.3526 54.4513 28.6241 54.8821 30.8945 55.2144C30.938 55.7764 31.0118 56.3356 31.1153 56.8896C31.3168 57.836 31.6226 58.757 32.0271 59.6355C32.1008 59.7985 32.2386 60.0562 32.3294 60.211C32.4903 60.4846 32.6577 60.7563 32.8357 61.0226C32.9624 61.2533 33.1197 61.4658 33.3031 61.6543C33.3736 61.7403 33.4453 61.8251 33.5201 61.9076C33.8199 62.2445 34.1501 62.5527 34.5067 62.8283V62.8318L34.6274 62.9151C34.6722 62.9471 34.7155 62.9819 34.7622 63.0124C34.8677 63.082 34.9799 63.1532 35.0956 63.2181C35.2089 63.2867 35.3259 63.349 35.4461 63.4045C35.7034 63.5144 35.9666 63.6097 36.2345 63.6899C36.4599 63.7599 36.69 63.8135 36.9231 63.8502C37.4697 63.9411 38.0258 63.9599 38.5773 63.9061C39.0795 63.8537 39.5764 63.7585 40.0625 63.6215C40.1744 63.5905 40.2853 63.5566 40.3951 63.5198C40.739 63.4021 41.0752 63.2625 41.4016 63.1019C41.9076 62.7996 42.3794 62.4427 42.8084 62.0378C44.304 59.9004 45.3207 57.4632 45.7885 54.8939C46.2925 54.7645 46.7976 54.6202 47.3032 54.4603C58.3026 50.9493 68.7898 49.1131 79.7748 52.3688C91.4367 55.8364 102.422 59.417 114.116 63.8834C122.291 67.0347 130.019 65.1586 138.112 62.9616C142.102 61.9061 145.986 60.7641 149.895 58.6484C149.956 58.5141 149.976 58.364 149.95 58.2184C149.925 58.0538 149.862 57.9756 149.796 58.0315ZM31.9087 46.5697C31.9158 46.4759 31.9185 46.3817 31.9317 46.2898C31.945 46.1979 31.9524 46.1096 31.9707 46.0224C31.987 45.9442 32.001 45.866 32.0205 45.7921C32.0713 45.5921 32.142 45.3978 32.2316 45.212C32.2919 45.0963 32.3636 44.987 32.4455 44.8856C32.5043 44.8251 32.5681 44.7697 32.6363 44.7202C32.7527 44.646 32.8768 44.5848 33.0063 44.5376C33.1565 44.4919 33.3111 44.4624 33.4675 44.4497C33.4967 44.4497 33.5267 44.4497 33.5563 44.4497C33.5197 44.4844 33.4819 44.5185 33.4469 44.5564C33.029 44.9923 32.6716 45.4828 32.3843 46.0146C32.2149 46.3398 32.0552 46.6666 31.9087 47.0013C31.9006 46.8575 31.9006 46.7134 31.9087 46.5697V46.5697Z" fill="white"/>
<path d="M149.797 74.9309C147.94 75.6606 146.084 76.3186 144.23 76.9047C144.26 76.4505 144.242 75.9943 144.176 75.5439C144.068 74.8795 143.879 74.231 143.613 73.6131C143.368 73.0392 143.121 72.468 142.906 71.8812C143.086 72.5133 143.279 73.1412 143.463 73.7729C143.502 73.9244 143.541 74.0759 143.58 74.2276C143.616 74.3703 143.635 74.5181 143.66 74.6627C143.685 74.8003 143.695 74.9411 143.709 75.0798C143.733 75.3129 143.745 75.5469 143.745 75.7812C143.744 76.0863 143.719 76.3909 143.669 76.692C143.646 76.8328 143.613 76.9712 143.582 77.1104C143.339 77.185 143.096 77.2593 142.853 77.3308C142.757 76.7142 142.618 76.105 142.437 75.5079C142.252 74.8426 142.012 74.1938 141.72 73.5681C141.43 72.9877 141.102 72.4275 140.737 71.8914C141.006 71.8687 141.278 71.8276 141.549 71.823C141.676 71.8264 141.802 71.8436 141.926 71.8742C142.086 71.9293 142.241 71.9991 142.389 72.0825C142.533 72.1707 142.667 72.2757 142.786 72.3953C142.875 72.4919 142.955 72.5966 143.024 72.708C143.109 72.8543 143.174 73.0108 143.219 73.1736V73.1736C143.23 73.2209 143.237 73.2688 143.24 73.3171C143.24 73.3532 143.236 73.3892 143.229 73.4246V73.4246C143.227 73.4384 143.222 73.4516 143.214 73.4637L143.21 73.4684L143.201 73.4723V73.4758C143.204 73.4756 143.207 73.4746 143.21 73.4731C143.213 73.4715 143.216 73.4694 143.218 73.4668C143.226 73.4547 143.233 73.4416 143.237 73.4277C143.253 73.3772 143.261 73.3244 143.26 73.2714C143.257 73.1506 143.237 73.0309 143.198 72.9164C143.148 72.748 143.078 72.5859 142.992 72.4328C142.755 72.0644 142.443 71.7518 142.074 71.5165C141.866 71.4117 141.644 71.3392 141.414 71.3015C141.131 71.2573 140.845 71.2299 140.56 71.2037C140.446 71.1928 140.331 71.1885 140.216 71.1869C140.082 71.0192 139.943 70.853 139.801 70.6939C139.528 70.3914 139.245 70.0927 138.946 69.8163C138.76 69.639 138.56 69.4765 138.348 69.3304C138.069 69.1272 137.766 68.9588 137.446 68.8288C137.231 68.7515 137.012 68.6862 136.79 68.6333C136.695 68.6092 136.598 68.5913 136.5 68.5798C136.472 68.5438 136.443 68.5082 136.417 68.4711C136.368 68.4007 136.317 68.3315 136.262 68.2651C136.223 68.2142 136.179 68.1654 136.136 68.1173C136.061 68.0368 135.975 67.9676 135.88 67.9117C135.88 67.9117 135.877 67.9117 135.88 67.914C135.939 67.9783 135.993 68.0481 136.039 68.1224C136.115 68.2665 136.181 68.4155 136.237 68.5684C135.897 68.5501 135.556 68.5805 135.225 68.6587L135.138 68.6818C134.831 68.485 134.482 68.3626 134.119 68.3241C134.09 68.3221 134.06 68.321 134.032 68.3206C133.91 68.3161 133.788 68.3227 133.667 68.3401C133.565 68.3573 133.465 68.382 133.367 68.414C133.175 68.474 132.999 68.5759 132.852 68.7123C132.591 68.9681 132.386 69.2758 132.25 69.6157C132.221 69.6881 132.187 69.76 132.163 69.8343C132.136 69.9164 132.11 69.9985 132.083 70.081C132.03 70.2585 131.986 70.4387 131.952 70.6208C131.937 70.6908 131.923 70.7612 131.913 70.8327C131.907 70.8816 131.9 70.9305 131.892 70.9797C131.736 71.1584 131.584 71.3413 131.441 71.5345C130.388 72.9802 129.569 74.5843 129.015 76.287C128.802 76.9399 128.612 77.6033 128.456 78.2722C128.348 78.7374 128.246 79.2077 128.174 79.6796C123.411 79.733 118.676 78.9467 114.184 77.3566C102.549 73.2354 91.6844 69.1724 79.9859 64.2908C60.8472 56.2638 42.7804 71.5646 24.083 68.3757C23.8625 68.3757 23.6756 68.9132 23.6689 69.6357C23.6689 70.3202 23.8419 70.9004 24.0748 70.9195C31.8215 72.3949 39.4525 73.8586 47.3056 71.3593C58.3049 67.8483 68.7921 66.0148 79.7771 69.2678C91.439 72.7393 102.424 76.3199 114.118 80.7851C118.87 82.6178 123.472 82.7445 128.081 82.1022C128.094 82.3489 128.095 82.5979 128.12 82.8403C128.138 83.0182 128.187 83.3067 128.224 83.4822C128.29 83.7922 128.362 84.1046 128.447 84.4138C128.493 84.6729 128.574 84.9245 128.688 85.1617C128.727 85.266 128.768 85.3692 128.813 85.4717C128.99 85.8869 129.205 86.2847 129.455 86.6601V86.6632C129.484 86.7023 129.514 86.7414 129.544 86.7805C129.573 86.8196 129.605 86.872 129.64 86.9158C129.718 87.0155 129.802 87.1191 129.891 87.2176C129.977 87.3187 130.068 87.4152 130.164 87.5065C130.372 87.6929 130.591 87.8673 130.82 88.0288C131.011 88.1676 131.212 88.2921 131.422 88.4013C131.911 88.6625 132.432 88.8584 132.971 88.9838C133.464 89.0949 133.965 89.1638 134.469 89.1898C134.586 89.1965 134.701 89.1996 134.817 89.1996C135.181 89.1982 135.544 89.1737 135.904 89.1261C136.48 89.0015 137.04 88.8143 137.576 88.5679C139.978 86.8036 141.898 84.4606 143.161 81.755C143.418 81.0679 143.627 80.3639 143.788 79.6479C143.903 79.2452 143.995 78.8358 144.06 78.4219C144.078 78.3074 144.094 78.1925 144.11 78.0775C146.104 77.3915 148.04 76.5462 149.9 75.5497C149.961 75.4146 149.98 75.264 149.955 75.1178C149.926 74.9543 149.862 74.8754 149.797 74.9309ZM132.156 70.4195C132.192 70.3331 132.225 70.2444 132.267 70.1619C132.309 70.0794 132.345 69.9981 132.388 69.9215C132.427 69.853 132.466 69.7842 132.508 69.7182C132.62 69.545 132.749 69.3836 132.893 69.2361C132.987 69.1455 133.09 69.0647 133.2 68.9949C133.275 68.9564 133.353 68.9245 133.433 68.8995C133.567 68.8664 133.704 68.8482 133.842 68.8452C133.999 68.8497 134.155 68.8712 134.307 68.9093C134.335 68.9179 134.363 68.9285 134.391 68.9383C134.345 68.9598 134.299 68.9797 134.253 69.0043C133.719 69.2839 133.224 69.6343 132.783 70.0462C132.519 70.3003 132.263 70.5591 132.018 70.828C132.057 70.6894 132.103 70.553 132.156 70.4195V70.4195ZM143.128 78.6456C143.095 78.7402 143.058 78.8336 143.019 78.9262C143.014 78.7667 143.006 78.6078 142.996 78.4493C143.071 78.4247 143.146 78.3989 143.221 78.3742C143.19 78.4646 143.16 78.5552 143.129 78.6456H143.128Z" fill="white"/>
<path d="M149.797 91.8306C137.987 96.4726 126.265 98.5367 114.179 94.2583C109.933 92.7556 105.794 91.2595 101.676 89.7293C101.693 89.6676 101.715 89.6085 101.732 89.5464C101.903 88.8818 102.05 88.207 102.163 87.5292C102.266 86.9693 102.338 86.4042 102.381 85.8364C102.428 84.8698 102.369 83.9008 102.203 82.9474C102.174 82.7711 102.107 82.4865 102.058 82.3133C101.973 82.0084 101.881 81.7015 101.776 81.3981C101.713 81.1426 101.616 80.8969 101.487 80.6675C101.441 80.5662 101.394 80.4657 101.342 80.3664C101.139 79.9636 100.899 79.5805 100.625 79.2222V79.219C100.594 79.1819 100.561 79.1448 100.529 79.1072C100.498 79.0697 100.462 79.0197 100.424 78.9786C100.34 78.884 100.25 78.7863 100.155 78.6936C100.063 78.598 99.9661 78.5077 99.8642 78.4231C99.644 78.2505 99.4142 78.0906 99.176 77.9442C98.9765 77.8184 98.7682 77.7072 98.5528 77.6115C98.0479 77.3827 97.5153 77.2211 96.9687 77.1307C96.4699 77.052 95.9654 77.0158 95.4606 77.0224C95.3445 77.0224 95.2287 77.0267 95.1131 77.0353C94.7505 77.0603 94.3897 77.1083 94.0331 77.1791C93.4667 77.3406 92.9194 77.5634 92.4011 77.8437C90.3202 79.5948 88.663 81.7975 87.5546 84.2856C85.0575 83.2867 82.5421 82.264 79.982 81.1972C60.8433 73.1705 42.7765 88.4658 24.0791 85.2821C23.8586 85.2821 23.6717 85.8172 23.665 86.5393C23.665 87.2238 23.838 87.8032 24.0709 87.8235C31.8176 89.2985 39.4486 90.7649 47.3016 88.2661C58.301 84.7476 68.7882 82.9189 79.7732 86.1746C82.0751 86.8599 84.3463 87.5518 86.6061 88.2516C86.6011 88.2981 86.5886 88.3439 86.5843 88.3908C86.4536 89.3486 86.475 90.3212 86.6478 91.2724C86.7983 91.9283 87.0287 92.5631 87.3337 93.1625C87.6161 93.7192 87.8993 94.2736 88.1517 94.8435C87.9312 94.2243 87.6979 93.6101 87.4735 92.9917C87.4253 92.8435 87.377 92.6942 87.3294 92.5456C87.2843 92.4053 87.2562 92.2595 87.2212 92.1156C87.1873 91.9799 87.1686 91.8396 87.1456 91.7024C87.1066 91.471 87.0805 91.2387 87.0642 91.0046C87.0459 90.6999 87.0517 90.3943 87.0813 90.0906C87.0961 89.9471 87.1203 89.8056 87.1421 89.6633C87.1736 89.4584 87.2141 89.2555 87.2535 89.0526C87.2885 88.8986 87.3232 88.7453 87.3586 88.5921C87.3664 88.5581 87.3773 88.5252 87.3859 88.4916L87.6901 88.5855C87.8324 89.4763 88.0661 90.3501 88.3877 91.1926C88.6155 91.8445 88.8965 92.4765 89.2278 93.082C89.5551 93.6422 89.9194 94.1798 90.3184 94.6911C90.0508 94.7302 89.7829 94.79 89.5122 94.8123C89.3854 94.8169 89.2585 94.808 89.1336 94.7857C88.9699 94.7411 88.8106 94.6815 88.6576 94.6078C88.508 94.5295 88.3681 94.4337 88.2409 94.3224C88.1461 94.2319 88.0599 94.1327 87.9834 94.0261C87.8902 93.8857 87.8153 93.7338 87.7606 93.5742V93.5742C87.7472 93.5277 87.7372 93.4802 87.7306 93.4323C87.7288 93.3963 87.7301 93.3602 87.7345 93.3244V93.3244C87.7365 93.3107 87.7407 93.2975 87.747 93.2853V93.2853L87.7517 93.2802C87.7542 93.2782 87.7571 93.2768 87.7602 93.2759C87.7602 93.2759 87.7602 93.2724 87.7602 93.2724C87.7535 93.2734 87.7474 93.2769 87.7431 93.2822C87.7361 93.2953 87.7308 93.3092 87.7271 93.3236C87.7145 93.3747 87.7103 93.4275 87.7146 93.48C87.7244 93.6009 87.7528 93.7196 87.7988 93.8318C87.8603 93.9965 87.9398 94.1539 88.036 94.3009C88.2952 94.6532 88.6274 94.9449 89.0097 95.1559C89.2239 95.2469 89.4506 95.3049 89.682 95.3279C89.9671 95.3533 90.2549 95.3623 90.5412 95.3701C90.6553 95.3733 90.7706 95.3701 90.8855 95.3643C91.0304 95.523 91.1781 95.6798 91.3315 95.8291C91.6232 96.1133 91.9243 96.3936 92.241 96.6501C92.4385 96.8148 92.6484 96.964 92.8689 97.0961C93.1615 97.2809 93.4754 97.4294 93.8036 97.5383C94.0229 97.6011 94.2453 97.6519 94.4701 97.6903C94.5671 97.7081 94.6652 97.7195 94.7638 97.7247C94.7934 97.7591 94.8245 97.7928 94.853 97.8279C94.9067 97.8948 94.962 97.9605 95.0204 98.0234C95.0637 98.0715 95.1096 98.1176 95.1552 98.1626C95.2352 98.2381 95.3256 98.3017 95.4236 98.3514C95.4236 98.3514 95.4271 98.3514 95.4236 98.3491C95.3606 98.2893 95.3032 98.2239 95.2522 98.1536C95.1673 98.0145 95.0915 97.8701 95.0251 97.7212C95.3653 97.7172 95.7031 97.6645 96.0285 97.5648L96.1134 97.5363C96.433 97.7126 96.7889 97.8122 97.1533 97.8272C97.1825 97.8272 97.2121 97.8272 97.241 97.8272C97.3629 97.8236 97.4843 97.8089 97.6036 97.7834C97.704 97.7598 97.8026 97.7287 97.8984 97.6903C98.0856 97.6181 98.2546 97.5052 98.3931 97.3596C98.6371 97.0872 98.8218 96.7667 98.9357 96.4186C98.9602 96.3447 98.9894 96.2708 99.0081 96.195C99.0295 96.1117 99.0506 96.0277 99.0724 95.9436C99.1138 95.763 99.1456 95.5803 99.1678 95.3963C99.1791 95.3252 99.1877 95.2544 99.1931 95.1821C99.1962 95.1328 99.2001 95.084 99.204 95.0343C99.3485 94.8455 99.4887 94.6532 99.6188 94.4514C99.9594 93.9147 100.269 93.3588 100.546 92.7864C105.015 94.317 109.509 95.9339 114.114 97.6919C122.289 100.842 130.017 98.966 138.11 96.7712C142.1 95.7157 145.984 94.5742 149.893 92.4604C149.954 92.3245 149.973 92.1731 149.948 92.0261C149.926 91.8548 149.862 91.779 149.797 91.8306ZM98.9711 95.6043C98.9403 95.693 98.9135 95.7834 98.8768 95.8686C98.8402 95.9538 98.811 96.0371 98.7717 96.1168C98.7366 96.1872 98.7027 96.2587 98.6646 96.3271C98.5642 96.5072 98.4461 96.6766 98.3121 96.833C98.2243 96.9295 98.1269 97.0167 98.0215 97.0934C97.9493 97.1369 97.8735 97.1739 97.7948 97.204C97.6634 97.2458 97.5278 97.2729 97.3905 97.2849C97.234 97.2904 97.0773 97.279 96.9231 97.2509C96.8943 97.2439 96.8659 97.2353 96.8371 97.2275C96.8815 97.2032 96.9266 97.1802 96.9703 97.1528C97.4855 96.8396 97.9564 96.4582 98.3705 96.0191C98.6174 95.7486 98.8558 95.4718 99.0829 95.1884C99.0532 95.329 99.0159 95.4678 98.9711 95.6043V95.6043Z" fill="white"/>
<path d="M149.796 107.147C137.986 111.79 126.265 113.851 114.179 109.577C102.544 105.456 91.6795 101.392 79.981 96.5073C60.8423 88.4857 42.7755 103.781 24.0781 100.598C23.8576 100.591 23.6707 101.134 23.6641 101.856C23.6641 102.538 23.837 103.12 24.0699 103.139C31.8166 104.611 39.4476 106.075 47.3007 103.58C58.3001 100.066 68.7873 98.2313 79.7722 101.491C91.4342 104.957 102.419 108.536 114.113 113.001C122.288 116.154 130.016 114.276 138.109 112.081C142.099 111.026 145.984 109.881 149.892 107.765C149.954 107.632 149.973 107.483 149.947 107.339C149.926 107.174 149.862 107.091 149.796 107.147Z" fill="white"/>
</svg>
