<svg width="488" height="256" viewBox="0 0 488 256" fill="none" xmlns="http://www.w3.org/2000/svg">
<path d="M486.471 153.051H383.289V255.034H486.471V153.051Z" fill="#FE346E"/>
<path d="M486.165 153.356V254.729H383.594V153.356H486.165V153.356ZM486.776 152.745H382.983V255.339H486.776V152.745Z" fill="black"/>
<path d="M377.183 153.051H271.346V255.034H377.183V153.051Z" fill="#FE346E"/>
<path d="M376.877 153.356V254.729H271.651V153.356H376.877V153.356ZM377.488 152.745H271.04V255.339H377.488V152.745Z" fill="black"/>
<path d="M264.844 153.051H166.333V255.034H264.844V153.051Z" fill="#FE346E"/>
<path d="M264.538 153.356V254.729H166.638V153.356H264.538V153.356ZM265.149 152.745H166.027V255.339H265.149V152.745Z" fill="black"/>
<path d="M96.9449 153.051H1.08984V255.034H96.9449V153.051Z" fill="#FE346E"/>
<path d="M96.6392 153.356V254.729H1.39472V153.356H96.6392V153.356ZM97.2498 152.745H0.78418V255.339H97.2498V152.745Z" fill="black"/>
<path d="M487.081 0.38147H383.289V75.4948H487.081V0.38147Z" fill="#381460"/>
<path d="M486.776 0.686849V75.1895H383.594V0.686849H486.776V0.686849ZM487.386 0.0761719H382.983V75.8001H487.386V0.0761719Z" fill="black"/>
<path d="M377.184 0.38147H244.482V124.349H377.184V0.38147Z" fill="#FF6363"/>
<path d="M376.878 0.686849V124.044H244.787V0.686849H376.878V0.686849ZM377.489 0.0761719H244.177V124.654H377.489V0.0761719Z" fill="black"/>
<path d="M237.98 0.38147H111.384V124.349H237.98V0.38147Z" fill="#FF6363"/>
<path d="M237.674 0.686849V124.044H111.689V0.686849H237.674V0.686849ZM238.284 0.0761719H111.078V124.654H238.284V0.0761719Z" fill="black"/>
<path d="M104.882 0.38147H1.7002V124.349H104.882V0.38147Z" fill="#FE346E"/>
<path d="M104.576 0.686849V124.044H2.00507V0.686849H104.576V0.686849ZM105.187 0.0761719H1.39453V124.654H105.187V0.0761719Z" fill="black"/>
</svg>
