<svg xmlns="http://www.w3.org/2000/svg" width="1366" height="768" viewBox="0 0 1366 768"><defs><style>.cls-1{fill:#fe346e;}.cls-2{fill:#381460;}.cls-3{fill:#ff6363;}.cls-4{fill:#fff;}</style></defs><g id="bund"><rect x="284.86" y="175.16" width="796.28" height="417.68"/></g><g id="oevelokaler"><g id="oevelokale8"><rect class="cls-1" x="911.14" y="425.84" width="169" height="167"/><path d="M1079.64,426.34v166h-168v-166h168m1-1h-170v168h170v-168Z"/></g><g id="oevelokale7"><rect class="cls-1" x="727.79" y="425.84" width="173.35" height="167"/><path d="M900.64,426.34v166H728.29v-166H900.64m1-1H727.29v168H901.64v-168Z"/></g><g id="oevelokale6"><rect class="cls-1" x="555.79" y="425.84" width="161.35" height="167"/><path d="M716.64,426.34v166H556.29v-166H716.64m1-1H555.29v168H717.64v-168Z"/></g><g id="oevelokale5"><rect class="cls-1" x="285.14" y="425.84" width="157" height="167"/><path d="M441.64,426.34v166h-156v-166h156m1-1h-158v168h158v-168Z"/></g><g id="oevelokale4"><rect class="cls-2" x="911.14" y="175.84" width="170" height="123"/><path d="M1080.64,176.34v122h-169v-122h169m1-1h-171v124h171v-124Z"/></g><g id="oevelokale3"><rect class="cls-3" x="683.79" y="175.84" width="217.35" height="203"/><path d="M900.64,176.34v202H684.29v-202H900.64m1-1H683.29v204H901.64v-204Z"/></g><g id="oevelokale2"><rect class="cls-3" x="465.79" y="175.84" width="207.35" height="203"/><path d="M672.64,176.34v202H466.29v-202H672.64m1-1H465.29v204H673.64v-204Z"/></g><g id="oevelokale1"><rect class="cls-1" x="286.14" y="175.84" width="169" height="203"/><path d="M454.64,176.34v202h-168v-202h168m1-1h-170v204h170v-204Z"/></g></g><g id="øvrige_rum"><rect class="cls-4" x="980.29" y="307.84" width="101.35" height="33.5"/><polygon class="cls-4" points="970.64 350.34 970.64 307.84 910.64 307.84 910.64 350.34 910.64 354.34 910.64 416.34 1080.64 416.34 1080.64 350.34 970.64 350.34"/><polygon class="cls-4" points="901.64 416.34 546.03 416.34 546.64 593.34 451.64 593.34 450.87 416.34 284.64 416.34 284.64 388.34 901.64 388.34 901.64 416.34"/></g><g id="døre"><path d="M424.56,380.76H407.22V363.42h1.42a15.94,15.94,0,0,1,15.92,15.92Zm-14.5-2.84h11.58a13.1,13.1,0,0,0-11.58-11.59Z"/><path d="M408.64,404.26h-1.42V386.92h17.34v1.42A15.94,15.94,0,0,1,408.64,404.26Zm1.42-14.5v11.59a13.1,13.1,0,0,0,11.58-11.59Z"/><path d="M658.56,380.76H641.22V363.42h1.42a15.94,15.94,0,0,1,15.92,15.92Zm-14.5-2.84h11.58a13.1,13.1,0,0,0-11.58-11.59Z"/><path d="M642.64,404.26h-1.42V386.92h17.34v1.42A15.94,15.94,0,0,1,642.64,404.26Zm1.42-14.5v11.59a13.1,13.1,0,0,0,11.58-11.59Z"/><path d="M885.56,380.76H868.22V363.42h1.42a15.94,15.94,0,0,1,15.92,15.92Zm-14.5-2.84h11.59a13.12,13.12,0,0,0-11.59-11.59Z"/><path d="M869.64,404.26h-1.42V386.92h17.34v1.42A15.94,15.94,0,0,1,869.64,404.26Zm1.42-14.5v11.59a13.12,13.12,0,0,0,11.59-11.59Z"/><path d="M946.56,300.76H929.22V283.42h1.42a15.94,15.94,0,0,1,15.92,15.92Zm-14.5-2.84h11.59a13.12,13.12,0,0,0-11.59-11.59Z"/><path d="M930.64,324.26h-1.42V306.92h17.34v1.42A15.94,15.94,0,0,1,930.64,324.26Zm1.42-14.5v11.59a13.12,13.12,0,0,0,11.59-11.59Z"/><path d="M321.56,441.26h-1.42a15.94,15.94,0,0,1-15.92-15.92v-1.42h17.34Zm-14.43-14.5a13.12,13.12,0,0,0,11.59,11.59V426.76Z"/><path d="M321.56,417.76H304.22v-1.42a15.94,15.94,0,0,1,15.92-15.92h1.42Zm-14.43-2.84h11.59V403.33A13.12,13.12,0,0,0,307.13,414.92Z"/><path d="M591.06,441.26h-1.42a15.94,15.94,0,0,1-15.92-15.92v-1.42h17.34Zm-14.43-14.5a13.12,13.12,0,0,0,11.59,11.59V426.76Z"/><path d="M591.06,417.76H573.72v-1.42a15.94,15.94,0,0,1,15.92-15.92h1.42Zm-14.43-2.84h11.59V403.33A13.12,13.12,0,0,0,576.63,414.92Z"/><path d="M759.06,441.26h-1.42a15.94,15.94,0,0,1-15.92-15.92v-1.42h17.34Zm-14.43-14.5a13.12,13.12,0,0,0,11.59,11.59V426.76Z"/><path d="M759.06,417.76H741.72v-1.42a15.94,15.94,0,0,1,15.92-15.92h1.42Zm-14.43-2.84h11.59V403.33A13.12,13.12,0,0,0,744.63,414.92Z"/><path d="M947.06,441.26h-1.42a15.94,15.94,0,0,1-15.92-15.92v-1.42h17.34Zm-14.43-14.5a13.12,13.12,0,0,0,11.59,11.59V426.76Z"/><path d="M947.06,417.76H929.72v-1.42a15.94,15.94,0,0,1,15.92-15.92h1.42Zm-14.43-2.84h11.59V403.33A13.12,13.12,0,0,0,932.63,414.92Z"/></g><g id="trappe"><path d="M1047.14,388.76h-68a5.92,5.92,0,1,1,0-11.84h68a5.92,5.92,0,0,1,0,11.84Zm-68-9a3.08,3.08,0,0,0,0,6.16h68a3.08,3.08,0,0,0,0-6.16Z"/><rect x="979.22" y="350.84" width="2.83" height="28"/><rect x="986.22" y="350.84" width="2.83" height="28"/><rect x="993.22" y="350.84" width="2.83" height="28"/><rect x="1000.22" y="350.84" width="2.83" height="28"/><rect x="1007.22" y="350.84" width="2.83" height="28"/><rect x="979.22" y="387.84" width="2.83" height="28"/><rect x="986.22" y="387.84" width="2.83" height="28"/><rect x="993.22" y="387.84" width="2.83" height="28"/><rect x="1000.22" y="387.84" width="2.83" height="28"/><rect x="1007.22" y="387.84" width="2.83" height="28"/><rect x="1014.22" y="350.84" width="2.83" height="28"/><rect x="1021.22" y="350.84" width="2.83" height="28"/><rect x="1028.22" y="350.84" width="2.83" height="28"/><rect x="1035.22" y="350.84" width="2.83" height="28"/><rect x="1042.22" y="350.84" width="2.83" height="28"/></g><g id="ydre_ramme"><path d="M1084,595.67H282V172.33H1084ZM287.7,590h790.6V178H287.7Z"/></g></svg>