<svg xmlns="http://www.w3.org/2000/svg" width="457" height="105" viewBox="0 0 457 105">
  <g>
    <path d="M89.721,24.618V80.64H76.987L76.97,42.818,71.9,80.64H62.87L57.524,43.684,57.506,80.64H44.773V24.618H63.622q.838,5.051,1.729,11.909l2.069,14.25,3.348-26.159Z"/>
    <path d="M130.1,24.618v37.44A65.133,65.133,0,0,1,129.686,71a12.139,12.139,0,0,1-2.457,5.293,12.732,12.732,0,0,1-5.381,4.118,20.236,20.236,0,0,1-7.872,1.4,22.129,22.129,0,0,1-8.858-1.661,13.31,13.31,0,0,1-5.744-4.326,11.963,11.963,0,0,1-2.249-5.623q-.346-2.958-.346-12.439V24.618h14.567V66.625a16.582,16.582,0,0,0,.4,4.689,1.559,1.559,0,0,0,1.609,1.021,1.684,1.684,0,0,0,1.782-1.125,20.945,20.945,0,0,0,.4-5.311V24.618Z"/>
    <path d="M168.024,41.573h-13.53V37.421a8.152,8.152,0,0,0-.519-3.7,1.91,1.91,0,0,0-1.73-.8A2.2,2.2,0,0,0,150.255,34a6.226,6.226,0,0,0-.674,3.255,9.235,9.235,0,0,0,.758,4.225q.725,1.419,4.117,3.424,9.728,5.774,12.253,9.476t2.526,11.938q0,5.987-1.4,8.824a10.994,10.994,0,0,1-5.416,4.758,21.438,21.438,0,0,1-9.343,1.92,20.9,20.9,0,0,1-9.983-2.215,10.859,10.859,0,0,1-5.415-5.64,28.9,28.9,0,0,1-1.28-9.724V60.569h13.529v6.817q0,3.149.572,4.049a2.207,2.207,0,0,0,2.024.9,2.37,2.37,0,0,0,2.162-1.142,6.514,6.514,0,0,0,.71-3.391q0-4.949-1.35-6.471a43.04,43.04,0,0,0-6.816-5.087,67.023,67.023,0,0,1-7.2-5.224,12.232,12.232,0,0,1-2.924-4.5,19.79,19.79,0,0,1-1.159-7.336q0-6.435,1.644-9.411a11.059,11.059,0,0,1,5.311-4.655,21.2,21.2,0,0,1,8.858-1.678,23.088,23.088,0,0,1,9.672,1.834q4,1.835,5.294,4.62t1.3,9.464Z"/>
    <path d="M189.787,24.618V80.64H175.22V24.618Z"/>
    <path d="M231.776,24.618,223.42,49.912l9.152,30.728H217.52l-5.9-24.015V80.64H197.053V24.618H211.62V46.383l6.488-21.765Z"/>
    <path d="M252.483,24.618v44.81h8.858V80.64H237.916V24.618Z"/>
    <path d="M297.086,57.421q0,8.443-.4,11.955a13.4,13.4,0,0,1-8.15,10.883,20.613,20.613,0,0,1-8.305,1.557,21.107,21.107,0,0,1-8.079-1.471A13.472,13.472,0,0,1,263.8,69.532a118.533,118.533,0,0,1-.415-12.111V47.836q0-8.442.4-11.955A13.392,13.392,0,0,1,271.93,25a20.594,20.594,0,0,1,8.3-1.557,21.128,21.128,0,0,1,8.08,1.47,13.471,13.471,0,0,1,8.357,10.815,118.224,118.224,0,0,1,.415,12.11ZM282.518,39.013a17.369,17.369,0,0,0-.432-5,1.723,1.723,0,0,0-1.782-1.09,1.989,1.989,0,0,0-1.748.882q-.606.882-.6,5.208V65.172a25.683,25.683,0,0,0,.4,6.021,1.735,1.735,0,0,0,1.851,1.142,1.792,1.792,0,0,0,1.9-1.315,27.7,27.7,0,0,0,.415-6.263Z"/>
    <path d="M302.519,24.618h24.672V35.829h-10.1V46.452h9V57.11h-9V80.64H302.519Z"/>
    <path d="M362.9,24.618V35.829h-8.651V80.64H339.679V35.829h-8.616V24.618Z"/>
    <path d="M366.22,24.618h24.291V35.829h-9.725V46.452h9.1V57.11h-9.1V69.428H391.48V80.64H366.22Z"/>
    <path d="M425.505,24.618V35.829h-8.65V80.64H402.286V35.829h-8.615V24.618Z"/>
  </g>
</svg>
