<svg xmlns="http://www.w3.org/2000/svg" width="457" height="353" viewBox="0 0 457 353">
  <g>
    <path d="M208.069,164.09A20.772,20.772,0,0,0,195.416,150.5a34.459,34.459,0,0,0-13.248-2.3q-9.191,0-15.092,3.574a18.863,18.863,0,0,0-8.17,9.475,33.56,33.56,0,0,0-1.775,7.81H54.157V202.5H156.779a45.673,45.673,0,0,0,1.106,8.823,19.908,19.908,0,0,0,4.171,8.172,17.518,17.518,0,0,0,8.2,5.048,42.99,42.99,0,0,0,12.878,1.675,34.39,34.39,0,0,0,12.057-1.957,19.739,19.739,0,0,0,8.595-6.072,20.857,20.857,0,0,0,4.368-8.851,47.457,47.457,0,0,0,.8-6.838H408V169.063H208.9A28.227,28.227,0,0,0,208.069,164.09Z"/>
    <path d="M292.317,221.379a20.774,20.774,0,0,0-12.652-13.588,34.468,34.468,0,0,0-13.249-2.3q-9.189,0-15.092,3.574a18.856,18.856,0,0,0-8.169,9.475,37.047,37.047,0,0,0-1.982,9.936H54.157v33.436h187a39.557,39.557,0,0,0,.978,6.7,19.9,19.9,0,0,0,4.171,8.171,17.518,17.518,0,0,0,8.2,5.049,42.978,42.978,0,0,0,12.877,1.675,34.39,34.39,0,0,0,12.057-1.957,19.737,19.737,0,0,0,8.6-6.072,20.868,20.868,0,0,0,4.368-8.851,40.75,40.75,0,0,0,.636-4.712H408V228.478H293.285A34.581,34.581,0,0,0,292.317,221.379Z"/>
    <path d="M379.936,103.431a20.779,20.779,0,0,0-12.653-13.588,34.468,34.468,0,0,0-13.249-2.3q-9.189,0-15.092,3.574a18.856,18.856,0,0,0-8.169,9.475,35.716,35.716,0,0,0-1.9,9.054H54.157v33.437H328.72a42.412,42.412,0,0,0,1.031,7.579,19.91,19.91,0,0,0,4.171,8.171,17.531,17.531,0,0,0,8.2,5.049A42.981,42.981,0,0,0,355,165.558a34.409,34.409,0,0,0,12.057-1.956,19.745,19.745,0,0,0,8.6-6.072,20.877,20.877,0,0,0,4.368-8.852,43.1,43.1,0,0,0,.72-5.593H408V109.648H380.846A32.275,32.275,0,0,0,379.936,103.431Z"/>
    <rect x="54.157" y="287.893" width="353.843" height="33.436"/>
    <path d="M145.031,50.237a35.393,35.393,0,0,0-.991-7.465,20.779,20.779,0,0,0-12.652-13.588,34.487,34.487,0,0,0-13.249-2.3q-9.189,0-15.092,3.574a18.858,18.858,0,0,0-8.169,9.476,37.6,37.6,0,0,0-2.018,10.3h-38.7V83.673H92.9a38.267,38.267,0,0,0,.956,6.332,19.9,19.9,0,0,0,4.171,8.171,17.526,17.526,0,0,0,8.2,5.049A42.978,42.978,0,0,0,119.1,104.9a34.413,34.413,0,0,0,12.057-1.957,19.745,19.745,0,0,0,8.6-6.072,20.866,20.866,0,0,0,4.368-8.852,39.509,39.509,0,0,0,.6-4.346H408V50.237Z"/>
  </g>
</svg>
