<svg xmlns="http://www.w3.org/2000/svg" width="640" height="105" viewBox="0 0 640 105">
  <g>
    <g>
      <path d="M208.721,27.618V83.64H195.987l-.017-37.822L190.9,83.64H181.87l-5.346-36.956-.018,36.956H163.773V27.618h18.849q.839,5.051,1.729,11.909l2.069,14.25,3.348-26.159Z"/>
      <path d="M249.1,27.618v37.44A65.133,65.133,0,0,1,248.686,74a12.139,12.139,0,0,1-2.457,5.293,12.732,12.732,0,0,1-5.381,4.118,20.236,20.236,0,0,1-7.872,1.4,22.129,22.129,0,0,1-8.858-1.661,13.31,13.31,0,0,1-5.744-4.326,11.963,11.963,0,0,1-2.249-5.623q-.346-2.958-.346-12.439V27.618h14.567V69.625a16.582,16.582,0,0,0,.4,4.689,1.559,1.559,0,0,0,1.609,1.021,1.684,1.684,0,0,0,1.782-1.125,20.945,20.945,0,0,0,.4-5.311V27.618Z"/>
      <path d="M287.024,44.573h-13.53V40.421a8.152,8.152,0,0,0-.519-3.7,1.91,1.91,0,0,0-1.73-.8A2.2,2.2,0,0,0,269.255,37a6.226,6.226,0,0,0-.674,3.255,9.235,9.235,0,0,0,.758,4.225q.724,1.419,4.117,3.424,9.727,5.774,12.253,9.476t2.526,11.938q0,5.987-1.4,8.824a10.994,10.994,0,0,1-5.416,4.758,21.438,21.438,0,0,1-9.343,1.92,20.9,20.9,0,0,1-9.983-2.215,10.859,10.859,0,0,1-5.415-5.64,28.9,28.9,0,0,1-1.28-9.724V63.569h13.529v6.817q0,3.149.572,4.049a2.207,2.207,0,0,0,2.024.9,2.37,2.37,0,0,0,2.162-1.142,6.514,6.514,0,0,0,.71-3.391q0-4.949-1.35-6.471a43.04,43.04,0,0,0-6.816-5.087,67.023,67.023,0,0,1-7.2-5.224,12.232,12.232,0,0,1-2.924-4.5,19.79,19.79,0,0,1-1.159-7.336q0-6.435,1.644-9.411a11.059,11.059,0,0,1,5.311-4.655,21.2,21.2,0,0,1,8.858-1.678,23.088,23.088,0,0,1,9.672,1.834q4,1.835,5.294,4.62t1.3,9.464Z"/>
      <path d="M308.787,27.618V83.64H294.22V27.618Z"/>
      <path d="M350.776,27.618,342.42,52.912l9.152,30.728H336.52l-5.9-24.015V83.64H316.053V27.618H330.62V49.383l6.488-21.765Z"/>
      <path d="M371.483,27.618v44.81h8.858V83.64H356.916V27.618Z"/>
      <path d="M416.086,60.421q0,8.443-.4,11.955a13.4,13.4,0,0,1-8.15,10.883,20.613,20.613,0,0,1-8.305,1.557,21.107,21.107,0,0,1-8.079-1.471A13.472,13.472,0,0,1,382.8,72.532a118.533,118.533,0,0,1-.415-12.111V50.836q0-8.442.4-11.955A13.392,13.392,0,0,1,390.93,28a20.594,20.594,0,0,1,8.3-1.557,21.128,21.128,0,0,1,8.08,1.47,13.471,13.471,0,0,1,8.357,10.815,118.224,118.224,0,0,1,.415,12.11ZM401.518,42.013a17.369,17.369,0,0,0-.432-5,1.723,1.723,0,0,0-1.782-1.09,1.989,1.989,0,0,0-1.748.882q-.606.882-.6,5.208V68.172a25.683,25.683,0,0,0,.4,6.021,1.735,1.735,0,0,0,1.851,1.142,1.792,1.792,0,0,0,1.9-1.315,27.7,27.7,0,0,0,.415-6.263Z"/>
      <path d="M421.519,27.618h24.672V38.829h-10.1V49.452h9V60.11h-9V83.64H421.519Z"/>
      <path d="M481.9,27.618V38.829h-8.651V83.64H458.679V38.829h-8.616V27.618Z"/>
      <path d="M485.22,27.618h24.291V38.829h-9.725V49.452h9.1V60.11h-9.1V72.428H510.48V83.64H485.22Z"/>
      <path d="M544.505,27.618V38.829h-8.65V83.64H521.286V38.829h-8.615V27.618Z"/>
    </g>
    <g>
      <path d="M59.829,49.034A6.165,6.165,0,0,0,56.075,45a10.222,10.222,0,0,0-3.932-.682,8.533,8.533,0,0,0-4.478,1.061,5.6,5.6,0,0,0-2.424,2.811,9.943,9.943,0,0,0-.527,2.318H14.157v9.922H44.609a13.559,13.559,0,0,0,.329,2.618,5.909,5.909,0,0,0,1.237,2.425,5.2,5.2,0,0,0,2.433,1.5,12.76,12.76,0,0,0,3.821.5,10.2,10.2,0,0,0,3.578-.581,5.861,5.861,0,0,0,2.551-1.8,6.189,6.189,0,0,0,1.3-2.626,14.067,14.067,0,0,0,.238-2.029h59.065V50.51H60.076A8.429,8.429,0,0,0,59.829,49.034Z"/>
      <path d="M84.829,66.034A6.165,6.165,0,0,0,81.075,62a10.222,10.222,0,0,0-3.932-.682,8.533,8.533,0,0,0-4.478,1.061,5.6,5.6,0,0,0-2.424,2.811,10.984,10.984,0,0,0-.588,2.949h-55.5v9.922h55.49a11.687,11.687,0,0,0,.291,1.987,5.909,5.909,0,0,0,1.237,2.425,5.2,5.2,0,0,0,2.433,1.5,12.76,12.76,0,0,0,3.821.5,10.2,10.2,0,0,0,3.578-.581,5.861,5.861,0,0,0,2.551-1.8,6.189,6.189,0,0,0,1.3-2.626,11.877,11.877,0,0,0,.189-1.4h34.114V68.141H85.116A10.222,10.222,0,0,0,84.829,66.034Z"/>
      <path d="M110.829,31.034A6.165,6.165,0,0,0,107.075,27a10.222,10.222,0,0,0-3.932-.682,8.533,8.533,0,0,0-4.478,1.061,5.6,5.6,0,0,0-2.424,2.811,10.586,10.586,0,0,0-.563,2.687H14.157V42.8H95.632a12.558,12.558,0,0,0,.306,2.249,5.909,5.909,0,0,0,1.237,2.425,5.2,5.2,0,0,0,2.433,1.5,12.76,12.76,0,0,0,3.821.5,10.2,10.2,0,0,0,3.578-.581,5.861,5.861,0,0,0,2.551-1.8,6.189,6.189,0,0,0,1.3-2.626,12.844,12.844,0,0,0,.214-1.66h8.089V32.879H111.1A9.619,9.619,0,0,0,110.829,31.034Z"/>
      <rect x="14.157" y="85.772" width="105" height="9.922"/>
      <path d="M41.123,15.249a10.5,10.5,0,0,0-.294-2.215A6.165,6.165,0,0,0,37.075,9a10.222,10.222,0,0,0-3.932-.682,8.533,8.533,0,0,0-4.478,1.061,5.6,5.6,0,0,0-2.424,2.811,11.148,11.148,0,0,0-.6,3.057H14.157v9.922h11.5a11.292,11.292,0,0,0,.284,1.879,5.909,5.909,0,0,0,1.237,2.425,5.2,5.2,0,0,0,2.433,1.5,12.76,12.76,0,0,0,3.821.5,10.2,10.2,0,0,0,3.578-.581,5.861,5.861,0,0,0,2.551-1.8,6.189,6.189,0,0,0,1.3-2.626,11.724,11.724,0,0,0,.179-1.29h78.124V15.249Z"/>
    </g>
  </g>
</svg>
