<svg xmlns="http://www.w3.org/2000/svg" width="640" height="361" viewBox="0 0 640 361">
  <g>
    <g>
      <path d="M169.721,218.618V274.64H156.987l-.017-37.822L151.9,274.64H142.87l-5.346-36.956-.018,36.956H124.773V218.618h18.849q.839,5.051,1.729,11.909l2.069,14.25,3.348-26.159Z"/>
      <path d="M210.1,218.618v37.44a65.133,65.133,0,0,1-.415,8.945,12.139,12.139,0,0,1-2.457,5.293,12.732,12.732,0,0,1-5.381,4.118,20.236,20.236,0,0,1-7.872,1.4,22.129,22.129,0,0,1-8.858-1.661,13.31,13.31,0,0,1-5.744-4.326,11.963,11.963,0,0,1-2.249-5.623q-.346-2.958-.346-12.439V218.618h14.567v42.007a16.582,16.582,0,0,0,.4,4.689,1.559,1.559,0,0,0,1.609,1.021,1.684,1.684,0,0,0,1.782-1.125,20.945,20.945,0,0,0,.4-5.311V218.618Z"/>
      <path d="M248.024,235.573h-13.53v-4.152a8.152,8.152,0,0,0-.519-3.7,1.91,1.91,0,0,0-1.73-.795,2.2,2.2,0,0,0-1.99,1.073,6.226,6.226,0,0,0-.674,3.255,9.235,9.235,0,0,0,.758,4.225q.725,1.419,4.117,3.424,9.728,5.773,12.253,9.476t2.526,11.938q0,5.986-1.4,8.824a10.994,10.994,0,0,1-5.416,4.758,21.438,21.438,0,0,1-9.343,1.92,20.9,20.9,0,0,1-9.983-2.215,10.859,10.859,0,0,1-5.415-5.64,28.9,28.9,0,0,1-1.28-9.724v-3.668h13.529v6.817q0,3.148.572,4.049a2.207,2.207,0,0,0,2.024.9,2.37,2.37,0,0,0,2.162-1.142,6.514,6.514,0,0,0,.71-3.391q0-4.949-1.35-6.471a43.04,43.04,0,0,0-6.816-5.087,67.023,67.023,0,0,1-7.2-5.224,12.232,12.232,0,0,1-2.924-4.5,19.79,19.79,0,0,1-1.159-7.336q0-6.435,1.644-9.411a11.059,11.059,0,0,1,5.311-4.655,21.2,21.2,0,0,1,8.858-1.678,23.088,23.088,0,0,1,9.672,1.834q4,1.834,5.294,4.62t1.3,9.464Z"/>
      <path d="M269.787,218.618V274.64H255.22V218.618Z"/>
      <path d="M311.776,218.618l-8.356,25.294,9.152,30.728H297.52l-5.9-24.015V274.64H277.053V218.618H291.62v21.765l6.488-21.765Z"/>
      <path d="M332.483,218.618v44.81h8.858V274.64H317.916V218.618Z"/>
      <path d="M377.086,251.421q0,8.444-.4,11.955a13.4,13.4,0,0,1-8.15,10.883,20.613,20.613,0,0,1-8.305,1.557,21.107,21.107,0,0,1-8.079-1.471,13.472,13.472,0,0,1-8.357-10.813,118.533,118.533,0,0,1-.415-12.111v-9.585q0-8.442.4-11.955A13.392,13.392,0,0,1,351.93,219a20.594,20.594,0,0,1,8.3-1.557,21.128,21.128,0,0,1,8.08,1.47,13.471,13.471,0,0,1,8.357,10.815,118.224,118.224,0,0,1,.415,12.11Zm-14.568-18.408a17.369,17.369,0,0,0-.432-5,1.723,1.723,0,0,0-1.782-1.09,1.989,1.989,0,0,0-1.748.882q-.606.882-.6,5.208v26.159a25.683,25.683,0,0,0,.4,6.021,1.735,1.735,0,0,0,1.851,1.142,1.792,1.792,0,0,0,1.9-1.315,27.7,27.7,0,0,0,.415-6.263Z"/>
      <path d="M382.519,218.618h24.672v11.211h-10.1v10.623h9V251.11h-9v23.53H382.519Z"/>
      <path d="M442.9,218.618v11.211h-8.651V274.64H419.679V229.829h-8.616V218.618Z"/>
      <path d="M446.22,218.618h24.291v11.211h-9.725v10.623h9.1V251.11h-9.1v12.318H471.48V274.64H446.22Z"/>
      <path d="M505.505,218.618v11.211h-8.65V274.64H482.286V229.829h-8.615V218.618Z"/>
    </g>
    <g>
      <path d="M305.829,142.034A6.165,6.165,0,0,0,302.075,138a10.222,10.222,0,0,0-3.932-.682,8.533,8.533,0,0,0-4.478,1.061,5.6,5.6,0,0,0-2.424,2.811,9.943,9.943,0,0,0-.527,2.318H260.157v9.922h30.452a13.559,13.559,0,0,0,.329,2.618,5.909,5.909,0,0,0,1.237,2.425,5.2,5.2,0,0,0,2.433,1.5,12.76,12.76,0,0,0,3.821.5,10.2,10.2,0,0,0,3.578-.581,5.861,5.861,0,0,0,2.551-1.8,6.189,6.189,0,0,0,1.3-2.626,14.067,14.067,0,0,0,.238-2.029h59.065V143.51H306.076A8.429,8.429,0,0,0,305.829,142.034Z"/>
      <path d="M330.829,159.034A6.165,6.165,0,0,0,327.075,155a10.222,10.222,0,0,0-3.932-.682,8.533,8.533,0,0,0-4.478,1.061,5.6,5.6,0,0,0-2.424,2.811,10.984,10.984,0,0,0-.588,2.949h-55.5v9.922h55.49a11.687,11.687,0,0,0,.291,1.987,5.909,5.909,0,0,0,1.237,2.425,5.2,5.2,0,0,0,2.433,1.5,12.76,12.76,0,0,0,3.821.5,10.2,10.2,0,0,0,3.578-.581,5.861,5.861,0,0,0,2.551-1.8,6.189,6.189,0,0,0,1.3-2.626,11.877,11.877,0,0,0,.189-1.4h34.114v-9.922H331.116A10.222,10.222,0,0,0,330.829,159.034Z"/>
      <path d="M356.829,124.034A6.165,6.165,0,0,0,353.075,120a10.222,10.222,0,0,0-3.932-.682,8.533,8.533,0,0,0-4.478,1.061,5.6,5.6,0,0,0-2.424,2.811,10.586,10.586,0,0,0-.563,2.687H260.157V135.8h81.475a12.558,12.558,0,0,0,.306,2.249,5.909,5.909,0,0,0,1.237,2.425,5.2,5.2,0,0,0,2.433,1.5,12.76,12.76,0,0,0,3.821.5,10.2,10.2,0,0,0,3.578-.581,5.861,5.861,0,0,0,2.551-1.8,6.189,6.189,0,0,0,1.3-2.626,12.844,12.844,0,0,0,.214-1.66h8.089v-9.922H357.1A9.619,9.619,0,0,0,356.829,124.034Z"/>
      <rect x="260.157" y="178.772" width="105" height="9.922"/>
      <path d="M287.123,108.249a10.5,10.5,0,0,0-.294-2.215A6.165,6.165,0,0,0,283.075,102a10.222,10.222,0,0,0-3.932-.682,8.533,8.533,0,0,0-4.478,1.061,5.6,5.6,0,0,0-2.424,2.811,11.148,11.148,0,0,0-.6,3.057H260.157v9.922h11.5a11.292,11.292,0,0,0,.284,1.879,5.909,5.909,0,0,0,1.237,2.425,5.2,5.2,0,0,0,2.433,1.5,12.76,12.76,0,0,0,3.821.5,10.2,10.2,0,0,0,3.578-.581,5.861,5.861,0,0,0,2.551-1.8,6.189,6.189,0,0,0,1.3-2.626,11.724,11.724,0,0,0,.179-1.29h78.124v-9.922Z"/>
    </g>
  </g>
</svg>
