<svg xmlns="http://www.w3.org/2000/svg" width="640" height="361" viewBox="0 0 640 361">
  <g>
    <g>
      <path d="M87.241,287.123l11.246-57.441,18.34,41.524,19-41.524,10.1,57.441h-8.27l-5.156-32.25-15.813,34.706-15.363-34.74-5.744,32.284Z"/>
      <path d="M159.635,233.7v32.18q0,6.887,2.249,10.069a12.032,12.032,0,0,0,18.928,0q2.25-3.08,2.249-10.069V233.7h8.063v34.395a19.247,19.247,0,0,1-5.26,13.91,20.344,20.344,0,0,1-29.031,0,19.243,19.243,0,0,1-5.26-13.91V233.7Z"/>
      <path d="M229.882,241.655l-6.539,3.876a11.253,11.253,0,0,0-3.495-4.153,8.158,8.158,0,0,0-4.464-1.107,8.247,8.247,0,0,0-5.571,1.9,5.9,5.9,0,0,0-2.214,4.706q0,3.911,5.813,6.3l5.328,2.18q6.505,2.629,9.516,6.419a14.465,14.465,0,0,1,3.011,9.29,16.325,16.325,0,0,1-4.914,12.18,16.866,16.866,0,0,1-12.284,4.845,16.428,16.428,0,0,1-11.488-4.118q-4.464-4.118-5.571-11.592l8.166-1.8q.553,4.707,1.938,6.5a9.208,9.208,0,0,0,13.53.934,8.735,8.735,0,0,0,2.491-6.4,9,9,0,0,0-.432-2.855,7.253,7.253,0,0,0-1.35-2.387,10.783,10.783,0,0,0-2.37-2.042,22.91,22.91,0,0,0-3.461-1.817l-5.155-2.145q-10.969-4.637-10.97-13.564a12.868,12.868,0,0,1,4.6-10.069,16.626,16.626,0,0,1,11.453-4.083Q224.692,232.659,229.882,241.655Z"/>
      <path d="M247.635,233.7v53.426h-8.062V233.7Z"/>
      <path d="M267.118,255.012l20.8-21.315h10.761l-24.153,24.187,24.291,29.239h-10.8l-19.239-23.772-1.661,1.661v22.111h-8.063V233.7h8.063Z"/>
      <path d="M314.073,233.7v45.848h15.71v7.578H306.011V233.7Z"/>
      <path d="M332.585,260.167a26.168,26.168,0,0,1,8.27-19.377,27.222,27.222,0,0,1,19.793-8.1,27.943,27.943,0,0,1,27.786,27.786,26.271,26.271,0,0,1-8.236,19.55,28.231,28.231,0,0,1-38.548.9Q332.586,273.006,332.585,260.167Zm8.132.1a19.311,19.311,0,0,0,5.951,14.568,19.714,19.714,0,0,0,27.855-.1,20.733,20.733,0,0,0,.07-28.651,19.925,19.925,0,0,0-28.132,0A19.273,19.273,0,0,0,340.717,260.271Z"/>
      <path d="M421,241.274H402.383v12.838h17.959v7.578H402.383v25.433H394.32V233.7H421Z"/>
      <path d="M446.5,241.274v45.849h-8.062V241.274H426.154V233.7h32.6v7.577Z"/>
      <path d="M495.428,241.274H474.01v12.838h20.8v7.578h-20.8v17.855h21.418v7.578H465.947V233.7h29.481Z"/>
      <path d="M520.757,241.274v45.849h-8.063V241.274H500.41V233.7h32.6v7.577Z"/>
    </g>
    <g>
      <path d="M280.719,188.458a9.135,9.135,0,0,0-12.655-.017,8.393,8.393,0,0,0-2.21,3.551H259v5.669h6.956a8.389,8.389,0,0,0,2.056,3.315,8.487,8.487,0,0,0,6.294,2.572,8.849,8.849,0,0,0,6.4-2.521,8.376,8.376,0,0,0,2.126-3.366H364v-5.669H282.889A8.457,8.457,0,0,0,280.719,188.458Z"/>
      <path d="M301.353,135.174a9.135,9.135,0,0,0-12.655-.017,8.328,8.328,0,0,0-2.311,3.944H259v5.669h27.723a8.749,8.749,0,0,0,8.217,5.495,8.853,8.853,0,0,0,6.4-2.521,8.458,8.458,0,0,0,1.988-2.974H364V139.1H303.63A8.408,8.408,0,0,0,301.353,135.174Z"/>
      <path d="M331.391,170.816a9.135,9.135,0,0,0-12.655-.017,8.379,8.379,0,0,0-2.214,3.563H259v5.669h57.631a8.388,8.388,0,0,0,2.053,3.3,8.487,8.487,0,0,0,6.293,2.572,8.847,8.847,0,0,0,6.4-2.521,8.361,8.361,0,0,0,2.122-3.354H364v-5.669H333.565A8.463,8.463,0,0,0,331.391,170.816Z"/>
      <rect x="259" y="156.731" width="105" height="5.669"/>
      <path d="M359,121.47a8.408,8.408,0,0,0-2.274-3.915,9.135,9.135,0,0,0-12.655-.017,8.332,8.332,0,0,0-2.308,3.932H259v5.669h83.093a8.74,8.74,0,0,0,8.22,5.506,8.849,8.849,0,0,0,6.4-2.521,8.417,8.417,0,0,0,1.992-2.985H364V121.47Z"/>
    </g>
  </g>
</svg>
