<svg xmlns="http://www.w3.org/2000/svg" width="457" height="353" viewBox="0 0 457 353">
  <g>
    <path d="M127.318,275.059a29.454,29.454,0,0,0-21.418-8.625A29.3,29.3,0,0,0,84.6,275a28.354,28.354,0,0,0-7.46,11.99H54v19.137H77.481a28.284,28.284,0,0,0,6.942,11.187A28.65,28.65,0,0,0,105.668,326a29.871,29.871,0,0,0,21.591-8.51,28.286,28.286,0,0,0,7.178-11.362H408.454V286.991H134.643A28.539,28.539,0,0,0,127.318,275.059Z"/>
    <path d="M196.974,95.187a30.837,30.837,0,0,0-42.72-.058,28.107,28.107,0,0,0-7.8,13.313H54v19.137h93.587a29.524,29.524,0,0,0,27.737,18.549,29.873,29.873,0,0,0,21.592-8.51,28.514,28.514,0,0,0,6.712-10.039H408.454V108.442H204.66A28.394,28.394,0,0,0,196.974,95.187Z"/>
    <path d="M298.372,215.505a30.837,30.837,0,0,0-42.72-.058,28.335,28.335,0,0,0-7.474,12.028H54v19.137H248.549a28.286,28.286,0,0,0,6.929,11.149,28.65,28.65,0,0,0,21.245,8.685,29.871,29.871,0,0,0,21.591-8.51,28.283,28.283,0,0,0,7.164-11.324H408.454V227.475H305.712A28.53,28.53,0,0,0,298.372,215.505Z"/>
    <rect x="54" y="167.958" width="354.454" height="19.137"/>
    <path d="M391.577,48.924A28.409,28.409,0,0,0,383.9,35.708a30.837,30.837,0,0,0-42.72-.058,28.123,28.123,0,0,0-7.794,13.274H54V68.061H334.5a29.51,29.51,0,0,0,27.75,18.588,29.873,29.873,0,0,0,21.592-8.51,28.48,28.48,0,0,0,6.725-10.078h17.887V48.924Z"/>
  </g>
</svg>
