<svg xmlns="http://www.w3.org/2000/svg" width="640" height="105" viewBox="0 0 640 105">
  <g>
    <g>
      <path d="M166.241,77.123l11.246-57.441,18.34,41.524,19-41.524,10.1,57.441h-8.27L211.5,44.873,195.688,79.579l-15.363-34.74-5.744,32.284Z"/>
      <path d="M238.635,23.7v32.18q0,6.887,2.249,10.069a12.032,12.032,0,0,0,18.928,0q2.25-3.079,2.249-10.069V23.7h8.063V58.092A19.247,19.247,0,0,1,264.864,72a20.344,20.344,0,0,1-29.031,0,19.243,19.243,0,0,1-5.26-13.91V23.7Z"/>
      <path d="M308.882,31.655l-6.539,3.876a11.253,11.253,0,0,0-3.5-4.153,8.158,8.158,0,0,0-4.464-1.107,8.247,8.247,0,0,0-5.571,1.9A5.9,5.9,0,0,0,286.6,36.88q0,3.91,5.813,6.3l5.328,2.18q6.505,2.63,9.516,6.419a14.465,14.465,0,0,1,3.011,9.29,16.325,16.325,0,0,1-4.914,12.18,16.866,16.866,0,0,1-12.284,4.845,16.428,16.428,0,0,1-11.488-4.118q-4.464-4.118-5.571-11.592l8.166-1.8q.554,4.707,1.938,6.5a9.208,9.208,0,0,0,13.53.934,8.735,8.735,0,0,0,2.491-6.4,9,9,0,0,0-.432-2.855,7.253,7.253,0,0,0-1.35-2.387,10.783,10.783,0,0,0-2.37-2.042,22.91,22.91,0,0,0-3.461-1.817l-5.155-2.145Q278.4,45.739,278.4,36.811A12.868,12.868,0,0,1,283,26.742a16.626,16.626,0,0,1,11.453-4.083Q303.692,22.659,308.882,31.655Z"/>
      <path d="M326.635,23.7V77.123h-8.062V23.7Z"/>
      <path d="M346.118,45.012l20.8-21.315h10.761L353.522,47.884l24.291,29.239h-10.8L347.779,53.351l-1.661,1.661V77.123h-8.063V23.7h8.063Z"/>
      <path d="M393.073,23.7V69.545h15.71v7.578H385.011V23.7Z"/>
      <path d="M411.585,50.167a26.168,26.168,0,0,1,8.27-19.377,27.222,27.222,0,0,1,19.793-8.1,26.709,26.709,0,0,1,19.584,8.166,26.7,26.7,0,0,1,8.2,19.62,26.271,26.271,0,0,1-8.236,19.55,28.231,28.231,0,0,1-38.548.9Q411.586,63.006,411.585,50.167Zm8.132.1a19.311,19.311,0,0,0,5.951,14.568,19.714,19.714,0,0,0,27.855-.1,19.674,19.674,0,0,0,5.78-14.326,19.583,19.583,0,0,0-5.71-14.325,19.925,19.925,0,0,0-28.132,0A19.273,19.273,0,0,0,419.717,50.271Z"/>
      <path d="M500,31.274H481.383V44.112h17.959V51.69H481.383V77.123H473.32V23.7H500Z"/>
      <path d="M525.5,31.274V77.123h-8.062V31.274H505.154V23.7h32.6v7.577Z"/>
      <path d="M574.428,31.274H553.01V44.112H573.8V51.69H553.01V69.545h21.418v7.578H544.947V23.7h29.481Z"/>
      <path d="M599.757,31.274V77.123h-8.063V31.274H579.41V23.7h32.6v7.577Z"/>
    </g>
    <g>
      <path d="M36.719,81.458A8.727,8.727,0,0,0,30.374,78.9a8.675,8.675,0,0,0-6.31,2.538,8.393,8.393,0,0,0-2.21,3.551H15v5.669h6.956a8.389,8.389,0,0,0,2.056,3.315,8.487,8.487,0,0,0,6.294,2.572,8.849,8.849,0,0,0,6.4-2.521,8.376,8.376,0,0,0,2.126-3.366H120V84.992H38.889A8.457,8.457,0,0,0,36.719,81.458Z"/>
      <path d="M57.353,28.174A9.135,9.135,0,0,0,44.7,28.157,8.328,8.328,0,0,0,42.387,32.1H15V37.77H42.723a8.749,8.749,0,0,0,8.217,5.495,8.853,8.853,0,0,0,6.4-2.521,8.458,8.458,0,0,0,1.988-2.974H120V32.1H59.63A8.408,8.408,0,0,0,57.353,28.174Z"/>
      <path d="M87.391,63.816A9.135,9.135,0,0,0,74.736,63.8a8.379,8.379,0,0,0-2.214,3.563H15v5.669H72.631a8.388,8.388,0,0,0,2.053,3.3,8.487,8.487,0,0,0,6.293,2.572,8.847,8.847,0,0,0,6.4-2.521A8.361,8.361,0,0,0,89.5,73.031H120V67.362H89.565A8.463,8.463,0,0,0,87.391,63.816Z"/>
      <rect x="15" y="49.731" width="105" height="5.669"/>
      <path d="M115,14.47a8.408,8.408,0,0,0-2.274-3.915,9.135,9.135,0,0,0-12.655-.017,8.332,8.332,0,0,0-2.308,3.932H15v5.669H98.093a8.74,8.74,0,0,0,8.22,5.506,8.849,8.849,0,0,0,6.4-2.521,8.417,8.417,0,0,0,1.992-2.985H120V14.47Z"/>
    </g>
  </g>
</svg>
