<svg xmlns="http://www.w3.org/2000/svg" width="640" height="105" viewBox="0 0 640 105">
  <g>
    <g>
      <path d="M228.648,31.249V82.024h-6.023V44.713q0-.744.053-1.594t.124-1.736L205.369,73.131a2.638,2.638,0,0,1-2.48,1.594H201.9a2.637,2.637,0,0,1-2.48-1.594l-17.787-31.89a30.942,30.942,0,0,1,.212,3.472V82.024h-6.023V31.249h5.067a4.409,4.409,0,0,1,1.417.177,2.043,2.043,0,0,1,.957.992L200.8,63.67q.426.85.833,1.772t.762,1.878q.352-.957.744-1.9a19.051,19.051,0,0,1,.85-1.789l17.221-31.217a1.881,1.881,0,0,1,.938-.992,4.588,4.588,0,0,1,1.436-.177Z"/>
      <path d="M269.007,46.131V82.024h-3.756a1.607,1.607,0,0,1-1.7-1.311l-.5-3.862a19.747,19.747,0,0,1-5.244,4.164,13.758,13.758,0,0,1-6.662,1.576,12.97,12.97,0,0,1-5.191-.974,10.288,10.288,0,0,1-3.773-2.746,11.642,11.642,0,0,1-2.286-4.288,19.131,19.131,0,0,1-.762-5.562V46.131h6.307v22.89a9.585,9.585,0,0,0,1.861,6.307q1.86,2.232,5.687,2.232a10.713,10.713,0,0,0,5.226-1.329,16.6,16.6,0,0,0,4.482-3.667V46.131Z"/>
      <path d="M299.9,52.048a1.4,1.4,0,0,1-1.311.78,2.462,2.462,0,0,1-1.2-.39q-.673-.39-1.648-.868a15.5,15.5,0,0,0-2.321-.886,11.1,11.1,0,0,0-3.189-.408,9.428,9.428,0,0,0-2.87.408,6.919,6.919,0,0,0-2.179,1.116,4.949,4.949,0,0,0-1.382,1.648,4.421,4.421,0,0,0-.478,2.037,3.391,3.391,0,0,0,.8,2.3,6.9,6.9,0,0,0,2.109,1.6A18.246,18.246,0,0,0,289.2,60.57q1.665.514,3.419,1.1t3.419,1.293a12.424,12.424,0,0,1,2.977,1.772,8.131,8.131,0,0,1,2.108,2.6,7.983,7.983,0,0,1,.8,3.7,11.752,11.752,0,0,1-.885,4.589,10.025,10.025,0,0,1-2.622,3.649,12.662,12.662,0,0,1-4.252,2.428,17.49,17.49,0,0,1-5.811.885,18.128,18.128,0,0,1-6.8-1.222,17.22,17.22,0,0,1-5.173-3.136l1.488-2.409a2.151,2.151,0,0,1,.674-.709,1.813,1.813,0,0,1,.991-.248,2.38,2.38,0,0,1,1.347.5q.708.5,1.718,1.1a13.08,13.08,0,0,0,2.463,1.1,11.3,11.3,0,0,0,3.614.5,9.876,9.876,0,0,0,3.224-.478,6.769,6.769,0,0,0,2.3-1.294,5.114,5.114,0,0,0,1.364-1.878,5.836,5.836,0,0,0,.443-2.267,3.759,3.759,0,0,0-.8-2.463,6.713,6.713,0,0,0-2.107-1.665,17.154,17.154,0,0,0-2.995-1.2q-1.683-.513-3.437-1.081t-3.437-1.293a12.084,12.084,0,0,1-2.994-1.825,8.259,8.259,0,0,1-2.108-2.711,8.766,8.766,0,0,1-.8-3.915,9.551,9.551,0,0,1,.851-3.951,9.685,9.685,0,0,1,2.481-3.33,12.187,12.187,0,0,1,4-2.286,16.019,16.019,0,0,1,5.421-.85,17.154,17.154,0,0,1,6.361,1.116,15.052,15.052,0,0,1,4.872,3.065Z"/>
      <path d="M317.692,34.863a4.015,4.015,0,0,1-.372,1.719A4.955,4.955,0,0,1,316.328,38a4.548,4.548,0,0,1-1.453.974,4.438,4.438,0,0,1-1.754.355,4.188,4.188,0,0,1-1.719-.355A4.437,4.437,0,0,1,310,38a4.825,4.825,0,0,1-.957-1.417,4.188,4.188,0,0,1-.354-1.719,4.441,4.441,0,0,1,.354-1.754A4.707,4.707,0,0,1,310,31.656a4.453,4.453,0,0,1,1.4-.974,4.188,4.188,0,0,1,1.719-.354,4.437,4.437,0,0,1,1.754.354,4.564,4.564,0,0,1,1.453.974,4.822,4.822,0,0,1,.992,1.453A4.256,4.256,0,0,1,317.692,34.863Zm-1.346,11.268V82.024h-6.307V46.131Z"/>
      <path d="M333.034,29.832v30.72h1.63a3.159,3.159,0,0,0,1.187-.2,2.873,2.873,0,0,0,1.01-.8L348.2,47.406a4.268,4.268,0,0,1,1.046-.939,2.794,2.794,0,0,1,1.47-.336h5.705L343.2,60.2a8,8,0,0,1-2.055,1.878,6.543,6.543,0,0,1,1.152.974,9.124,9.124,0,0,1,.974,1.258l14.032,17.716h-5.634a3.366,3.366,0,0,1-1.4-.265,2.336,2.336,0,0,1-1.01-.975l-11.8-14.7a2.808,2.808,0,0,0-1.045-.975,4.08,4.08,0,0,0-1.577-.23h-1.807V82.024h-6.343V29.832Z"/>
      <path d="M369.21,29.832V82.024H362.9V29.832Z"/>
      <path d="M394.544,45.564a18.3,18.3,0,0,1,7.087,1.311,15.191,15.191,0,0,1,5.386,3.72,16.34,16.34,0,0,1,3.419,5.829,23.162,23.162,0,0,1,1.187,7.636,23.11,23.11,0,0,1-1.187,7.653,16.347,16.347,0,0,1-3.419,5.811,14.986,14.986,0,0,1-5.386,3.7,18.529,18.529,0,0,1-7.087,1.294,18.756,18.756,0,0,1-7.139-1.294,14.952,14.952,0,0,1-5.4-3.7,16.347,16.347,0,0,1-3.419-5.811A23.11,23.11,0,0,1,377.4,64.06a23.162,23.162,0,0,1,1.187-7.636A16.34,16.34,0,0,1,382,50.6a15.155,15.155,0,0,1,5.4-3.72A18.529,18.529,0,0,1,394.544,45.564Zm0,32.031q5.316,0,7.937-3.561T405.1,64.1q0-6.412-2.623-9.992t-7.937-3.579a11.134,11.134,0,0,0-4.694.922,8.722,8.722,0,0,0-3.331,2.657,11.789,11.789,0,0,0-1.984,4.27,22.836,22.836,0,0,0-.656,5.722q0,6.378,2.64,9.939T394.544,77.6Z"/>
      <path d="M450.422,51.41V72.954a4.58,4.58,0,0,0,1.1,3.366,3.79,3.79,0,0,0,2.8,1.1,5.1,5.1,0,0,0,1.754-.266,7.407,7.407,0,0,0,1.258-.584c.354-.213.648-.408.885-.585a1.108,1.108,0,0,1,.638-.266.859.859,0,0,1,.514.142,1.812,1.812,0,0,1,.407.461l1.843,3.012a11.741,11.741,0,0,1-3.933,2.391,13.449,13.449,0,0,1-4.784.868,8.605,8.605,0,0,1-6.5-2.374q-2.284-2.373-2.285-6.838V51.41H427.5V82.024h-6.343V51.517l-3.968-.461a3.16,3.16,0,0,1-1.223-.549,1.289,1.289,0,0,1-.478-1.081V46.839h5.669V43.367a15.981,15.981,0,0,1,.868-5.474,11.116,11.116,0,0,1,2.481-4.04,10.518,10.518,0,0,1,3.88-2.5,14.448,14.448,0,0,1,5.1-.85,13.3,13.3,0,0,1,4.429.708l-.142,3.154a.914.914,0,0,1-.938.921q-.87.072-2.321.071a9.676,9.676,0,0,0-2.958.425,5.583,5.583,0,0,0-2.286,1.382,6.252,6.252,0,0,0-1.47,2.516,12.437,12.437,0,0,0-.515,3.862v3.3h17.044l1.417-11.161a1.755,1.755,0,0,1,.514-.868,1.392,1.392,0,0,1,.974-.337h3.189V46.839h10.347V51.41Z"/>
      <path d="M496.273,76.993a11.983,11.983,0,0,1-2.8,2.463,17.424,17.424,0,0,1-3.491,1.718,22.192,22.192,0,0,1-3.844,1.01,23.528,23.528,0,0,1-3.933.337,18.26,18.26,0,0,1-6.856-1.258,15.065,15.065,0,0,1-5.422-3.685,16.906,16.906,0,0,1-3.561-6.006,24.459,24.459,0,0,1-1.275-8.221,20.941,20.941,0,0,1,1.151-7.016,16.53,16.53,0,0,1,3.314-5.651,15.226,15.226,0,0,1,5.279-3.756,17.335,17.335,0,0,1,7.016-1.364,16.151,16.151,0,0,1,5.97,1.081,13.5,13.5,0,0,1,4.748,3.118,14.306,14.306,0,0,1,3.136,5.031,19.167,19.167,0,0,1,1.134,6.821,4.117,4.117,0,0,1-.319,1.984,1.324,1.324,0,0,1-1.205.5H471.328a20.929,20.929,0,0,0,.94,5.918,11.857,11.857,0,0,0,2.32,4.2,9.368,9.368,0,0,0,3.543,2.516,12.152,12.152,0,0,0,4.606.833,13.522,13.522,0,0,0,4.093-.549,19.52,19.52,0,0,0,2.959-1.187,22.717,22.717,0,0,0,2.072-1.187,2.752,2.752,0,0,1,1.436-.55,1.392,1.392,0,0,1,1.2.6Zm-5.1-16.831a12.47,12.47,0,0,0-.619-4.021,9.033,9.033,0,0,0-1.808-3.154,8.074,8.074,0,0,0-2.888-2.055,10.925,10.925,0,0,0-11.037,1.913,12.372,12.372,0,0,0-3.277,7.317Z"/>
      <path d="M515.336,82.591a8.651,8.651,0,0,1-6.537-2.374q-2.286-2.373-2.285-6.838V51.41h-4.323a1.413,1.413,0,0,1-.957-.336,1.311,1.311,0,0,1-.39-1.046V47.513l5.883-.744,1.453-11.091a1.539,1.539,0,0,1,.477-.868,1.4,1.4,0,0,1,.975-.337h3.188V46.839H523.2V51.41H512.82V72.954a4.58,4.58,0,0,0,1.1,3.366,3.833,3.833,0,0,0,2.834,1.1,4.991,4.991,0,0,0,1.719-.266,7.431,7.431,0,0,0,1.257-.584q.531-.319.9-.585a1.183,1.183,0,0,1,.655-.266,1.09,1.09,0,0,1,.887.6l1.842,3.012a11.745,11.745,0,0,1-3.934,2.391A13.343,13.343,0,0,1,515.336,82.591Z"/>
    </g>
    <g>
      <path d="M95.649,88.034a8.844,8.844,0,0,0-1.85-3.155,8.226,8.226,0,0,0-2.915-2.013,9.906,9.906,0,0,0-3.835-.709,10.029,10.029,0,0,0-3.864.709,8.2,8.2,0,0,0-2.924,2.013,8.844,8.844,0,0,0-1.85,3.155,11.734,11.734,0,0,0-.591,2.918H15.625v2.835h62.24a11.466,11.466,0,0,0,.546,2.521,8.861,8.861,0,0,0,1.85,3.145,8.087,8.087,0,0,0,2.924,2,10.143,10.143,0,0,0,3.864.7,10.018,10.018,0,0,0,3.835-.7,8.113,8.113,0,0,0,2.915-2,8.861,8.861,0,0,0,1.85-3.145,11.524,11.524,0,0,0,.546-2.521h38.43V90.952H96.24A11.779,11.779,0,0,0,95.649,88.034Z"/>
      <path d="M15.625,53.824h7.867a8.029,8.029,0,0,0-.955.861,8.844,8.844,0,0,0-1.85,3.155,13.63,13.63,0,0,0,0,8.274,8.861,8.861,0,0,0,1.85,3.145,7.991,7.991,0,0,0,2.3,1.712H15.625v2.835h119V70.971H33.779a8.027,8.027,0,0,0,2.3-1.712,8.861,8.861,0,0,0,1.85-3.145,13.63,13.63,0,0,0,0-8.274,8.844,8.844,0,0,0-1.85-3.155,8.02,8.02,0,0,0-.954-.861h99.5V50.989h-119Z"/>
      <path d="M15.625,11.026v2.835h86.016a8.029,8.029,0,0,0-.955.862,8.831,8.831,0,0,0-1.85,3.154,12.55,12.55,0,0,0-.642,4.132,12.526,12.526,0,0,0,.642,4.142,8.852,8.852,0,0,0,1.85,3.145,7.986,7.986,0,0,0,2.3,1.712H68.734a12.079,12.079,0,0,0-.615-3.362,8.844,8.844,0,0,0-1.85-3.155,8.217,8.217,0,0,0-2.915-2.013,9.906,9.906,0,0,0-3.835-.709,10.029,10.029,0,0,0-3.864.709,8.2,8.2,0,0,0-2.924,2.013,8.844,8.844,0,0,0-1.85,3.155,12.043,12.043,0,0,0-.615,3.362H15.625v2.835h34.76a11.16,11.16,0,0,0,.5,2.077,8.861,8.861,0,0,0,1.85,3.145,8.087,8.087,0,0,0,2.924,2,10.143,10.143,0,0,0,3.864.7,10.018,10.018,0,0,0,3.835-.7,8.1,8.1,0,0,0,2.915-2,8.861,8.861,0,0,0,1.85-3.145,11.24,11.24,0,0,0,.5-2.077h66.01V31.008h-22.7a8.009,8.009,0,0,0,2.3-1.712,8.852,8.852,0,0,0,1.85-3.145,12.526,12.526,0,0,0,.643-4.142,12.549,12.549,0,0,0-.643-4.132,8.831,8.831,0,0,0-1.85-3.154,8.011,8.011,0,0,0-.953-.862h21.354V11.026Z"/>
    </g>
  </g>
</svg>
