<svg xmlns="http://www.w3.org/2000/svg" width="457" height="105" viewBox="0 0 457 105">
  <g>
    <path d="M107.752,25.249V76.024h-6.023V38.713q0-.744.053-1.594t.124-1.736L84.473,67.131a2.639,2.639,0,0,1-2.481,1.594H81a2.636,2.636,0,0,1-2.48-1.594L60.733,35.241a31.18,31.18,0,0,1,.212,3.472V76.024H54.922V25.249h5.066a4.409,4.409,0,0,1,1.417.177,2.039,2.039,0,0,1,.957.992L79.9,57.67q.426.85.833,1.772T81.5,61.32q.354-.957.744-1.9a19.3,19.3,0,0,1,.85-1.789l17.221-31.217a1.882,1.882,0,0,1,.939-.992,4.577,4.577,0,0,1,1.435-.177Z"/>
    <path d="M148.111,40.131V76.024h-3.756a1.608,1.608,0,0,1-1.7-1.311l-.5-3.862a19.731,19.731,0,0,1-5.244,4.164,13.757,13.757,0,0,1-6.661,1.576,12.97,12.97,0,0,1-5.191-.974,10.3,10.3,0,0,1-3.774-2.746A11.64,11.64,0,0,1,119,68.583a19.131,19.131,0,0,1-.762-5.562V40.131h6.307v22.89a9.59,9.59,0,0,0,1.86,6.307q1.861,2.232,5.687,2.232a10.717,10.717,0,0,0,5.227-1.329,16.6,16.6,0,0,0,4.482-3.667V40.131Z"/>
    <path d="M179.008,46.048a1.4,1.4,0,0,1-1.311.78,2.468,2.468,0,0,1-1.205-.39q-.672-.39-1.647-.868a15.5,15.5,0,0,0-2.321-.886,11.1,11.1,0,0,0-3.189-.408,9.428,9.428,0,0,0-2.87.408,6.9,6.9,0,0,0-2.179,1.116,4.938,4.938,0,0,0-1.382,1.648,4.422,4.422,0,0,0-.479,2.037,3.392,3.392,0,0,0,.8,2.3,6.911,6.911,0,0,0,2.108,1.6,18.319,18.319,0,0,0,2.976,1.187q1.667.514,3.42,1.1t3.419,1.293a12.417,12.417,0,0,1,2.976,1.772,8.12,8.12,0,0,1,2.109,2.6,7.983,7.983,0,0,1,.8,3.7,11.734,11.734,0,0,1-.886,4.589,10.013,10.013,0,0,1-2.622,3.649,12.652,12.652,0,0,1-4.252,2.428,17.486,17.486,0,0,1-5.811.885,18.123,18.123,0,0,1-6.8-1.222,17.22,17.22,0,0,1-5.173-3.136l1.488-2.409a2.148,2.148,0,0,1,.673-.709,1.817,1.817,0,0,1,.992-.248,2.383,2.383,0,0,1,1.347.5q.708.5,1.718,1.1a13.051,13.051,0,0,0,2.463,1.1,11.3,11.3,0,0,0,3.614.5A9.881,9.881,0,0,0,171,71.578a6.755,6.755,0,0,0,2.3-1.294,5.117,5.117,0,0,0,1.365-1.878,5.835,5.835,0,0,0,.442-2.267,3.759,3.759,0,0,0-.8-2.463,6.706,6.706,0,0,0-2.108-1.665,17.111,17.111,0,0,0-2.994-1.205q-1.683-.513-3.437-1.081t-3.437-1.293a12.048,12.048,0,0,1-2.994-1.825,8.248,8.248,0,0,1-2.109-2.711,8.766,8.766,0,0,1-.8-3.915,9.551,9.551,0,0,1,.851-3.951,9.682,9.682,0,0,1,2.48-3.33,12.2,12.2,0,0,1,4-2.286,16.015,16.015,0,0,1,5.421-.85,17.149,17.149,0,0,1,6.36,1.116,15.052,15.052,0,0,1,4.872,3.065Z"/>
    <path d="M196.8,28.863a4,4,0,0,1-.373,1.719A4.955,4.955,0,0,1,195.431,32a4.544,4.544,0,0,1-1.452.974,4.442,4.442,0,0,1-1.754.355,4.188,4.188,0,0,1-1.719-.355,4.437,4.437,0,0,1-1.4-.974,4.825,4.825,0,0,1-.957-1.417,4.188,4.188,0,0,1-.354-1.719,4.441,4.441,0,0,1,.354-1.754,4.707,4.707,0,0,1,.957-1.453,4.453,4.453,0,0,1,1.4-.974,4.188,4.188,0,0,1,1.719-.354,4.441,4.441,0,0,1,1.754.354,4.56,4.56,0,0,1,1.452.974,4.822,4.822,0,0,1,.992,1.453A4.241,4.241,0,0,1,196.8,28.863Zm-1.347,11.268V76.024h-6.307V40.131Z"/>
    <path d="M212.137,23.832v30.72h1.63a3.156,3.156,0,0,0,1.187-.2,2.855,2.855,0,0,0,1.01-.8L227.3,41.406a4.265,4.265,0,0,1,1.045-.939,2.8,2.8,0,0,1,1.47-.336h5.706L222.307,54.2a8,8,0,0,1-2.055,1.878,6.5,6.5,0,0,1,1.151.974,9.207,9.207,0,0,1,.975,1.258l14.031,17.716h-5.633a3.363,3.363,0,0,1-1.4-.265,2.336,2.336,0,0,1-1.01-.975l-11.8-14.7a2.815,2.815,0,0,0-1.045-.975,4.085,4.085,0,0,0-1.578-.23h-1.807V76.024H205.8V23.832Z"/>
    <path d="M248.314,23.832V76.024h-6.307V23.832Z"/>
    <path d="M273.648,39.564a18.3,18.3,0,0,1,7.086,1.311,15.2,15.2,0,0,1,5.387,3.72,16.354,16.354,0,0,1,3.419,5.829,23.188,23.188,0,0,1,1.187,7.636,23.136,23.136,0,0,1-1.187,7.653,16.362,16.362,0,0,1-3.419,5.811,14.989,14.989,0,0,1-5.387,3.7,18.524,18.524,0,0,1-7.086,1.294,18.761,18.761,0,0,1-7.14-1.294,14.948,14.948,0,0,1-5.4-3.7,16.347,16.347,0,0,1-3.419-5.811A23.11,23.11,0,0,1,256.5,58.06a23.162,23.162,0,0,1,1.187-7.636,16.34,16.34,0,0,1,3.419-5.829,15.151,15.151,0,0,1,5.4-3.72A18.534,18.534,0,0,1,273.648,39.564Zm0,32.031q5.316,0,7.937-3.561t2.622-9.939q0-6.412-2.622-9.992t-7.937-3.579a11.138,11.138,0,0,0-4.7.922,8.712,8.712,0,0,0-3.33,2.657,11.79,11.79,0,0,0-1.985,4.27,22.885,22.885,0,0,0-.655,5.722q0,6.378,2.64,9.939T273.648,71.6Z"/>
    <path d="M329.526,45.41V66.954a4.584,4.584,0,0,0,1.1,3.366,3.792,3.792,0,0,0,2.8,1.1,5.106,5.106,0,0,0,1.754-.266,7.481,7.481,0,0,0,1.258-.584q.53-.319.884-.585a1.113,1.113,0,0,1,.639-.266.859.859,0,0,1,.514.142,1.832,1.832,0,0,1,.407.461l1.843,3.012a11.745,11.745,0,0,1-3.934,2.391,13.444,13.444,0,0,1-4.783.868,8.6,8.6,0,0,1-6.5-2.374q-2.285-2.373-2.285-6.838V45.41H306.6V76.024h-6.343V45.517l-3.968-.461a3.16,3.16,0,0,1-1.223-.549,1.286,1.286,0,0,1-.478-1.081V40.839h5.669V37.367a15.981,15.981,0,0,1,.868-5.474,11.089,11.089,0,0,1,2.481-4.04,10.523,10.523,0,0,1,3.879-2.5,14.45,14.45,0,0,1,5.1-.85,13.306,13.306,0,0,1,4.429.708l-.142,3.154a.915.915,0,0,1-.938.921q-.87.072-2.322.071a9.681,9.681,0,0,0-2.958.425,5.6,5.6,0,0,0-2.286,1.382,6.252,6.252,0,0,0-1.47,2.516,12.469,12.469,0,0,0-.514,3.862v3.3h17.044l1.417-11.161a1.746,1.746,0,0,1,.513-.868,1.4,1.4,0,0,1,.975-.337h3.189V40.839h10.346V45.41Z"/>
    <path d="M375.377,70.993a11.988,11.988,0,0,1-2.8,2.463,17.442,17.442,0,0,1-3.49,1.718,22.18,22.18,0,0,1-3.845,1.01,23.507,23.507,0,0,1-3.932.337,18.265,18.265,0,0,1-6.857-1.258,15.074,15.074,0,0,1-5.422-3.685,16.9,16.9,0,0,1-3.56-6.006,24.433,24.433,0,0,1-1.276-8.221,20.916,20.916,0,0,1,1.152-7.016,16.528,16.528,0,0,1,3.313-5.651,15.23,15.23,0,0,1,5.28-3.756,17.334,17.334,0,0,1,7.015-1.364,16.152,16.152,0,0,1,5.971,1.081,13.5,13.5,0,0,1,4.748,3.118,14.306,14.306,0,0,1,3.136,5.031,19.168,19.168,0,0,1,1.133,6.821,4.121,4.121,0,0,1-.318,1.984,1.325,1.325,0,0,1-1.2.5H350.432a20.967,20.967,0,0,0,.939,5.918,11.859,11.859,0,0,0,2.321,4.2,9.365,9.365,0,0,0,3.542,2.516,12.161,12.161,0,0,0,4.607.833,13.526,13.526,0,0,0,4.093-.549,19.562,19.562,0,0,0,2.959-1.187,22.854,22.854,0,0,0,2.072-1.187,2.75,2.75,0,0,1,1.436-.55,1.393,1.393,0,0,1,1.2.6Zm-5.1-16.831a12.442,12.442,0,0,0-.62-4.021,9.031,9.031,0,0,0-1.807-3.154,8.074,8.074,0,0,0-2.888-2.055,10.925,10.925,0,0,0-11.037,1.913,12.36,12.36,0,0,0-3.277,7.317Z"/>
    <path d="M394.44,76.591a8.655,8.655,0,0,1-6.538-2.374q-2.284-2.373-2.285-6.838V45.41H381.3a1.413,1.413,0,0,1-.957-.336,1.308,1.308,0,0,1-.391-1.046V41.513l5.883-.744,1.453-11.091a1.547,1.547,0,0,1,.478-.868,1.394,1.394,0,0,1,.974-.337h3.189V40.839h10.383V45.41H391.924V66.954a4.576,4.576,0,0,0,1.1,3.366,3.831,3.831,0,0,0,2.834,1.1,4.981,4.981,0,0,0,1.718-.266,7.407,7.407,0,0,0,1.258-.584q.531-.319.9-.585a1.183,1.183,0,0,1,.656-.266,1.087,1.087,0,0,1,.886.6l1.842,3.012a11.741,11.741,0,0,1-3.933,2.391A13.351,13.351,0,0,1,394.44,76.591Z"/>
  </g>
</svg>
