<svg xmlns="http://www.w3.org/2000/svg" width="457" height="105" viewBox="0 0 457 105">
  <g>
    <path d="M67.458,30.263a11.657,11.657,0,0,0-.3-1.56,6.117,6.117,0,0,0-.521-1.334,8.144,8.144,0,0,0-.849-1.342,30.094,30.094,0,0,0-3.149-3.219,3.454,3.454,0,0,0-.44-.831,2.367,2.367,0,0,0-1.4-.875c-.71-.659-1.423-1.315-2.128-1.979l-.006,0q.5.972.994,1.943c-.133.029-.263.063-.385.1a2.517,2.517,0,0,0-.692.377,2.278,2.278,0,0,0-.644.749,8.622,8.622,0,0,0-.97,1.13c-.158.218-.33.431-.475.658-.168.264-.335.529-.5.791s-.3.514-.441.771c-.118.211-.226.423-.333.641s-.222.428-.317.649c-.2.457-.4.912-.582,1.376q-.3.771-.573,1.551c-.248.706-.46,1.426-.654,2.15q-.653,1.416-1.307,2.831c-.159.345-.323.684-.456,1.041q-.482,1.3-.963,2.593l-1.077,2.9c-.128.347-.25.685-.357,1.038L47.311,47.76c-.5,1.657-.972,3.328-1.553,4.96-.379,1.067-.731,2.148-1.185,3.187l-.084.191c-.088-.218-.17-.438-.24-.66q-.407-1.27-.811-2.542-.171-.69-.342-1.383c-.111-.449-.222-.9-.332-1.345-.046-.177-.1-.357-.134-.537q-.368-1.989-.731-3.98c-.089-.485-.137-.981-.2-1.471q-.159-1.181-.319-2.367c-.076-.567-.126-1.141-.188-1.711-.088-.821-.18-1.641-.267-2.462a2.545,2.545,0,0,0-.94-1.883,2.482,2.482,0,0,0-3.493.388A2.6,2.6,0,0,0,35.963,38l0,.072a7.692,7.692,0,0,0-.455.971,14.188,14.188,0,0,0-.682,2.249c-.107.5-.185,1-.263,1.5a12.815,12.815,0,0,0-.131,1.6c-.034,1.154-.058,2.309-.051,3.463.007,1.2.044,2.4.1,3.6.055,1.156.141,2.31.2,3.467.059,1.091.09,2.184.145,3.276.031.614.064,1.227.1,1.839.034.539.089,1.074.139,1.611q.162,1.7.3,3.4c.013.157.023.313.036.471-.117,1.567-.22,3.134-.325,4.7-.047.713-.09,1.423-.129,2.135-.1.3-.2.611-.325.91-.206.519-.423,1.032-.641,1.546q-.358.851-.692,1.707c-.183.471-.35.95-.51,1.428q-.166.492-.332.989c-.086.255-.151.519-.226.779-.009.032-.018.065-.028.1-.079.276-.172.551-.237.831-.089.383-.176.767-.265,1.15-.046.2-.1.4-.135.6q-.093.53-.184,1.06c-.038.22-.083.44-.113.662-.046.352-.093.7-.141,1.054-.154,1.15-.283,2.3-.394,3.46l0,0,0,0c.1-.584.217-1.166.336-1.748.092-.455.182-.91.285-1.365.109-.487.207-.979.335-1.464q.21-.8.422-1.6c.169-.52.332-1.042.5-1.562.048-.153.108-.3.163-.453.121-.324.242-.65.362-.974.169-.46.368-.909.556-1.363.163-.4.333-.794.513-1.182q.2-.44.405-.881c.061-.134.127-.268.193-.4-.036.916-.076,1.836-.035,2.752a11.075,11.075,0,0,0,.189,1.6.844.844,0,0,0,.226.479.285.285,0,0,0,.237.056l.015.069c.04.171.084.342.127.513.039.155.078.309.124.461a.975.975,0,0,0,.115.247.541.541,0,0,0,.183.146.341.341,0,0,0,.184.064.206.206,0,0,0,.035,0,.283.283,0,0,0,.193-.107.993.993,0,0,0,.2-.434,2.627,2.627,0,0,0,0-.416,4.493,4.493,0,0,0-.131-.808c-.068-.257-.137-.515-.208-.772-.112-.4-.249-.8-.365-1.2-.135-.465-.277-.928-.416-1.393.059-.3.118-.6.176-.905.162-.837.308-1.677.48-2.512q.246-1.185.485-2.37c.046-.2.091-.4.125-.6.01-.055.015-.111.024-.166.08-.411.163-.82.24-1.231.278-1.485.556-2.971.757-4.469.2-1.461.358-2.925.517-4.388s.3-2.954.5-4.424q.115-.849.23-1.7c.082.274.167.546.256.818q.261.789.523,1.578c.094.285.175.58.284.859.259.664.5,1.334.779,1.991l.333.8c.088.211.155.429.241.642a5.671,5.671,0,0,0,.755,1.377,2.892,2.892,0,0,0,2.7,1.119,4.4,4.4,0,0,0,1.169-.375,7.2,7.2,0,0,0,.9-.551,5.133,5.133,0,0,0,.792-.8c.133-.173.254-.349.37-.533a17.9,17.9,0,0,0,1.5-2.943A61.875,61.875,0,0,0,51.947,50.5l-.084.561c-.038.244-.1.482-.152.72-.131.573-.285,1.134-.445,1.7-.2.68-.392,1.362-.612,2.037l0,.005,0,0c.5-.959.975-1.935,1.457-2.906.1-.2.188-.422.281-.632.08-.182.175-.362.242-.549.173-.482.367-.961.508-1.453l.017-.057v0l0-.008v0q.224-.771.443-1.543c.04-.145.063-.3.094-.442.063-.308.125-.617.188-.927.081-.406.142-.814.2-1.225.059-.4.123-.791.163-1.188.048-.483.108-.967.138-1.451s.058-.977.083-1.466q.016-.32.025-.639c.2-.636.4-1.275.6-1.912.132-.416.264-.834.4-1.25.042-.133.076-.272.127-.4q.993-2.465,1.984-4.93c.175-.433.335-.88.533-1.3.092-.2.186-.4.278-.6-.009.49-.015.979-.011,1.468q.02,3.006.04,6.01c.006,1,.015,1.993.049,2.989.111,3.151.206,6.3.332,9.451q.093,2.282.183,4.563c-.3.6-.607,1.194-.9,1.8-.282.573-.538,1.158-.8,1.742-.13.293-.239.595-.358.893-.132.334-.238.68-.338,1.023a10.7,10.7,0,0,0-.356,1.485,13.72,13.72,0,0,0-.128,1.846,8.177,8.177,0,0,0,.015.872c.038.371.077.743.12,1.112.038.32.113.638.173.954.074.382.171.749.271,1.127.095.362.179.731.3,1.084.113.331.211.675.345,1,.3.721.6,1.434.928,2.14.556,1.182,1.165,2.337,1.763,3.5.064.634.124,1.269.194,1.9.042.392.075.791.138,1.181q.414,2.589.9,5.166c.135.725.311,1.445.474,2.165q.423,1.851.894,3.7l0,0,0,0q-.037-2.036-.129-4.067c-.031-.7-.084-1.407-.1-2.111q-.033-1.543-.092-3.087c.438,1.1.856,2.209,1.2,3.342a34.163,34.163,0,0,1,.811,4.912l0,0,0,0q.1-1.139.211-2.274c.065-.67.118-1.354.124-2.028,0-.4.012-.79-.008-1.185s-.054-.764-.091-1.147c-.067-.666-.154-1.334-.248-2-.2-1.384-.453-2.76-.785-4.119-.379-1.553-.779-3.1-1.233-4.631-.041-.137-.085-.274-.127-.412q-.033-1.282-.038-2.568c-.012-3.047-.037-6.094-.03-9.142.008-2.709,0-5.419.017-8.128.216-.536.432-1.07.653-1.605.53-1.285,1.054-2.574,1.586-3.86.243-.589.489-1.179.7-1.781.241-.672.514-1.345.72-2.029.409-1.356.766-2.723,1.089-4.1.184-.781.344-1.562.484-2.353.069-.381.086-.781.123-1.166.031-.328.029-.659.035-.987a23.691,23.691,0,0,0-.035-2.384C67.5,30.682,67.482,30.471,67.458,30.263ZM35.335,80.447l-.072-.051-.059-.114a2.106,2.106,0,0,1-.057-.475c.005-.3.023-.6.046-.892.014.229.033.457.057.686a7.069,7.069,0,0,0,.158.865Zm.3-.843q.067.314.14.629c.031.13.062.261.087.392l.018.094c-.048-.129-.09-.26-.132-.391l.008-.008,0,0-.007,0q-.1-.3-.185-.609a11.227,11.227,0,0,1-.25-1.806V77.9c.021.136.042.274.064.412C35.439,78.741,35.537,79.172,35.63,79.6ZM37.173,48.85q-.264,2.032-.509,4.071c-.122,1.022-.247,2.044-.36,3.066-.045-.879-.1-1.757-.177-2.633-.1-1.134-.247-2.264-.376-3.4-.137-1.2-.268-2.391-.381-3.589-.048-.5-.094-1-.135-1.493-.025-.3-.064-.6-.074-.908-.011-.283-.019-.566-.029-.849.013-.347.019-.7.047-1.043a13.974,13.974,0,0,1,.459-2.663,8.85,8.85,0,0,1,.343-.978c.019.408.038.816.089,1.22.056.448.112.893.169,1.339.068.54.125,1.081.215,1.616.221,1.323.4,2.66.687,3.969.068.311.133.621.2.932C37.288,47.957,37.231,48.4,37.173,48.85ZM61.386,24.631l0,0a.779.779,0,0,1,.088-.084C61.446,24.572,61.416,24.6,61.386,24.631Zm2.985,12.19c-.044.672-.095,1.343-.143,2.015-.082,1.179-.194,2.355-.329,3.529A28.884,28.884,0,0,1,63.174,46c-.275,1.111-.592,2.213-.907,3.313l0-.016-.009.029-.013.046.005-.019-.093.315c0-.035,0-.07,0-.106q.054-4.755.108-9.511.106-2.818.208-5.637.046-1.282.095-2.563c.028-.777.076-1.554.124-2.332.057-.932.1-1.863.12-2.8.08.138.161.275.24.414a11.141,11.141,0,0,1,.879,2.058,28.8,28.8,0,0,1,.407,3.555c.069.822.078,1.646.1,2.469C64.423,35.757,64.4,36.289,64.371,36.821Z"/>
    <polygon points="53.149 49.976 53.149 49.977 53.148 49.98 53.149 49.976"/>
    <polygon points="94.604 74.543 94.601 74.535 94.6 74.533 94.604 74.543"/>
    <path d="M74.974,46.35l0-.01.01-.049Z"/>
    <path d="M99.958,37.045a14.544,14.544,0,0,0-.191-1.543,10.3,10.3,0,0,0-.671-2.35,4.354,4.354,0,0,0-.6-1.035,2.945,2.945,0,0,0-.749-.681,2.346,2.346,0,0,0-.828-.327,2.264,2.264,0,0,0-.958.061,1.483,1.483,0,0,0-.639.351c-.194-.817-.39-1.633-.58-2.451h-.008c-.016,2.071,0,4.151-.086,6.22-.019.454-.036.908-.054,1.362l-.03-1.5c-.006-.227-.02-.457-.015-.683l.033-1.344a8.89,8.89,0,0,1,.076-1.3v0l.019-.05s0-.008,0-.007c-.031.006-.071.249-.076.272-.032.242-.056.48-.076.722-.046.563-.091,1.125-.139,1.687-.031.382-.028.771-.041,1.152-.024.617-.045,1.232-.067,1.849-.028.785-.036,1.57-.05,2.356-.015.865-.036,1.73-.043,2.593,0,.049-.009.1-.013.147-.019.227-.027.457-.056.682q-.18,1.374-.338,2.749c-.1.868-.19,1.737-.277,2.606-.053.549-.14,1.1-.213,1.64-.087.653-.171,1.307-.267,1.957q-.243,1.65-.563,3.284a41.514,41.514,0,0,1-1.468,5.232,46.815,46.815,0,0,1-2.171,5.032q-.642,1.227-1.38,2.394A19.334,19.334,0,0,1,86,70.158a12.627,12.627,0,0,1-1.637,1.5,7.869,7.869,0,0,1-1.131.559,7.7,7.7,0,0,1-1.083.219,7.007,7.007,0,0,1-.892-.069,2.2,2.2,0,0,1-1.065-.55,11.6,11.6,0,0,1-1.32-1.514,17.184,17.184,0,0,1-1.409-2.99,27.709,27.709,0,0,1-1.286-6.353,60.546,60.546,0,0,1,.209-7.388c.075-1.06.135-2.121.2-3.181.033-.08.064-.162.1-.243a23.178,23.178,0,0,0,.975-2.846,14.41,14.41,0,0,0,.489-3.558,10.236,10.236,0,0,0-.11-1.784,3.616,3.616,0,0,0-.136-.644.768.768,0,0,0-.105-.229,1.175,1.175,0,0,0-.146-.138c0-.052-.009-.105-.015-.158-.01-.2-.023-.365-.049-.567a2.223,2.223,0,0,0-.128-.316.391.391,0,0,0-.669-.049,7.587,7.587,0,0,0-.632,1.432c-.164.566-.317,1.14-.444,1.715-.07.312-.141.625-.211.937-.18.8-.362,1.6-.531,2.4l0,.017,0,.012q-.38,1.829-.74,3.662c-.144.735-.267,1.475-.39,2.213-.123.194-.248.387-.37.58-.244.385-.463.779-.685,1.176-.326.586-.643,1.17-.928,1.777A17.216,17.216,0,0,0,70.633,59.3a17.624,17.624,0,0,0-.5,3.933,14.547,14.547,0,0,0,.467,3.831,14.139,14.139,0,0,0,1.441,3.47,9.986,9.986,0,0,0,2.186,2.737A13.374,13.374,0,0,0,75.7,74.318c.321.2.645.391.967.588q.82.5,1.647.992h0l0-.006q-.726-.69-1.446-1.384c-.409-.393-.837-.769-1.224-1.185a12.426,12.426,0,0,1-1.122-1.344,13.8,13.8,0,0,1-1.3-2.815,15.7,15.7,0,0,1-.75-3.782,18.332,18.332,0,0,1,.064-2.588,23.1,23.1,0,0,1,.379-2.455c.026-.12.055-.239.082-.359a29.5,29.5,0,0,0,.275,4.622,26.6,26.6,0,0,0,.841,3.99,19.844,19.844,0,0,0,1.4,3.607,14.3,14.3,0,0,0,1.226,1.908,8.8,8.8,0,0,0,1.1,1.28,6.227,6.227,0,0,0,1.91,1.227,5.617,5.617,0,0,0,.825.243,8.18,8.18,0,0,0,1.188.209c.217.014.436.022.656.022a6.872,6.872,0,0,0,1.689-.192c.392-.1.761-.222,1.145-.352a7.228,7.228,0,0,0,.806-.314,10.922,10.922,0,0,0,3.043-2.284,15.72,15.72,0,0,0,1.534-1.824q.508-.73.967-1.5c.538-.89,1.03-1.8,1.487-2.737a8.083,8.083,0,0,1,.915-.74,6.086,6.086,0,0,1,.958-.505c.055.14.113.281.17.421.086.209.174.416.262.623.166,1.323.348,2.643.567,3.957.192,1.148.411,2.293.64,3.436-.018-.016-.038-.029-.055-.044a6.26,6.26,0,0,1-.495-.467,4.46,4.46,0,0,1-.37-.467,7.044,7.044,0,0,1-.649-1.374,10.7,10.7,0,0,1-.486-2.378c-.032-.545-.042-1.09-.071-1.635-.014-.237-.35-.2-.326-.006-.074.6-.135,1.209-.149,1.816a11.535,11.535,0,0,0,.569,3.942l-.007-.02.013.041.016.045a5.446,5.446,0,0,0,.263.67c.1.2.218.389.33.582.166.289.342.568.53.842a2.268,2.268,0,0,0,.542.572,1.922,1.922,0,0,0,.441.249,1.4,1.4,0,0,0,.386.1l.034,0c.037.166.07.332.107.5.075.332.159.665.243,1a6.522,6.522,0,0,0,.406,1.286.022.022,0,0,0,.019.012.019.019,0,0,0,.02-.02.433.433,0,0,0,0-.095,0,0,0,0,0-.008,0l0,.012-.01-.069c-.018-.408-.027-.816-.055-1.223v.014q-.031-.5-.079-1l-.042-.437c.026,0,.053,0,.08-.01a1.685,1.685,0,0,0,.391-.151,1.951,1.951,0,0,0,.452-.324,2.924,2.924,0,0,0,.38-.429,4.786,4.786,0,0,0,.29-.526,2.573,2.573,0,0,0,.116-.25,4.808,4.808,0,0,0,.288-1.858,10.343,10.343,0,0,0-.1-1.154c-.046-.269-.1-.537-.163-.8-.136-.567-.3-1.125-.467-1.683-.147-.5-.326-.985-.5-1.476a9.679,9.679,0,0,0-1.2-2.281c-.24-.352-.476-.715-.744-1.045-.078-.1-.153-.191-.232-.287v-.01q-.194-1.971-.411-3.943c.017-.071.034-.143.051-.213.282-1.172.6-2.332.911-3.5.3-1.127.606-2.25.918-3.373a65.719,65.719,0,0,0,1.752-7.66c.193-1.274.326-2.552.44-3.833.055-.618.076-1.238.1-1.858.027-.6.006-1.215,0-1.823C100.071,38.374,100.009,37.71,99.958,37.045Zm-22.248,4.1c.014.033.027.066.04.1a4.044,4.044,0,0,1,.1.745c.014.317.006.634-.011.951-.032-.362-.066-.723-.1-1.087a.883.883,0,0,0,.092.112l0-.006a.915.915,0,0,1-.089-.114h0l-.011-.021c-.023-.245-.045-.489-.068-.733A.543.543,0,0,1,77.71,41.149Zm-.855,5.163q.082-1.237.157-2.474c.047-.779.083-1.562.18-2.336.083.357.16.716.246,1.068.1.421.21.84.316,1.26-.04.3-.087.6-.145.893a12.356,12.356,0,0,1-.5,1.738c-.1.26-.2.515-.313.768C76.816,46.924,76.835,46.617,76.855,46.312Zm17.8,19.8a4.761,4.761,0,0,0-.747.411c-.087.06-.169.126-.253.191q.368-.8.709-1.618a1.7,1.7,0,0,0,.095.282,3.36,3.36,0,0,0,.15.328c.019.046.037.092.055.138Zm.058-1.691a.758.758,0,0,0-.092.053c.034-.084.066-.17.1-.254C94.717,64.284,94.714,64.352,94.712,64.418Zm3.437-27.811a57.281,57.281,0,0,1-.812,5.791c-.033-.289-.066-.579-.105-.87q-.2-1.524-.408-3.048c-.049-.339-.136-.679-.2-1.015q-.189-.937-.381-1.872c-.211-1.034-.445-2.063-.686-3.091a1.349,1.349,0,0,0,.292.058s.006-.007,0-.007a1.7,1.7,0,0,1-.307-.109h0c-.053-.227-.107-.455-.161-.681l.055-.05a1.056,1.056,0,0,1,.254-.126,2.639,2.639,0,0,1,.515-.094,1.524,1.524,0,0,1,.287.025,2.6,2.6,0,0,1,.447.157,1.947,1.947,0,0,1,.26.176,3.039,3.039,0,0,1,.409.461,4.325,4.325,0,0,1,.29.592,7.254,7.254,0,0,1,.29,1.574A17.407,17.407,0,0,1,98.149,36.607Z"/>
    <path d="M133.1,63.056a24.1,24.1,0,0,0-1.941-2.791,43.18,43.18,0,0,0-4.815-4.937,54.779,54.779,0,0,0-5.314-4.1c-.946-.651-1.895-1.293-2.858-1.92a22.1,22.1,0,0,1-2.286-1.713,9.4,9.4,0,0,1-1.139-1.246,9.4,9.4,0,0,1-.718-1.446,6.748,6.748,0,0,1-.178-.845,8.043,8.043,0,0,1,.126-1.366,11.242,11.242,0,0,1,.736-2.1,14.1,14.1,0,0,1,1.606-2.362,14.564,14.564,0,0,1,2.255-1.975,12.756,12.756,0,0,1,2.258-1.119,10.485,10.485,0,0,1,2.056-.4,10.925,10.925,0,0,1,2.182.145,9.55,9.55,0,0,1,1.845.64,8.321,8.321,0,0,1,1.3.885,7.147,7.147,0,0,1,.847.967,6.94,6.94,0,0,1,.577,1.125,7.379,7.379,0,0,1,.284,1.488,8.25,8.25,0,0,1-.167,1.835c-.069.283-.149.559-.242.829q-.558.531-1.152,1.024c-.343.285-.686.566-1.035.842q-1.279,1.015-2.556,2.033l0,.006h0c1.124-.606,2.249-1.21,3.37-1.821.14-.075.277-.156.414-.234-.158.23-.324.457-.5.67a1.969,1.969,0,0,1-.34.312l0,0-.13.058h-.009s0,.006,0,.008c.108.016.285-.113.355-.153a2.477,2.477,0,0,0,.512-.447c.243-.257.483-.519.708-.793.179-.107.359-.214.533-.327a16.1,16.1,0,0,0,1.561-1.127,8.984,8.984,0,0,0,2.417-2.872,4.369,4.369,0,0,0,.466-1.7,6.853,6.853,0,0,0,0-.785,4.243,4.243,0,0,0-.118-.9,7.581,7.581,0,0,0-1.57-3.029,10.375,10.375,0,0,0-5.746-2.99,13.068,13.068,0,0,0-1.77-.282,12.15,12.15,0,0,0-1.585.019A6.91,6.91,0,0,0,120.37,31a10.629,10.629,0,0,0-1.33.87c-.136.106-.271.213-.4.324a10.945,10.945,0,0,0-1.925.9,15.16,15.16,0,0,0-4.919,4.582,12.827,12.827,0,0,0-1.646,3.33,14.34,14.34,0,0,0-.434,1.829,8.2,8.2,0,0,0-.066,1.866,6.7,6.7,0,0,0,.362,1.724,10.376,10.376,0,0,0,.708,1.709,10.648,10.648,0,0,0,1.515,2.095c.019.04.037.079.055.119.078.168.147.345.235.509.2.384.411.766.614,1.15.087.163.2.318.293.476.127.207.255.413.383.621.231.373.5.727.746,1.087.23.331.491.645.739.963s.515.616.774.92c.242.283.49.567.743.84.406.434.8.869,1.249,1.265a15,15,0,0,0,1.615,1.214c.621.422,1.266.824,1.919,1.2.758.433,1.519.861,2.271,1.306a16.3,16.3,0,0,1,2.242,1.561,10.352,10.352,0,0,1,1.516,1.742,10.2,10.2,0,0,1,.99,2,16.764,16.764,0,0,1,.645,3.994c.016.3.027.594.038.891-.012.027-.021.055-.033.082a9.94,9.94,0,0,1-.956,1.382,11.651,11.651,0,0,1-1.586,1.366,13.128,13.128,0,0,1-2.2,1.108,11.84,11.84,0,0,1-2.112.4,12.961,12.961,0,0,1-2.5-.173,24.781,24.781,0,0,1-4.8-1.882,35.769,35.769,0,0,1-3.056-1.87c-1.026-.685-2.067-1.353-3.083-2.057-.387-.269-.772-.543-1.156-.816,0-.184-.009-.366-.01-.55,0-.848-.007-1.7.014-2.55h-.007c-.094.969-.19,1.939-.267,2.911-.389-.276-.781-.546-1.172-.818a3.166,3.166,0,0,1,.016-.364l-.026-.049c0,.064,0,.127,0,.191s0,.141,0,.212c-.214-.148-.425-.3-.641-.445q-1.6-1.083-3.2-2.158l0,0c1.025,1.424,2.059,2.842,3.086,4.263.612.848,1.232,1.685,1.876,2.5,0,.022,0,.042,0,.063.035.427.067.85.14,1.273a8.266,8.266,0,0,0,.688,2.256,8.4,8.4,0,0,0,1.534,2.117c.118.123.238.245.358.366.1.1.215.192.322.287a9.169,9.169,0,0,0,1.09.864,8.2,8.2,0,0,0,1.574.792,9.838,9.838,0,0,0,1.5.459,5.063,5.063,0,0,0,1.028.118c.042,0,.085,0,.127,0,.226-.008.45-.029.675-.058.254-.032.51-.064.76-.119.139-.032.278-.062.417-.1a12.96,12.96,0,0,0,2.2.529,13.109,13.109,0,0,0,1.993.143c.51,0,1.022-.025,1.537-.068a10.171,10.171,0,0,0,1.739-.263,15.57,15.57,0,0,0,1.853-.611,14.307,14.307,0,0,0,2.387-1.258c0,.584,0,1.168-.007,1.752l0,0,0,0c.083-.642.173-1.283.258-1.925.126-.084.253-.166.377-.254a12.981,12.981,0,0,0,2.591-2.479,8.017,8.017,0,0,0,.825-1.193,13.852,13.852,0,0,0,.842-1.733,11.731,11.731,0,0,0,.561-2.121,9.189,9.189,0,0,0,.155-1.57,12.3,12.3,0,0,0-.452-3.581A14.645,14.645,0,0,0,133.1,63.056ZM120.664,31.441a6.41,6.41,0,0,1,1.5-.308,9.687,9.687,0,0,1,2.221.191,14.406,14.406,0,0,1,1.933.59,19.722,19.722,0,0,1,1.865.793,10.934,10.934,0,0,1,1.032.588,10.13,10.13,0,0,1,1,.746,8.089,8.089,0,0,1,1.125,1.3,8.257,8.257,0,0,1,.722,1.486,5.031,5.031,0,0,1,.186,1.021c.007.131.012.264.006.395a3.756,3.756,0,0,1-.05.473,5.494,5.494,0,0,1-.374,1.015,10.405,10.405,0,0,1-1.234,1.789,7.512,7.512,0,0,0,.388-1.768,6.779,6.779,0,0,0-.379-3.044,7.067,7.067,0,0,0-1.532-2.44,9.1,9.1,0,0,0-2.749-1.941,9.595,9.595,0,0,0-6.54-.514A9.078,9.078,0,0,1,120.664,31.441Zm3.8,28.967c-.4-.185-.814-.367-1.221-.547-.379-.167-.755-.34-1.131-.51-.293-.135-.581-.287-.869-.434-.348-.188-.7-.374-1.034-.577-.2-.121-.411-.235-.608-.363a11.056,11.056,0,0,1-1.157-.873c-.5-.45-.953-.941-1.414-1.428-.361-.381-.722-.768-1.059-1.171l-.664-.791c-.2-.239-.378-.5-.566-.745-.288-.378-.555-.77-.824-1.16.136.115.274.228.415.337.414.323.841.626,1.277.918.879.59,1.745,1.2,2.611,1.808.948.664,1.9,1.327,2.8,2.047.77.61,1.525,1.235,2.264,1.882s1.431,1.345,2.108,2.056C125.085,60.705,124.777,60.552,124.463,60.408ZM117.179,80.92a8.249,8.249,0,0,1-1.623-.106,7.768,7.768,0,0,1-1.658-.6l-.577-.293a8.93,8.93,0,0,1-.993-.622c-.259-.193-.507-.4-.748-.609-.18-.168-.359-.336-.54-.5s-.321-.328-.481-.491-.291-.318-.435-.478a10.31,10.31,0,0,1-.8-1.014,7.676,7.676,0,0,1-.8-1.643c-.086-.26-.162-.524-.231-.789.087.1.17.208.257.311a34.706,34.706,0,0,0,3.465,3.646,18.907,18.907,0,0,0,4.27,2.786c.3.148.615.281.928.4A.183.183,0,0,0,117.179,80.92Z"/>
    <path d="M161.223,72.755a.28.28,0,0,0-.168-.046.873.873,0,0,0-.339-.109,8.584,8.584,0,0,0-1.262-.06,24.674,24.674,0,0,0-2.475.174c-.668.077-1.334.18-2,.261-.017-.012-.033-.026-.048-.037a10.152,10.152,0,0,0-1.619-1.086,5.43,5.43,0,0,0-2.866-.7,8.579,8.579,0,0,0-1.09.172c.028-.1.062-.209.09-.314.239-.892.438-1.789.609-2.7.062-.332.113-.664.16-1,.043-.037.088-.072.13-.111a5.758,5.758,0,0,0,.692-.7,6.7,6.7,0,0,0,.655-.892,3.755,3.755,0,0,0,.452-2.555,7.486,7.486,0,0,0-.231-.867c.052-.181.1-.364.157-.547a14.887,14.887,0,0,0,.611-3.114,19.694,19.694,0,0,0-.056-3.194,15.121,15.121,0,0,0-.2-1.544,11.644,11.644,0,0,0-.417-1.552c-.107-.31-.215-.616-.33-.922a4.031,4.031,0,0,0-.223-.47c-.021-1.849-.045-3.7-.082-5.549-.033-1.7-.1-3.4-.155-5.1q-.042-1.488-.085-2.975c-.008-.318-.025-.636-.04-.957.3,0,.6,0,.9,0q1.435,0,2.87,0c.1,0,.209,0,.314,0,.544,0,1.09,0,1.634-.047a1.833,1.833,0,0,0,1.25-.409l0-.007a1.09,1.09,0,0,1-.279-.019,8.063,8.063,0,0,1-1.118-.415c-.472-.2-.95-.377-1.436-.539a11.587,11.587,0,0,0-3.256-.621,21.191,21.191,0,0,0-3.336.226c-1.32.168-2.639.385-3.966.5a6.334,6.334,0,0,1-1.45,0l-.066-.035,0-.011.037-.053c.1-.084.192-.16.294-.236a4.042,4.042,0,0,1,.8-.44l.242-.05h0l.056,0a0,0,0,1,0,0-.007,2.179,2.179,0,0,0-1.211.317c-.252.127-.7.284-.589.664.06.2.324.348.5.419a6.818,6.818,0,0,0,1.228.318,16.982,16.982,0,0,0,1.741.24c1.478.127,2.955.206,4.44.21-.015.069-.029.137-.045.206-.187.8-.379,1.609-.568,2.413-.4,1.719-.8,3.442-1.19,5.164-.012.053-.022.106-.034.159l-.039-.457a14.319,14.319,0,0,1,.147-3.67c.128-.574.3-1.136.416-1.712a9.263,9.263,0,0,0,.132-.964c.012-.144.022-.289.026-.432a4,4,0,0,1,.022-.439v0h0s.008,0,.008,0l-.009-.01-.006,0a.391.391,0,0,0-.022.117l-.024.186c-.017.119-.036.238-.057.356l0-.01a6.361,6.361,0,0,1-.227.849c-.1.279-.218.551-.334.822a11.549,11.549,0,0,0-.559,1.4,10.684,10.684,0,0,0-.31,1.619,12.24,12.24,0,0,0-.094,1.613c.009.579.043,1.153.095,1.727a9.515,9.515,0,0,0,.276,1.538c0,.016.009.031.013.047-.473,2.429-.846,4.88-1.1,7.337a78.759,78.759,0,0,0-.246,11.1c0,.121.007.241.01.361a5.115,5.115,0,0,0-.43.467,7.332,7.332,0,0,0-.848,1.228,4.158,4.158,0,0,0-.488,2.548,3.191,3.191,0,0,0,1.229,2.175,3.781,3.781,0,0,0,1,.453h0l0,0a4.291,4.291,0,0,1-.23-.441,3.569,3.569,0,0,1-.185-.629,4.376,4.376,0,0,1,.009-.573,4.861,4.861,0,0,1,.214-.755c.019.142.037.287.058.429.066.439.137.875.211,1.313l-.066.017s0,.008,0,.008l.068-.01q.182,1.068.4,2.132-.421.069-.843.141c-.694.12-1.382.264-2.072.409-1.3.275-2.6.611-3.918.793l-.243.006-.186-.043-.065-.054-.031-.037.069-.067c.551-.18,1.136-.27,1.7-.405.006,0,0-.007,0-.006-.339.055-.678.113-1.019.16l-.473.066a.8.8,0,0,0-.441.163.094.094,0,0,0-.04.124,1.2,1.2,0,0,0,.156.247.859.859,0,0,0,.277.123,1.919,1.919,0,0,0,.571.051c.187.006.376.01.564.012.682-.016,1.362-.078,2.043-.11.6-.029,1.2-.062,1.8-.09q-.528.117-1.056.229c-.332.069-.662.149-.993.225-.459.105-.923.2-1.377.327a6.791,6.791,0,0,0-1.419.563,4.242,4.242,0,0,0-1.175.9,2.592,2.592,0,0,0-.417.594,2.477,2.477,0,0,0-.268.638,1.5,1.5,0,0,0-.034.389,1.248,1.248,0,0,0,.064.326,1.607,1.607,0,0,0,.132.3,1.791,1.791,0,0,0,.192.263,2.167,2.167,0,0,0,1.168.7,2.017,2.017,0,0,0,.411.04,2.434,2.434,0,0,0,.271-.016,3.988,3.988,0,0,0,.714-.162c.516-.156,1.026-.326,1.539-.494,0,0,0-.009,0-.008q-.533.148-1.065.291c-.1.03-.206.057-.308.086a4.7,4.7,0,0,1-.829.166,2.547,2.547,0,0,1-.579-.031,1.97,1.97,0,0,1-.418-.138l0,0-.011,0,.009,0a2.741,2.741,0,0,1-.455-.309,2.326,2.326,0,0,1-.316-.356,1.572,1.572,0,0,1-.149-.288,1.7,1.7,0,0,1-.07-.31,1.14,1.14,0,0,1,.013-.254,1.766,1.766,0,0,1,.113-.338c.071-.136.143-.272.225-.4a2.7,2.7,0,0,1,.242-.331,3.975,3.975,0,0,1,.695-.612,7.114,7.114,0,0,1,1.511-.755c.356-.127.719-.224,1.083-.322.347-.094.69-.2,1.035-.3s.706-.2,1.058-.3.694-.208,1.039-.318l.037-.014.1,0c1.673-.05,3.338-.123,5-.3a33.288,33.288,0,0,0,4.256-.743.261.261,0,0,1,.03.02,3.111,3.111,0,0,0,.724.323,6.862,6.862,0,0,0,.736.165,5.963,5.963,0,0,0,1.026.1,4.151,4.151,0,0,0,.558-.037,3.167,3.167,0,0,0,.761-.19,3.5,3.5,0,0,0,.658-.359,5.232,5.232,0,0,0,.6-.455,2.694,2.694,0,0,0,.24-.238,1.681,1.681,0,0,0,.184-.238.645.645,0,0,0,.1-.535A.358.358,0,0,0,161.223,72.755ZM151.4,56.623c.063-1.228.076-2.457.073-3.685.059.146.117.291.173.439.105.316.2.631.277.955s.139.657.2.987c.115.615.193,1.236.252,1.859a17.357,17.357,0,0,1,.027,1.949,13.335,13.335,0,0,1-.265,1.865v0c-.08.373-.17.744-.256,1.117-.075-.22-.157-.438-.247-.651-.159-.38-.344-.747-.515-1.12C151.235,59.1,151.331,57.863,151.4,56.623Zm.978,16.7c-1.26.133-2.513.311-3.764.51q.363-1.139.683-2.287c.078-.011.155-.023.234-.031a4.711,4.711,0,0,1,2.915.493,7.947,7.947,0,0,1,1.316.819c.114.086.224.177.336.266C153.52,73.17,152.947,73.261,152.373,73.32Zm8.8-.152a1.118,1.118,0,0,1-.13.192,2.647,2.647,0,0,1-.429.368,5.3,5.3,0,0,1-.5.3,4.484,4.484,0,0,1-.549.256,3.345,3.345,0,0,1-.708.144,5.488,5.488,0,0,1-1.31-.1l.019,0-.023,0-.053-.01.042.007a6.508,6.508,0,0,1-.843-.225c.627-.166,1.254-.336,1.873-.526.341-.1.688-.182,1.028-.284a9.162,9.162,0,0,1,1.4-.356l.115.034a.475.475,0,0,1,.1.111A.508.508,0,0,1,161.173,73.168Z"/>
    <polygon points="208.085 32.576 208.086 32.576 208.085 32.577 208.093 32.574 208.085 32.574 208.084 32.577 208.084 32.577 208.085 32.576"/>
    <path d="M208.075,32.582h0l.01,0h0a.026.026,0,0,1-.02.008h0Z"/>
    <polygon points="208.084 32.578 208.084 32.577 208.084 32.578 208.084 32.578"/>
    <polygon points="208.084 32.577 208.085 32.577 208.085 32.577 208.084 32.577 208.084 32.577"/>
    <path d="M227.727,74.856a15.066,15.066,0,0,1-3.126,1.049,9.008,9.008,0,0,1-1.642.013,25.544,25.544,0,0,1-3.667-1.059c-.535-.185-1.071-.363-1.616-.519-1.026-.293-2.07-.526-3.114-.746-.687-.145-1.389-.256-2.088-.338a10.608,10.608,0,0,0-2.348-.09c-.155.018-.308.036-.459.057.117-.979.216-1.961.306-2.944.162-1.767.338-3.537.483-5.306.133-1.631.313-3.258.352-4.895q.032-1.248.042-2.5c.044-.119.088-.237.133-.356.17-.462.339-.923.5-1.388.071-.207.149-.411.213-.621q.119-.4.236-.8c.127-.435.213-.881.306-1.324.043-.2.063-.405.093-.606.034-.227.078-.456.095-.684.036-.453.081-.907.078-1.362,0-.274-.008-.547-.013-.821,0-.235-.033-.47-.051-.7-.031-.412-.078-.822-.124-1.232-.053-.476-.1-.953-.16-1.429-.062-.507-.129-1.01-.209-1.514-.072-.442-.181-.88-.287-1.315s-.221-.856-.333-1.281c-.024-.09-.049-.18-.076-.269-.035-.11-.062-.228-.1-.337s-.085-.224-.127-.338c-.011-.031-.024-.061-.037-.092a28.7,28.7,0,0,0,1.1-3.71,11.712,11.712,0,0,0,.274-2.729,5.926,5.926,0,0,0-.919-3.072,2.491,2.491,0,0,0-.747-.772,1.867,1.867,0,0,0-.595-.281,1.843,1.843,0,0,0-1.077.081,4.712,4.712,0,0,0-.54.25,1.507,1.507,0,0,0-.406.4,1.2,1.2,0,0,0-.234.744c0,.091.051.558.2.578,0,0,.011-.007.02-.007l-.019-.005v0l-.024-.016L208,32.538a.631.631,0,0,1-.056-.2h0a3.012,3.012,0,0,1-.022-.316c.016-.066.03-.133.045-.2.038-.066.078-.131.116-.2l.163-.154c.062-.033.125-.067.187-.1l.194-.041.189.013c.068.02.135.042.2.061a1.01,1.01,0,0,1,.12.069l.015.017c-.031.076-.053.152-.062.178a9.815,9.815,0,0,0-.261,1.363c-.022.156-.036.313-.053.467-.16.322-.326.642-.512.95-.286.479-.588.95-.855,1.439a14.274,14.274,0,0,0-1.039,2.233,9.508,9.508,0,0,0-.478,2.493,18.075,18.075,0,0,0,1.713,8.032c-.023-.057-.048-.115-.073-.171l.54,1.276c.106.252.209.5.313.758-.02.514-.044,1.028-.06,1.543-.055,1.783-.212,3.564-.292,5.349q-.115,2.532-.212,5.065l-.168.328a12.031,12.031,0,0,0-.684,1.749,15.444,15.444,0,0,0-.463,1.9c-.027.136-.044.277-.065.414-.028.183-.06.367-.081.55-.034.3-.072.6-.093.9,0,.06,0,.119-.009.179-.2.061-.392.119-.588.181-.687.215-1.37.452-2.059.662a35.294,35.294,0,0,1-3.638.938,16.68,16.68,0,0,1-3.586.138,15.1,15.1,0,0,1-3.142-.748,20.654,20.654,0,0,1-3.936-2.2,64.663,64.663,0,0,1-7.768-7.246c-.156-.358-.315-.715-.484-1.067-.157-.324-.316-.648-.49-.964q-.129-.238-.268-.471c-.095-.159-.2-.313-.3-.466a9.071,9.071,0,0,0-.658-.852,7.5,7.5,0,0,0-.707-.719,7.049,7.049,0,0,0-.855-.656,4.453,4.453,0,0,0-.426-.252c-.15-.075-.3-.139-.459-.2h0l-.005,0-.022-.007.009,0-.06-.023,0,0a2.54,2.54,0,0,0-.71-.194,3.505,3.505,0,0,0-.671.037c-.042.005-.083.015-.126.021-.178-.138-.359-.273-.541-.406-.01-.158-.022-.316-.033-.475q1.486-1.175,2.877-2.464.96-.885,1.9-1.791c.357-.345.724-.682,1.061-1.044.612-.663,1.231-1.324,1.834-2,.075-.043.152-.084.226-.129a11.177,11.177,0,0,0,1.869-1.25,4.34,4.34,0,0,0,.975-1.264,6.019,6.019,0,0,0,.284-.629l.129-.351c.033-.086.053-.178.079-.266.052-.172.1-.347.133-.524.017-.077.033-.155.049-.233.116-.108.233-.217.351-.325a9.495,9.495,0,0,0,.786-.806c.132-.151.257-.307.381-.465.1-.131.206-.271.3-.413.111-.17.223-.34.327-.513s.217-.371.321-.56c.18-.328.346-.665.512-1a5.228,5.228,0,0,0,.223-.563c.068-.188.119-.382.171-.575a7.544,7.544,0,0,0,.222-1.063A1.318,1.318,0,0,0,189.77,35a1.154,1.154,0,0,0-.084-.351,1.5,1.5,0,0,0-.165-.3.967.967,0,0,0-.132-.146.792.792,0,0,0-.177-.115,1.179,1.179,0,0,0-.469-.108.959.959,0,0,0-.423.106,1.438,1.438,0,0,0-.281.182,2.611,2.611,0,0,0-.288.268,4.339,4.339,0,0,0-.593.847c-.092.175-.187.352-.27.534-.173.378-.342.763-.48,1.157-.066.188-.132.375-.182.566-.052.208-.1.416-.15.625-.08.356-.138.717-.206,1.077-.011.054-.02.111-.031.168q-.993,1.157-2.089,2.226c-.764.747-1.544,1.481-2.359,2.176-.956.816-1.912,1.637-2.854,2.471q-1.541,1.239-3.046,2.519c-.337.27-.673.542-1.012.809-.175-2.5-.338-5-.516-7.5-.109-1.558-.255-3.112-.392-4.666.109-.161.218-.322.325-.483s.234-.329.349-.494a4.029,4.029,0,0,0,.327-.525,2.314,2.314,0,0,0,.24-.689,2.962,2.962,0,0,0,0-.916,2.18,2.18,0,0,0-.289-.788,1.355,1.355,0,0,0-1.076-.734.828.828,0,0,0-.109.009q.006-.278.021-.552l0,.019c.02-.186.037-.372.067-.558.018-.039.036-.079.053-.119l.071-.037a1.1,1.1,0,0,1,.144.146l0,0a2.9,2.9,0,0,1,.226.336s.01,0,.008-.006a2.116,2.116,0,0,0-.351-.527.025.025,0,0,0-.028-.006c.011,0-.1.023-.122.057a.653.653,0,0,0-.122.295c-.073.335-.134.671-.185,1.01a.564.564,0,0,0-.4.443,2.276,2.276,0,0,0,.025.527,5.348,5.348,0,0,1,.012,1.066v-.011a6.667,6.667,0,0,0-.068,1.017,0,0,0,0,0,.008,0c0-.068.007-.135.01-.2v0c.039-.389.132-.768.2-1.152-.049.484-.093.968-.135,1.453-.03.037-.062.072-.091.109a11.673,11.673,0,0,0-.956,1.371,8.723,8.723,0,0,0-.982,2.619,10.99,10.99,0,0,0-.166,2.834,32.575,32.575,0,0,0,1.188,5.9c-.022.426-.048.851-.064,1.277-.018.455-.025.909-.035,1.364-.167.092-.329.19-.5.278-.017.007-.035.013-.052.021a7.323,7.323,0,0,0-1.48-.459,8.775,8.775,0,0,0-1.022-.113,2.944,2.944,0,0,0-.522-.022,5.722,5.722,0,0,0-1.488.256,6.2,6.2,0,0,0-.885.4,3.233,3.233,0,0,0-.74.578,2.959,2.959,0,0,0-1,2.288,2.717,2.717,0,0,0,.429,1.362,1.676,1.676,0,0,0,.493.635c.21.164.425.32.648.467a2.609,2.609,0,0,0,1.331.3c.29-.047.578-.1.866-.151.154-.068.307-.14.459-.214.176-.08.352-.163.524-.251.241.057.476.124.712.2a14.455,14.455,0,0,1,2.179,1.178c-.034.249-.061.5-.084.75-.033.335-.071.67-.081,1.006a7.685,7.685,0,0,0,.048,1.094c.077.716.194,1.43.278,2.146.161,1.4.343,2.8.585,4.2.018.1.037.206.055.309.041.363.077.725.12,1.087.076.632.171,1.261.278,1.886-.006.018-.011.037-.017.055-.111.289-.223.578-.326.869l.006-.018c-.033.092-.068.184-.1.276l.016-.043a10.884,10.884,0,0,1-.638,1.4,7.924,7.924,0,0,0-.513,1.13l0,.008,0,0c.079-.1.158-.192.238-.287-.042.117-.088.234-.127.351a6.512,6.512,0,0,0-.29,1.289,6.969,6.969,0,0,1-.261,1.211,3.6,3.6,0,0,1-.266.516c-.035.043-.072.084-.11.123a3.44,3.44,0,0,1-.39.254,7.072,7.072,0,0,1-1.44.463v.01c.351.091.7.209,1.047.3l-.036.046,0,.007h0c.018-.016.036-.03.054-.045.027.007.054.017.082.023a4.1,4.1,0,0,0,1.006.136c.063,0,.126,0,.189,0a2.737,2.737,0,0,0,1.146-.375,3.115,3.115,0,0,0,1.1-1.029,3.792,3.792,0,0,0,.469-1.209,6.634,6.634,0,0,0,.155-1.166c.242.874.485,1.748.7,2.628l0,0,0,0c.141-1.078.252-2.163.308-3.249.062-1.189.058-2.379.1-3.568.1-3.12.233-6.237.177-9.356,0-.164-.01-.327-.013-.49,1.041.9,2.057,1.83,3.075,2.757,1.475,1.344,2.924,2.725,4.439,4.027,0,.339,0,.677.013,1.015.007.382.014.762.032,1.142a7.1,7.1,0,0,0,.121,1.107,4.954,4.954,0,0,0,.5,1.507,4.283,4.283,0,0,0,2.222,1.892,5.288,5.288,0,0,0,1.838.311,7.075,7.075,0,0,0,1.215-.11c.262-.046.524-.093.783-.156s.491-.129.734-.2.458-.138.686-.214l.748-.247c.12-.04.241-.077.36-.12.336-.119.677-.234,1.011-.361l.126-.049c.245.039.492.07.74.1a15.258,15.258,0,0,0,1.6.092,9.739,9.739,0,0,0,1.543-.115,15.46,15.46,0,0,0,2.972-.717,17.558,17.558,0,0,0,2.729-1.322c1.255-.729,2.459-1.539,3.655-2.36,0,.113-.014.226-.016.339,0,.154,0,.306,0,.458.007.174,0,.356.024.53.04.339.076.678.142,1.015s.144.686.226,1.027c.142.587.256,1.178.358,1.772-.121.083-.239.171-.353.266a4.819,4.819,0,0,0-1.219,1.472,1.872,1.872,0,0,0-.216.676,1.618,1.618,0,0,0-.01.3,1.736,1.736,0,0,0-.391,1.047,1.2,1.2,0,0,0,.878,1.039,1.986,1.986,0,0,0,.661.111A2.4,2.4,0,0,0,208.328,78a2.861,2.861,0,0,0,.351-.984c.062.312.123.625.191.936l0,0,0,0c.182-.829.348-1.659.482-2.5a14.788,14.788,0,0,1,2.479.829c2.138.936,4.2,2.021,6.393,2.839a10.074,10.074,0,0,0,1.485.427,12.182,12.182,0,0,0,2.336.3h.121a7.114,7.114,0,0,0,2.1-.274,10.082,10.082,0,0,0,1.189-.45,5.115,5.115,0,0,0,.712-.361,12.977,12.977,0,0,0,2.851-2.645c.74-.9,1.454-1.823,2.162-2.747l0-.006C230.02,73.839,228.877,74.354,227.727,74.856ZM210.656,42.075c.1-.309.208-.62.315-.93.014.041.028.082.04.126.039.132.078.264.106.4.061.287.112.572.152.865l0-.021c.109.8.215,1.612.251,2.423.037.849.031,1.7.044,2.543.006.427.019.852.023,1.278,0,.275.008.551.013.826,0,.219-.007.439-.008.658,0,.182,0,.362-.006.543q-.025.453-.046.905c-.019.417-.078.832-.112,1.249-.048.346-.1.692-.143,1.038,0-.034.009-.067.013-.1l-.005.04c-.03.22-.084.436-.124.655-.033.178-.062.358-.1.533-.072.338-.143.678-.215,1.016q0-.7-.023-1.4c-.048-1.844-.111-3.68-.224-5.52-.111-1.813-.319-3.619-.53-5.423C210.263,43.211,210.468,42.646,210.656,42.075ZM186.98,37.8c.057-.175.114-.348.176-.521.118-.29.24-.579.377-.86a8.36,8.36,0,0,1,.528-.971c.011-.015.025-.03.037-.046-.068.13-.134.257-.189.393-.063.155-.13.311-.179.47a3.9,3.9,0,0,0-.249,1.11c-.123.19-.251.376-.379.56-.078.107-.163.209-.242.314C186.9,38.1,186.934,37.949,186.98,37.8Zm1.222-2.149.057-.069a1.759,1.759,0,0,1,.006.206l-.06.243a7.828,7.828,0,0,1-.683,1.28,5.247,5.247,0,0,1,.205-.71A5.772,5.772,0,0,1,188.2,35.652Zm-1.99,5.636c.391-.607.757-1.229,1.088-1.87a17.576,17.576,0,0,0,1-2.193,4.571,4.571,0,0,0,.331-1.143.63.63,0,0,0,.012-.322,1.813,1.813,0,0,0-.128-.421.146.146,0,0,0-.216-.078,1.243,1.243,0,0,0-.147.079,2.943,2.943,0,0,1,.326-.352,1.738,1.738,0,0,1,.228-.152l.006,0a.323.323,0,0,1,.044,0c.022,0,.044.01.066.016a.242.242,0,0,1,.036.018l.013.013a1.1,1.1,0,0,1,.077.123.745.745,0,0,1,.03.091,2.3,2.3,0,0,1,0,.332c0,.079-.01.157-.016.235a9.6,9.6,0,0,1-.194,1.169c-.052.209-.108.415-.174.62-.053.169-.114.336-.173.5-.076.2-.152.4-.235.592-.074.177-.151.357-.24.527-.1.2-.209.4-.323.592-.1.164-.2.324-.308.482a8.543,8.543,0,0,1-.533.678c-.194.216-.4.422-.6.631C186.189,41.4,186.2,41.344,186.212,41.288Zm-2.1,2.927q.534-.684,1.047-1.389c-.045.114-.092.229-.137.343a4.062,4.062,0,0,1-.435.792,4.82,4.82,0,0,1-.777.831c-.146.121-.3.234-.451.347C183.609,44.835,183.862,44.527,184.107,44.215ZM172.331,41.1c-.153,1.595-.28,3.193-.39,4.792q-.084,1.237-.159,2.475a29.717,29.717,0,0,1-.143-5.457,12.487,12.487,0,0,1,.629-2.851c.061-.158.127-.313.193-.469C172.417,40.094,172.377,40.6,172.331,41.1Zm1.064-5.731c-.039-.589-.065-1.18-.069-1.768h0a.494.494,0,0,1,.079.041.769.769,0,0,1,.084.078,1.281,1.281,0,0,1,.09.136,2.379,2.379,0,0,1,.116.377,2.941,2.941,0,0,1,.009.338,2.9,2.9,0,0,1-.1.422,2.537,2.537,0,0,1-.185.34C173.414,35.347,173.4,35.357,173.4,35.369Zm6.365,23.047a53.28,53.28,0,0,0-3.94-3.618c-.123-.1-.248-.194-.373-.292a4.078,4.078,0,0,1,.585,0,1.7,1.7,0,0,1,.306.071c.2.077.394.159.586.251a4.293,4.293,0,0,1,.55.318,7.542,7.542,0,0,1,.7.567,8.226,8.226,0,0,1,1.441,1.77c.125.208.25.415.36.631.1.2.195.39.289.586l0,0c.063.132.12.267.178.4C180.216,58.871,179.99,58.641,179.76,58.416ZM192.035,73.58c-.342.1-.686.2-1.029.292-.614.171-1.228.335-1.855.449a9.926,9.926,0,0,1-1.058.132,6.674,6.674,0,0,1-1-.01,5.318,5.318,0,0,1-1.222-.269,4.281,4.281,0,0,1-.92-.485,4.468,4.468,0,0,1-.709-.672,4.4,4.4,0,0,1-.491-.757,3.949,3.949,0,0,1-.235-.737c-.024-.1-.043-.2-.064-.3-.021-.141-.041-.281-.054-.424s-.021-.259-.025-.388c-.008-.315,0-.632,0-.948s.008-.618.012-.928c.47.387.945.768,1.433,1.133a20.232,20.232,0,0,0,5.963,3.206,15.376,15.376,0,0,0,1.991.479C192.525,73.427,192.281,73.506,192.035,73.58ZM207.054,68.2c.026-.545.053-1.09.088-1.635.028-.435.083-.871.136-1.3.08-.494.162-.985.287-1.469.067-.26.145-.512.228-.767-.031.648-.072,1.3-.1,1.945-.041.961-.052,1.913-.028,2.877,0,.065.007.13.009.2l-.622.191Zm0,.3.628-.432c.025.737.076,1.473.129,2.208.065.9.14,1.805.242,2.7.024.207.053.413.078.619-.025.01-.051.016-.076.026a6.333,6.333,0,0,0-.658.318l0-.066a9.374,9.374,0,0,0-.051-1.059c-.038-.387-.09-.773-.147-1.159-.027-.206-.055-.414-.084-.621-.041-.458-.087-.915-.083-1.376C207.032,69.278,207.037,68.89,207.049,68.5Zm1.371,8.669a3.143,3.143,0,0,1-.245.429,2.86,2.86,0,0,1-.4.405,2.676,2.676,0,0,1-.405.242,2.929,2.929,0,0,1-.59.162,2.685,2.685,0,0,1-.411,0,2.261,2.261,0,0,1-.335-.088,2.071,2.071,0,0,1-.261-.153c-.033-.03-.065-.061-.095-.093l-.041-.064c-.01-.032-.018-.063-.025-.095a.733.733,0,0,1,0-.124c.008-.035.019-.07.029-.105l.105.062a1.239,1.239,0,0,0,.364.329.736.736,0,0,0,.378.088c.08,0,.161-.007.243-.015v-.009a1.576,1.576,0,0,1-.339-.086.65.65,0,0,1-.126-.07c-.019-.015-.037-.034-.056-.051a2.975,2.975,0,0,0,.743.023,0,0,0,0,0,0-.008c-.124-.012-.25-.024-.374-.038h0a1.35,1.35,0,0,1-.417-.113,1.377,1.377,0,0,1-.155-.1,1.442,1.442,0,0,1-.136-.226,1.171,1.171,0,0,1-.037-.166,1.245,1.245,0,0,1,.006-.161c.215-.418.467-.816.713-1.217.021-.034.043-.065.064-.1.095-.055.19-.106.29-.155s.176-.06.264-.089c.034.244.069.488.1.732l0,0,.006,0c.015-.26.027-.52.041-.781.191-.057.385-.105.586-.145.155-.015.309-.018.462-.021q.1.63.221,1.256A5.241,5.241,0,0,1,208.42,77.172Zm.773-45.661.01.007L209.2,31.5l.007.018.042.033-.04-.03,0,.014-.006-.014-.011-.009Zm.066.632a5.6,5.6,0,0,1-.232.8c.012-.331.03-.661.067-.989a4.258,4.258,0,0,1,.095-.425l.049.082c.012.037.022.074.032.112C209.273,31.863,209.27,32,209.259,32.143Z"/>
    <path d="M263.15,42.643c-.192-.685-.4-1.374-.636-2.055.021-.1.041-.192.057-.287a5.9,5.9,0,0,0,.03-1.72,4.964,4.964,0,0,0-.352-1.382,6.717,6.717,0,0,0-.756-1.221,9.576,9.576,0,0,0-1.038-1l.006,0c-.045-.045-.091-.091-.135-.137l-.027-.055.006-.013.016-.015.077-.01h0c.084,0,.166-.007.25-.012a0,0,0,0,0,0-.008c-.11,0-.22-.008-.329-.006-.029,0-.058.038-.064.064s.017.066.034.089a3.732,3.732,0,0,0,.255.309,7.962,7.962,0,0,1,.641.8,5.937,5.937,0,0,1,.509,1.06,4.361,4.361,0,0,1,.194,1,6.858,6.858,0,0,1-.021.9c-.1-.227-.21-.453-.325-.676A16.442,16.442,0,0,0,259.92,35.7l0-.007c-.07-.083-.143-.167-.215-.251s-.153-.2-.236-.289c-.191-.212-.393-.431-.608-.639a8.291,8.291,0,0,0-.654-.608,16.861,16.861,0,0,0-1.552-1.075,11.08,11.08,0,0,0-1.408-.747,14.31,14.31,0,0,0-3.57-1.079,20.013,20.013,0,0,0-3.4-.243c-.261,0-.523.011-.784.028a19.522,19.522,0,0,0-2.433.323c-.084.016-.167.041-.251.065.683-.819,1.368-1.635,2.072-2.434l0,0a4.192,4.192,0,0,1,.567-.547l.059-.017.008.012c0,.017,0,.032,0,.047s.007.007.008,0a.118.118,0,0,0,0-.072l-.009,0a1.112,1.112,0,0,0-.45.26l-.307.236-.754.586c-.5.389-1,.776-1.5,1.157-1.013.768-2.054,1.494-3.11,2.2-.243.162-.485.329-.727.494a29.472,29.472,0,0,1,1.491-3.445,18.642,18.642,0,0,1,2.408-3.652,7.484,7.484,0,0,1,1.025-.9A2.349,2.349,0,0,1,246,24.9a1.372,1.372,0,0,1,.331-.055l.169.015c.036.016.073.03.109.043s.069.049.1.075c.034.046.068.093.1.14.018.047.037.092.057.139a3.437,3.437,0,0,1,.134.482s.008,0,.01,0a1.777,1.777,0,0,0-.087-.914c-.133-.373-.668-.445-.993-.468a5.04,5.04,0,0,0-1.592.423,15.846,15.846,0,0,0-2.406,1.61,26.518,26.518,0,0,0-4.235,4.488c-.355.471-.693.951-1.013,1.445-.343.532-.725,1.043-1.033,1.6q-.608,1.1-1.2,2.211c-.533,1.014-.97,2.055-1.428,3.125-.114.267-.222.537-.319.81-.27.762-.533,1.528-.765,2.3-.13.44-.288.881-.4,1.328-.159.387-.312.776-.463,1.165a38.148,38.148,0,0,0-1.267,3.83c-.427,1.59-.756,3.207-1.1,4.812a23.446,23.446,0,0,0-.434,2.786,20.558,20.558,0,0,0,.144,6.47A18.412,18.412,0,0,0,229.966,67c.636,1.25,1.275,2.494,1.843,3.777l0,0,0,0c-.5-1.389-1.023-2.768-1.528-4.157-.11-.333-.218-.668-.326-1-.1-.314-.165-.642-.244-.963-.076-.3-.118-.619-.17-.927-.089-.52-.147-1.041-.184-1.567a13.266,13.266,0,0,1,.039-2.052c.035-.322.088-.64.138-.96.071-.459.162-.915.251-1.371.079-.345.157-.689.237-1.034.082-.366.2-.725.3-1.087.06-.216.131-.431.2-.644.038.392.081.784.136,1.174a29.172,29.172,0,0,0,1.681,6.4,28,28,0,0,0,1.894,4.242,32.76,32.76,0,0,0,2.453,3.614c-.6.089-1.206.221-1.816.271a3.994,3.994,0,0,1-.853-.06,6.193,6.193,0,0,1-1.072-.4,4.781,4.781,0,0,1-.939-.641,4.718,4.718,0,0,1-.581-.665,4.415,4.415,0,0,1-.5-1.014v0a2.26,2.26,0,0,1-.068-.319,1.4,1.4,0,0,1,.01-.242v0a.3.3,0,0,1,.027-.092h0l.009-.011.021-.01s0-.008,0-.008a.057.057,0,0,0-.037.023.354.354,0,0,0-.037.092,1.086,1.086,0,0,0-.029.355,2.7,2.7,0,0,0,.191.786,5.216,5.216,0,0,0,.535,1.053,6.79,6.79,0,0,0,2.194,1.92,5.208,5.208,0,0,0,1.517.385c.642.058,1.29.078,1.935.095.258.008.517,0,.776-.013.326.357.659.708,1,1.044.657.638,1.336,1.267,2.05,1.842a11.229,11.229,0,0,0,1.414,1,9.671,9.671,0,0,0,2.1.992,13.989,13.989,0,0,0,1.5.342,5.279,5.279,0,0,0,.663.077c.066.077.136.153.2.232.121.15.246.3.377.439.1.108.2.211.3.313a2.637,2.637,0,0,0,.606.423h0l0,0a3.2,3.2,0,0,1-.387-.444,8.637,8.637,0,0,1-.512-.97,8.123,8.123,0,0,0,2.262-.35l.191-.065a5.306,5.306,0,0,0,2.343.654c.067,0,.133,0,.2-.005a4.124,4.124,0,0,0,1.481-.307,3.059,3.059,0,0,0,1.115-.743,5.931,5.931,0,0,0,1.222-2.112c.055-.166.12-.332.163-.5q.074-.282.145-.565a11.778,11.778,0,0,0,.216-1.228c.024-.159.045-.318.056-.481l.025-.332c.325-.423.642-.855.935-1.308a38.167,38.167,0,0,0,4.765-11c.384-1.494.716-3.008.969-4.529a35.273,35.273,0,0,0,.491-3.8,29.21,29.21,0,0,0-.4-6.487C263.41,43.67,263.259,43.031,263.15,42.643Zm-6.957,29.843c-.069.2-.13.4-.212.594s-.149.382-.24.563c-.078.156-.153.314-.239.466a6.909,6.909,0,0,1-.8,1.136,4.322,4.322,0,0,1-.654.585,3.213,3.213,0,0,1-.511.248,4.289,4.289,0,0,1-.911.182,4.966,4.966,0,0,1-1.054-.076c-.065-.016-.13-.036-.194-.053.1-.055.2-.107.3-.168a15.086,15.086,0,0,0,3.155-2.549c.557-.607,1.095-1.225,1.6-1.865A8.383,8.383,0,0,1,256.193,72.486Zm.421-18.777a40.481,40.481,0,0,1-3.082,8.967c-.342.644-.7,1.279-1.085,1.9-.035-.361-.065-.722-.094-1.085-.033-.706-.076-1.407-.077-2.114,0-.437-.015-.876,0-1.313.017-.535.04-1.07.095-1.6s.129-1.045.219-1.564q.157-.738.311-1.478l-.039.19a18.837,18.837,0,0,1,1.366-3.847,8.9,8.9,0,0,1,.939-1.48c.149-.185.3-.372.449-.554.33-.4.667-.792,1-1.184.171-.192.34-.386.517-.573.1-.1.2-.2.3-.307A51.359,51.359,0,0,1,256.614,53.709Zm.935-8.317c-.442.385-.879.774-1.3,1.183-.579.563-1.134,1.154-1.661,1.766-.423.493-.832.991-1.235,1.506a18.107,18.107,0,0,0-1.055,2.227,15.834,15.834,0,0,0-.521,1.7c-.125.509-.251,1.029-.325,1.549-.064.452-.128.9-.189,1.355a19.544,19.544,0,0,0,.019,4.49,11.349,11.349,0,0,0,.177,1.409,4.386,4.386,0,0,1,.087.6,14.98,14.98,0,0,0,.277,1.611c.036.191.079.381.124.57a26.055,26.055,0,0,1-1.815,2.44,14.7,14.7,0,0,1-1.841,1.678,8.229,8.229,0,0,1-.785.408c-.179.041-.361.076-.544.1a7.021,7.021,0,0,1-.712-.243,15.443,15.443,0,0,1-2.1-1.525,26.324,26.324,0,0,1-3.576-4.111,28.833,28.833,0,0,1-2.673-5.623,26.877,26.877,0,0,1-1.207-5.871,38.453,38.453,0,0,1,.19-5.031c.076-.831.2-1.649.324-2.474.072-.361.142-.723.233-1.077.175-.681.351-1.362.51-2.049.1-.423.214-.841.333-1.26.1-.363.191-.732.283-1.1q.514-.81,1.026-1.621c.337-.534.677-1.065,1.031-1.588A12.321,12.321,0,0,1,242.93,33.8c.959-.84,4.153-1.262,5.365-.874a20.365,20.365,0,0,1,4.079,1.91,15.863,15.863,0,0,1,2.46,2.106,19.446,19.446,0,0,1,2.334,3.573c.059.119.114.24.17.361q.111.8.175,1.613C257.561,43.455,257.571,44.424,257.549,45.392Z"/>
    <polygon points="270.109 68.465 270.11 68.464 270.109 68.465 270.109 68.465"/>
    <path d="M298.436,50.648a2.243,2.243,0,0,0-.719-1.214,1.908,1.908,0,0,0-1.613-.518,2.655,2.655,0,0,0-1.229.76,5.213,5.213,0,0,0-.489.582,5.348,5.348,0,0,0-.311.468c-.1.17-.2.34-.3.514l-.025.047a12.469,12.469,0,0,1-1.959-.072c-.737-.111-1.47-.244-2.206-.358-.416-.062-.832-.121-1.248-.19-.252-.25-.508-.494-.776-.729-.087-.075-.181-.141-.271-.211s-.191-.156-.291-.223c-.2-.139-.408-.27-.619-.395a3.617,3.617,0,0,0-.407-.2,7.408,7.408,0,0,0-.908-.352,3.867,3.867,0,0,0-1.378-.162,6.487,6.487,0,0,0-.866.142,5.171,5.171,0,0,0-1.734.817c-.081.057-.16.118-.24.178-.233-2.215-.527-4.422-.9-6.622-.259-1.55-.6-3.084-.94-4.616-.254-1.157-.493-2.32-.7-3.487a20.84,20.84,0,0,1,3.537.143c1.038.15,2.07.34,3.1.507l-.018.006c-.162.043-.322.087-.484.132-.346.093-.694.164-1.045.238-.282.058-.57.091-.853.135a12.812,12.812,0,0,1-2.312.166c-.468-.03-.935-.059-1.4-.116-.006,0-.007.008,0,.008.424.088.849.155,1.278.223a8.641,8.641,0,0,0,1.344.091c.239,0,.477-.006.717-.013.395-.012.79-.038,1.184-.064.173-.012.346-.04.518-.061.155-.02.312-.035.465-.063.338-.064.676-.124,1.01-.206s.659-.175.988-.274c.178.023.357.05.537.069,1.263.138,2.529.224,3.8.248a23.253,23.253,0,0,0,2.928-.067,13.537,13.537,0,0,0,2.71-.5,10.157,10.157,0,0,0,2.192-.945,12.737,12.737,0,0,0,2.818-2.431,9.386,9.386,0,0,0,1.078-1.448s0-.006,0,0a10.668,10.668,0,0,1-1.21.605c-.5.192-1,.393-1.5.568-.275.095-.55.182-.828.264-.039-.029-.076-.058-.115-.086a5.231,5.231,0,0,0-.711-.455,8.246,8.246,0,0,0-2.8-.918c-.17-.027-.346-.047-.517-.059a4.331,4.331,0,0,0-.764-.013,4.385,4.385,0,0,0-1.684.6c-.3.174-.59.353-.873.552a9.207,9.207,0,0,0-.773.624l-.221.19c-.3-.017-.6-.03-.894-.048q-2.055-.114-4.111-.084c-1.243.02-2.486.055-3.721.2a18.567,18.567,0,0,0-3.613.788c-.011-.075-.024-.15-.034-.224a11.238,11.238,0,0,1-.1-2.458,2.717,2.717,0,0,1,.074-.324c.021-.042.045-.083.066-.123l.106-.062.085.04a4.86,4.86,0,0,1,.5.57h0c.053.069.1.137.157.207l.006,0c-.139-.2-.285-.393-.43-.586a1.347,1.347,0,0,0-.195-.251c-.153-.111-.1-.091-.3-.031-.1.031-.2.255-.235.34a6.635,6.635,0,0,0-.339,1.293c-.114.637-.2,1.282-.252,1.924-.289.11-.576.223-.858.346a20.107,20.107,0,0,0-3.781,2.181c-.259.188-.508.375-.756.575a3.049,3.049,0,0,0-.464.405c-.063.078-.067.055-.075.106l0,.006h0a.005.005,0,0,0,0-.009l0-.009.078-.075a12.083,12.083,0,0,1,2.443-1.3,14.653,14.653,0,0,1,3.286-.908l-.009.111,0,.005c-.168.263-.321.535-.481.8s-.338.546-.5.824a15.465,15.465,0,0,0-.949,1.8,6.85,6.85,0,0,0-.468,1.376,7.458,7.458,0,0,0-.166,1.666,8.9,8.9,0,0,0,.195,1.356q.11.549.215,1.1c.139.716.242,1.444.408,2.157.083.358.17.716.282,1.067a9.627,9.627,0,0,0,.526,1.2c.067.139.138.274.207.411,0,.134,0,.269,0,.4.007.539.023,1.08.04,1.621a8.165,8.165,0,0,0-3.078,1.819,5.517,5.517,0,0,0-1.152,1.538,2.191,2.191,0,0,0-.3,1.356,1.087,1.087,0,0,0,.2.473.842.842,0,0,0,.4.216.35.35,0,0,0,.108.014,1.571,1.571,0,0,0,.474-.1,3.067,3.067,0,0,0,.478-.214l0-.008a3.48,3.48,0,0,1-.507.1l-.237.021-.238-.034-.132-.082-.083-.1c-.014-.049-.026-.1-.039-.144,0-.063,0-.124,0-.185a1.358,1.358,0,0,1,.1-.347,2.331,2.331,0,0,1,.218-.365,5.575,5.575,0,0,1,.821-.826,7.217,7.217,0,0,1,1.25-.711,9.922,9.922,0,0,1,1.793-.484q.014.477.023.954c.033,1.978.056,3.957.154,5.932.168,3.449.537,6.888,1.01,10.309-.017.033-.035.065-.051.1-.079.152-.15.306-.225.459-.066.133-.132.266-.193.4-.165.366-.327.732-.48,1.1-.135.329-.268.659-.386.994-.083.241-.173.48-.235.727a6.318,6.318,0,0,0-.195,1.487,7.8,7.8,0,0,0,.138,1.542,5.283,5.283,0,0,0,.455,1.42,4.038,4.038,0,0,0,2.064,1.9,5.551,5.551,0,0,0,1.186.328c.214.037.43.069.647.1V80.51a7.38,7.38,0,0,1-1.515-.412l.012.006a4.537,4.537,0,0,1-.943-.543,4.407,4.407,0,0,1-.69-.682,3.969,3.969,0,0,1-.491-.836,5.817,5.817,0,0,1-.358-1.416,8.49,8.49,0,0,1-.076-1.066,8.3,8.3,0,0,1,.066-1.022,5.824,5.824,0,0,1,.155-.787c.034-.123.071-.244.11-.366.061-.183.121-.364.188-.543.058-.161.115-.32.179-.478l.233-.582c.128-.289.25-.583.387-.869.038-.083.077-.165.117-.248.2,1.436.433,2.87.749,4.285.36,1.624.786,3.233,1.151,4.856l0,0,0,0c.285-1.647.609-3.284.87-4.934a78.735,78.735,0,0,0,.943-10.441c.006-.319.009-.637.015-.955.2-.465.386-.93.56-1.4q.115-.313.229-.627c.062-.166.11-.337.163-.505a9.356,9.356,0,0,0,.245-.973c.036-.17.075-.341.1-.514.021-.129.04-.262.061-.393.008-.062.02-.123.026-.185l.06-.63a6.1,6.1,0,0,0,.015-.676,5.872,5.872,0,0,0-.04-.637l0,.027c-.019-.161-.042-.32-.061-.48-.016-.118-.039-.233-.06-.348s-.041-.244-.07-.364c-.041-.175-.083-.35-.123-.525a5.193,5.193,0,0,0-.271-.812,6.577,6.577,0,0,0-.422-.828,4.282,4.282,0,0,0-.354-.536,1.013,1.013,0,0,0-.263-.234c.022,0,.046.006.067.008,1.346.152,2.692.31,4.039.458.991.108,1.991.223,2.987.248.563.014,1.127.018,1.689.016a5.858,5.858,0,0,0,1.393.564c.189.047.381.086.572.121a4.3,4.3,0,0,1-.365.319l.006-.006a7.056,7.056,0,0,1-.858.565l0,.008h0c.113-.056.221-.116.33-.177.081-.047.16-.1.24-.146a5.412,5.412,0,0,0,.46-.315c.1-.074.191-.15.28-.231.087.014.172.031.259.044l.214.023a2.387,2.387,0,0,0,2.389,1.183,5.235,5.235,0,0,0,.809-.064,4.039,4.039,0,0,0,2.363-1.167,3.324,3.324,0,0,0,.784-1.348A2.955,2.955,0,0,0,299,51.787,2.263,2.263,0,0,0,298.436,50.648ZM293.5,31.521a3.094,3.094,0,0,1,.626-.181,10.129,10.129,0,0,1,2.174.017c.342.054.679.115,1.015.2a8.942,8.942,0,0,1,.97.306h0c.149.065.3.13.443.2a16.762,16.762,0,0,1-2.121.475,25.143,25.143,0,0,1-4.791,0l-.039,0A10.093,10.093,0,0,1,293.5,31.521Zm-16.759,7.087c-.12,1.224-.195,2.453-.254,3.681,0-.011-.006-.021-.009-.031-.1-.343-.191-.681-.257-1.029a9.779,9.779,0,0,1,.01-2.17,14.325,14.325,0,0,1,.55-2.083c.052-.163.105-.326.155-.488C276.874,37.2,276.811,37.9,276.742,38.608Zm4.57,14.283a1.233,1.233,0,0,1,.146.152h0a4.139,4.139,0,0,1,.334.533c.1.19.2.379.285.576.074.178.145.358.2.542s.108.357.144.538c.027.142.055.284.082.426.05.258.083.516.122.774a.1.1,0,0,0,0-.024,9.863,9.863,0,0,1,.07,1.3q-.007.363-.05.725c-.016.151-.032.3-.049.452-.031.184-.063.368-.092.552-.027.157-.067.314-.1.468s-.07.3-.11.457-.075.293-.122.438c-.037.115-.075.232-.114.348-.021.064-.038.128-.064.192-.07.181-.137.364-.207.546-.1.27-.213.538-.318.808.014-1.052.022-2.105.015-3.158-.007-.921-.009-1.845-.06-2.765-.057-1.051-.135-2.1-.2-3.151-.018-.263-.043-.527-.064-.791l.075.008A.94.94,0,0,1,281.312,52.891Zm4.395-2.615a25.888,25.888,0,0,0-3.426-.28q-.687,0-1.379.028c0-.016,0-.032,0-.047a7.3,7.3,0,0,1,.664-.342,6.432,6.432,0,0,1,1.065-.3,5.815,5.815,0,0,1,1.209-.022,4.146,4.146,0,0,1,.812.219,5.687,5.687,0,0,1,.872.463c.154.1.3.209.454.319C285.885,50.3,285.8,50.288,285.707,50.276Zm6.139,3.216c.264-.027.527-.064.785-.113-.063.11-.13.218-.2.324C292.235,53.635,292.04,53.566,291.846,53.492Zm5.554-1.938a3.257,3.257,0,0,1-.262.425,4.768,4.768,0,0,1-.544.52,17.108,17.108,0,0,1-2.182,1.393l-.117.01a7.283,7.283,0,0,1-1.033.032,5.133,5.133,0,0,1-.717-.194c.053-.075.1-.152.154-.23.033-.055.065-.11.1-.164a6.586,6.586,0,0,0,.685-.186,10.734,10.734,0,0,0,1.879-.817c.325-.185.651-.366.973-.554.385-.221.762-.455,1.135-.7,0,.049,0,.095,0,.144C297.451,51.346,297.43,51.448,297.4,51.554Zm-.757-1.5s0,.009,0,.008h.01a.815.815,0,0,1,.171,0c.051.01.1.021.147.036a.612.612,0,0,1,.152.084.969.969,0,0,1,.17.186,1.353,1.353,0,0,1,.106.212,1.73,1.73,0,0,1,.066.234c0,.02,0,.04,0,.059-.924.121-1.852.222-2.776.348q-.333.038-.668.057c.17-.278.345-.554.542-.815a4.758,4.758,0,0,1,.767-.793,2.911,2.911,0,0,1,.545-.328,1.851,1.851,0,0,1,.352-.1,1.569,1.569,0,0,1,.314,0,2.1,2.1,0,0,1,.352.108,2.753,2.753,0,0,1,.509.3,2.524,2.524,0,0,1,.391.389c.05.068.094.139.137.211A1.483,1.483,0,0,0,296.643,50.053Z"/>
    <path d="M292.353,54.309h0l-.017,0Z"/>
    <path d="M275.111,38.508l.014-.029c.016-.037.031-.076.046-.114Z"/>
    <path d="M346.408,31.59c.149-.113.293-.233.436-.352.2-.163.413-.318.6-.5a2.184,2.184,0,0,0,.28-.32,1.139,1.139,0,0,0,.133-.31.966.966,0,0,0-.078-.74,1.443,1.443,0,0,0-.488-.544,2.319,2.319,0,0,0-.673-.3,3.485,3.485,0,0,0-.926-.112,4.24,4.24,0,0,0-.857.107,5.666,5.666,0,0,0-1.5.608,7.123,7.123,0,0,0-1.348,1.022,8.089,8.089,0,0,0-.994,1.184,14,14,0,0,0-1.2,2.245,33.146,33.146,0,0,1-5.924.944c-2.775.143-5.535-.109-8.3-.241-1.552-.075-3.107-.1-4.661-.13-1.027-.019-2.048-.043-3.078,0a43.875,43.875,0,0,0-7.172.792,45.645,45.645,0,0,0-6.566,1.853q-1.583.575-3.109,1.281c-.287.131-.567.274-.842.424a8.977,8.977,0,0,0-1.695.527,3.878,3.878,0,0,0-1.063.662,1.919,1.919,0,0,0-.369.506,1.572,1.572,0,0,0-.173.565c0,.092.012.182.021.271a1.58,1.58,0,0,0,.08.27,1.472,1.472,0,0,0,.3.515,2.537,2.537,0,0,0,1.135.633,3.669,3.669,0,0,0,.752.125c.083,0,.167,0,.251,0,.177,0,.353-.007.527-.023a5.614,5.614,0,0,0,1.517-.36,14.944,14.944,0,0,0,3.328-2.1,4.643,4.643,0,0,1,.58-.327,4.337,4.337,0,0,1,.69-.124c.83-.041,1.663-.06,2.494-.075.3-.005.607-.015.912-.02a13.362,13.362,0,0,0,1.6-.083,9.82,9.82,0,0,0,1.917-.51,5.816,5.816,0,0,0,.758-.324c.579-.306,1.146-.635,1.727-.939l0-.007q-1.064.135-2.129.263l-.5.033c.043,0,.087-.006.131-.009-.413.009-.827.032-1.24.02a14.68,14.68,0,0,1-1.739-.179c-.529-.084-1.061-.167-1.593-.235-.055-.008-.112-.013-.166-.021.886-.1,1.774-.184,2.666-.244a92.511,92.511,0,0,1,10.636.129l2.09.118c-.262,1.619-.5,3.242-.729,4.866-.011-.092-.021-.186-.031-.277-.033-.321-.068-.639-.1-.957-.027-.273-.1-.547-.145-.817-.052-.309-.086-.629-.161-.931-.065-.269-.135-.538-.192-.81.06.136.119.274.176.413,0,0,.008,0,.007,0a3.9,3.9,0,0,0-.234-.658c-.017-.031-.075-.027-.072.014.017.362.065.722.1,1.084.03.74.068,1.48.035,2.221-.039.833-.066,1.665-.145,2.494-.087.892-.173,1.781-.29,2.666-.106.806-.238,1.6-.37,2.406-.094.429-.189.857-.283,1.287-.068.324-.128.65-.214.968-.267.979-.531,1.956-.78,2.938-.246.961-.529,1.915-.777,2.877-.211.822-.385,1.653-.566,2.482-.125.577-.28,1.157-.367,1.739q-.159,1.048-.3,2.1c-.089.647-.188,1.3-.236,1.947a29.988,29.988,0,0,0,.04,5.385,17.065,17.065,0,0,0,1.113,4.913,18.293,18.293,0,0,0,1.771,3.068q1.222,1.8,2.476,3.568l0,0,0-.007q-.537-1.337-1.073-2.673c-.424-1.06-.863-2.115-1.24-3.193a13.371,13.371,0,0,1-.615-3.156,38.984,38.984,0,0,1,.643-8.772c.228-1.27.421-2.547.662-3.814a.471.471,0,0,1,.009-.052q.053.791.124,1.579.264,2.869.716,5.72c.134.852.279,1.7.445,2.552.182.927.411,1.841.623,2.761l0,0,0,0a24.235,24.235,0,0,0,.662-3.6c.2-1.421.356-2.852.477-4.281.1-1.146.168-2.295.263-3.44.1-1.253.147-2.509.235-3.761a94.336,94.336,0,0,0,.076-11.417c-.1-1.986-.271-3.964-.459-5.943-.109-1.15-.247-2.3-.375-3.444.811.042,1.622.084,2.434.113,1.23.047,2.455.075,3.687.025a28.963,28.963,0,0,0,6.006-.827,13.546,13.546,0,0,1-2.656,1.253,14.941,14.941,0,0,1-3.614.785,17.731,17.731,0,0,1-2.062-.014c-.459-.031-.916-.075-1.375-.106-.676-.046-1.353-.087-2.031-.13,0,0-.006.006,0,.007q.884.262,1.776.491a23.021,23.021,0,0,0,2.379.533,10.572,10.572,0,0,0,1.569.147c.066,0,.132,0,.2,0a10.878,10.878,0,0,0,1.517-.145,11.8,11.8,0,0,0,3.051-.931,9.421,9.421,0,0,0,2.693-1.884q.286-.294.549-.606a21.618,21.618,0,0,0,2.839-1.207,13.892,13.892,0,0,0,2.677-1.75c.246-.213.484-.442.715-.68C345.386,32.342,345.9,31.972,346.408,31.59Zm-48.656,9.139c0,.013-.006.027-.01.041l.008-.044.006-.019Zm5.789-2.2q-.246.285-.486.576a10.49,10.49,0,0,1-1.591,1.437,6.6,6.6,0,0,1-1.161.591,5.382,5.382,0,0,1-1.131.224,3.774,3.774,0,0,1-.631-.047,3.455,3.455,0,0,1-.451-.15,1.118,1.118,0,0,1-.13-.09,1.142,1.142,0,0,1-.106-.123,1.254,1.254,0,0,1-.073-.141l-.015-.07c0-.022,0-.045,0-.067a1.235,1.235,0,0,1,.069-.227,1.907,1.907,0,0,1,.2-.3,4.394,4.394,0,0,1,.446-.383q.223-.146.456-.268a.183.183,0,0,0,.039.147.855.855,0,0,0,.645.367c.429.053.861.051,1.294.066l0-.008a12.123,12.123,0,0,1-1.4-.365l-.113-.069-.044-.059.243-.173a4.484,4.484,0,0,1,.669-.306,24.5,24.5,0,0,1,2.391-.629l.137-.028a5.053,5.053,0,0,1,.8.038C303.576,38.491,303.559,38.512,303.541,38.531Zm.248-.279c-.04.043-.08.088-.119.133-.1-.028-.2-.051-.307-.07.153-.032.3-.064.455-.094C303.809,38.232,303.8,38.24,303.789,38.252ZM343.9,32.1a20.257,20.257,0,0,1-2.333.963c-.386.127-.776.242-1.168.351.06-.13.118-.262.175-.393.173-.216.349-.429.528-.636a10.24,10.24,0,0,1,1.754-1.547,7.962,7.962,0,0,1,1.532-.77,5.848,5.848,0,0,1,1.171-.252,3.867,3.867,0,0,1,.7.04,2.492,2.492,0,0,1,.362.113c.035.021.068.043.1.067-.017.048-.035.094-.055.141A5.952,5.952,0,0,1,346.1,31c.065-.121.128-.246.184-.371l-.008,0c-.142.115-.288.223-.436.33q-.177.114-.354.234l.021-.015C344.979,31.487,344.457,31.818,343.9,32.1Z"/>
    <path d="M375.292,72.789c-1,.37-2.006.716-3.038.986-1.2.315-2.388.662-3.614.867a18.242,18.242,0,0,1-2.929.046c-.527-.031-1.053-.058-1.578-.085-.933-.05-1.863-.115-2.793-.176-.555-.036-1.111-.085-1.667-.1-.673-.019-1.358-.034-2.037,0a12.447,12.447,0,0,1,1.317-2.16,11.948,11.948,0,0,1,1.692-1.762c.283-.241.562-.486.851-.722q.472-.39.947-.778.993-.815,2-1.624l0-.007-.62.418c-.613.412-1.228.825-1.837,1.245-.3.2-.6.41-.895.624-.479.348-.963.693-1.412,1.08a9.546,9.546,0,0,0-1.1,1.126,11.184,11.184,0,0,0-.92,1.26,10.49,10.49,0,0,0-.726,1.365,7.789,7.789,0,0,0-1.072.2A13.678,13.678,0,0,0,352.514,76c-.186.065-.37.132-.555.2l-.076.032c.033-.693.091-1.385.156-2.078q.126-1.322.231-2.643a4.636,4.636,0,0,0,.5-.493,3.454,3.454,0,0,0,.618-1.621,5.675,5.675,0,0,0,.07-.691,23.421,23.421,0,0,0-.105-2.687,18.054,18.054,0,0,0-.422-2.657c-.033-.14-.075-.281-.116-.422.171-2.537.314-5.08.281-7.622a12.755,12.755,0,0,1,2.253.054c.567.081,1.126.187,1.686.3.357.072.715.156,1.076.211a12.575,12.575,0,0,0,1.416.182,7.022,7.022,0,0,0,1.405-.089,7.454,7.454,0,0,0,2.511-.851,10.925,10.925,0,0,0,2.674-2.108,7.6,7.6,0,0,0,1.2-1.616s0-.009-.006-.007a11.226,11.226,0,0,1-1.149.592q-.317.132-.631.274c-.316.13-.631.265-.944.408-.619.256-1.24.5-1.878.711a14.18,14.18,0,0,1-2.156.5c-1.043.108-2.091.07-3.139.085a14.658,14.658,0,0,0-3.283.337c-.347.084-.7.177-1.045.289,0-.029,0-.057,0-.086a5.1,5.1,0,0,0,.656-.139c.446-.117.889-.242,1.328-.384.423-.135.835-.3,1.254-.447.444-.154.884-.311,1.325-.473.224-.081.449-.153.679-.215a5.04,5.04,0,0,1,.61-.114,10.547,10.547,0,0,1,1.22-.056c.424,0,.848.031,1.272.051a7.316,7.316,0,0,0,2.76-.433c.908-.319,1.769-.74,2.646-1.132.354-.146.705-.3,1.061-.434.213-.082.423-.169.636-.244a9.623,9.623,0,0,1,1.679-.431,4.213,4.213,0,0,1,.9-.017,2.633,2.633,0,0,1,.53.138,2.356,2.356,0,0,1,.4.237,2.8,2.8,0,0,1,.361.369,3.972,3.972,0,0,1,.4.669,2.141,2.141,0,0,1,.094.3,2.107,2.107,0,0,1,0,.4,2.659,2.659,0,0,1-.166.576,3.9,3.9,0,0,1-.482.8,12.351,12.351,0,0,1-1.447,1.482l0,.008h0c.256-.2.51-.394.763-.591a8.861,8.861,0,0,0,.85-.746,3.791,3.791,0,0,0,.662-.867,2.291,2.291,0,0,0,.3-1.016,2.532,2.532,0,0,0-.3-1.086,2.642,2.642,0,0,0-.289-.493,2.547,2.547,0,0,0-.336-.383,2.675,2.675,0,0,0-.975-.558,4.562,4.562,0,0,0-1.939-.091,8.516,8.516,0,0,0-1.492.324q-.695.217-1.375.475c-.9.346-1.762.789-2.641,1.189l-.315.135a10.272,10.272,0,0,1-.989.336c-.193.05-.386.095-.582.138-.123.026-.248.043-.373.061-.5.041-1.01.052-1.511.115-.482.061-.959.131-1.435.231a5.81,5.81,0,0,0-1.273.451c-.423.2-.847.394-1.273.588s-.838.39-1.261.574c-.355.145-.713.28-1.077.4a7.165,7.165,0,0,1-.861.247c-.011-.346-.021-.689-.04-1.035-.1-1.877-.338-3.746-.611-5.6-.242-1.642-.486-3.291-.8-4.921-.17-.875-.357-1.748-.55-2.62.017-.036.036-.07.052-.107a6.052,6.052,0,0,0,.322-1.172,6.553,6.553,0,0,0,.124-.824c.012-.148.033-.3.034-.449s.007-.323.01-.483c.006-.271-.011-.544-.031-.814a15.031,15.031,0,0,0-.181-1.664c-.051-.3-.106-.6-.166-.9-.028-.14-.059-.281-.091-.421a1.5,1.5,0,0,0-.108-.383l0,0h-.007l0,0a.081.081,0,0,0,0,.016c0,.006.007.006.007,0v0l0-.009.018.037h0a5.414,5.414,0,0,1,.1.645h0a15.118,15.118,0,0,1,.126,1.7c0,.311,0,.62-.013.929-.012.286-.037.57-.063.856a9.316,9.316,0,0,1-.2,1.089c-.062.229-.133.454-.208.678q-.117-.523-.233-1.051c-.172-.776-.375-1.547-.58-2.312q-.15-.562-.3-1.121a8.277,8.277,0,0,0-.239-.82c-.026-.063-.05-.135-.078-.206.1-.048.194-.1.292-.144a6.478,6.478,0,0,1,1.245-.35,10.829,10.829,0,0,1,2.625.084,10.59,10.59,0,0,1,2.1.577c.239.107.478.216.714.329.793.374,1.578.76,2.374,1.122a25.935,25.935,0,0,0,2.767,1.149,17.183,17.183,0,0,0,2.634.644,15.234,15.234,0,0,0,2.366.23,7.007,7.007,0,0,0,1.746-.206,29.173,29.173,0,0,0,3.433-1.265q.695-.272,1.386-.553c.2.09.4.175.607.247a5.509,5.509,0,0,0,1.772.379h.032a5.952,5.952,0,0,0,1.177-.106,2.118,2.118,0,0,0,1.031-.43c.038-.037.141-.11.137-.183,0-.006-.009-.006-.009,0v0l-.006.017h0a.155.155,0,0,1-.019.036v0l-.048.045h0a1.708,1.708,0,0,1-.295.172,2.625,2.625,0,0,1-.543.126,5.019,5.019,0,0,1-1.047-.017A5.281,5.281,0,0,1,374.8,35.1a7.239,7.239,0,0,1-.761-.411c.137-.054.273-.111.408-.167,1.715-.7,3.484-1.282,5.235-1.9,0,0,0-.007,0-.007a43.367,43.367,0,0,0-6.887-.87c-.755-.007-1.5.008-2.248.045a10.965,10.965,0,0,0-1.263-.932,10.262,10.262,0,0,0-1.431-.76,8.509,8.509,0,0,0-1.519-.456,10.882,10.882,0,0,0-2.489-.21,19.867,19.867,0,0,0-2.486.15,7.111,7.111,0,0,0-1.089.263c-.367.114-.729.233-1.086.37-.577.222-1.137.476-1.7.734a12.2,12.2,0,0,0-3.174.129c-.708.137-1.408.324-2.1.531a8.422,8.422,0,0,0-2.525,1.16c-.186.133-.365.274-.541.418-.006,0-.012,0-.016,0s-.008.016-.014.024a11.909,11.909,0,0,0-1.324,1.3l.006.006c.084-.075.168-.149.254-.221a8.791,8.791,0,0,1,1.186-.754,1.573,1.573,0,0,1,.023.2l0-.023a18.322,18.322,0,0,1-.078,2.365c-.051.691-.111,1.385-.19,2.074-.154,1.35-.335,2.7-.511,4.042-.231.25-.462.5-.688.755-.082.095-.156.2-.234.293-.094.12-.2.238-.28.365-.144.213-.295.424-.424.643-.275.459-.542.92-.785,1.4-.139.274-.277.547-.407.825-.15.32-.286.646-.418.974-.105.264-.188.535-.278.8-.043.129-.071.265-.107.4-.046.174-.092.346-.128.523a10.807,10.807,0,0,0,.227,5.129,13.518,13.518,0,0,0,.79,2.061,11.752,11.752,0,0,0,.854,1.427c.154.23.307.46.471.683s.342.468.535.682c.073.079.146.158.217.238q.153,1.391.346,2.777c.23,1.65.5,3.3.863,4.924.332,1.476.713,2.939,1.123,4.4-.035.058-.077.113-.109.172a6.89,6.89,0,0,0-.675,1.908,6.066,6.066,0,0,0-.105,2.006,4.356,4.356,0,0,0,.813,1.948c.024.033.05.062.074.094a3.392,3.392,0,0,0-.522,1.226,2.365,2.365,0,0,0-.052.866,1.443,1.443,0,0,0,.256.629,1.919,1.919,0,0,0,.525.487,3.328,3.328,0,0,0,.593.276h0l0-.009c-.108-.063-.213-.129-.314-.2l-.01-.007,0,0a2.518,2.518,0,0,1-.409-.4,2.031,2.031,0,0,1-.208-.344c-.015-.042-.027-.084-.041-.125.017.014.032.03.049.043a1.663,1.663,0,0,0,.325.19,3.489,3.489,0,0,0,.385.157,4.629,4.629,0,0,0,1.477.252,4.024,4.024,0,0,0,.525-.034,4.142,4.142,0,0,0,2.558-1.4,6.3,6.3,0,0,0,.855-1.268c.141-.277.261-.563.379-.85.133-.318.252-.641.371-.964a26.228,26.228,0,0,1,3.256,1.064c.647.234,1.292.457,1.945.666a20.855,20.855,0,0,0,4.254.92q.417.04.836.04a9.838,9.838,0,0,0,4.6-1.191,17.622,17.622,0,0,0,3.93-2.853c1.052-1.02,2.042-2.113,3.023-3.2l0-.006C377.59,71.969,376.437,72.365,375.292,72.789ZM359.075,30.9a16.927,16.927,0,0,1,1.711-.372c.083-.01.165-.022.247-.033a5.318,5.318,0,0,1,.856-.012c.283.024.566.048.849.074q.867.078,1.73.181c.192.034.386.065.581.1s.383.087.572.13a9.7,9.7,0,0,1,1.494.471,11.285,11.285,0,0,1,1.061.558,9.546,9.546,0,0,1-1.393.047c-.262-.015-.525-.029-.789-.049-.478-.035-.954-.095-1.432-.149-.386-.055-.775-.107-1.164-.15q-.615-.09-1.23-.166c-1.067-.175-2.143-.335-3.22-.443l-.363-.035C358.748,31,358.91,30.941,359.075,30.9ZM347.589,50.125c-.073,1.08-.122,2.161-.137,3.244-.014,1.051.039,2.1.112,3.15.043.6.1,1.208.154,1.811-.116-.2-.23-.4-.335-.608-.268-.526-.524-1.054-.756-1.6-.113-.3-.224-.6-.309-.913-.054-.2-.111-.409-.168-.613a11.489,11.489,0,0,1-.257-1.3,12.031,12.031,0,0,1,.013-3,10.13,10.13,0,0,1,.244-1.183c.051-.192.1-.385.161-.575s.123-.408.2-.6.153-.405.229-.607c.291-.675.593-1.344.937-1.993.1-.186.191-.375.3-.556l.216-.366C347.939,46.31,347.72,48.213,347.589,50.125Zm2.723,25.088a7.478,7.478,0,0,1,.463-1.6q.414,1.371.85,2.737a4.035,4.035,0,0,0-.676.429,4.32,4.32,0,0,0-.37.317,5.732,5.732,0,0,1-.268-.987A4.3,4.3,0,0,1,350.312,75.213Zm5.47,2.318a6.64,6.64,0,0,1-.816,1.416,4.666,4.666,0,0,1-.738.742,4.241,4.241,0,0,1-.843.494,4.03,4.03,0,0,1-.965.267,4.514,4.514,0,0,1-1.126-.012,4.072,4.072,0,0,1-.964-.256,1.714,1.714,0,0,1-.359-.2h0l-.009-.008a1.574,1.574,0,0,1-.039-.181,1.883,1.883,0,0,1,.007-.39,4.192,4.192,0,0,1,.252-.9,4.951,4.951,0,0,1,.265-.518c.141.168.285.332.432.5.321.358.644.717.974,1.066h0l0-.006c-.191-.315-.372-.639-.55-.961-.144-.26-.285-.52-.42-.781a.224.224,0,0,0,.065-.158.231.231,0,0,0-.124-.2c.081-.1.166-.192.256-.285a5.142,5.142,0,0,1,.675-.37c.028.088.055.176.084.264l0,0,0,0c0-.1.007-.207.01-.312l.027-.012a11.313,11.313,0,0,1,2.5-.67,9.2,9.2,0,0,1,1.927-.016C356.15,76.543,355.985,77.045,355.782,77.531Z"/>
    <polygon points="376.481 40.727 376.482 40.729 376.481 40.726 376.481 40.727"/>
    <path d="M426.508,29.37a1.469,1.469,0,0,0-.488-.544,2.337,2.337,0,0,0-.674-.3,3.49,3.49,0,0,0-.926-.112,4.277,4.277,0,0,0-.858.107,5.64,5.64,0,0,0-1.5.608,7,7,0,0,0-1.348,1.022,8.1,8.1,0,0,0-1,1.184,13.834,13.834,0,0,0-1.2,2.245,33.157,33.157,0,0,1-5.925.944c-2.776.143-5.535-.109-8.305-.241-1.551-.075-3.105-.1-4.66-.13-1.027-.019-2.049-.043-3.077,0a43.875,43.875,0,0,0-7.173.792,45.609,45.609,0,0,0-6.566,1.853c-1.055.383-2.088.812-3.11,1.281-.287.131-.565.274-.841.424a8.955,8.955,0,0,0-1.695.527,3.9,3.9,0,0,0-1.064.662,1.964,1.964,0,0,0-.369.506,1.611,1.611,0,0,0-.172.565c0,.092.012.182.02.271a1.906,1.906,0,0,0,.08.27,1.475,1.475,0,0,0,.3.515,2.537,2.537,0,0,0,1.135.633,3.681,3.681,0,0,0,.752.125c.084,0,.168,0,.252,0,.175,0,.351-.007.527-.023a5.609,5.609,0,0,0,1.515-.36,14.928,14.928,0,0,0,3.329-2.1,4.716,4.716,0,0,1,.58-.327,4.358,4.358,0,0,1,.69-.124c.83-.041,1.663-.06,2.493-.075.305-.005.609-.015.912-.02a13.357,13.357,0,0,0,1.6-.083,9.857,9.857,0,0,0,1.917-.51,5.829,5.829,0,0,0,.759-.324c.578-.306,1.145-.635,1.726-.939l0-.007q-1.065.135-2.129.263c-.167.01-.333.022-.5.033.043,0,.087-.006.131-.009-.413.009-.827.032-1.241.02a14.668,14.668,0,0,1-1.737-.179c-.53-.084-1.062-.167-1.6-.235-.055-.008-.11-.013-.166-.021.887-.1,1.775-.184,2.666-.244a92.543,92.543,0,0,1,10.638.129l2.089.118c-.261,1.619-.5,3.242-.729,4.866-.012-.092-.021-.186-.031-.277-.033-.321-.068-.639-.1-.957-.025-.273-.1-.547-.143-.817-.054-.309-.086-.629-.161-.931-.067-.269-.135-.538-.194-.81.062.136.12.274.176.413,0,0,.01,0,.008,0a3.9,3.9,0,0,0-.235-.658c-.015-.031-.074-.027-.072.014.018.362.067.722.1,1.084.03.74.068,1.48.035,2.221-.038.833-.066,1.665-.145,2.494-.087.892-.173,1.781-.29,2.666-.106.806-.239,1.6-.37,2.406-.094.429-.188.857-.283,1.287-.068.324-.129.65-.215.968-.266.979-.529,1.956-.779,2.938-.245.961-.529,1.915-.777,2.877-.211.822-.384,1.653-.566,2.482-.125.577-.279,1.157-.366,1.739q-.162,1.048-.3,2.1c-.088.647-.186,1.3-.234,1.947a29.9,29.9,0,0,0,.039,5.385,17.1,17.1,0,0,0,1.113,4.913,18.362,18.362,0,0,0,1.771,3.068q1.222,1.8,2.475,3.568l0,0,0-.007q-.535-1.337-1.071-2.673c-.424-1.06-.865-2.115-1.241-3.193a13.372,13.372,0,0,1-.616-3.156,38.986,38.986,0,0,1,.645-8.772c.226-1.27.42-2.547.66-3.814,0-.018.006-.034.01-.052q.053.791.125,1.579.264,2.869.715,5.72c.134.852.28,1.7.446,2.552.181.927.409,1.841.622,2.761l0,0,0,0a24.235,24.235,0,0,0,.662-3.6c.2-1.421.355-2.852.477-4.281.1-1.146.167-2.295.263-3.44.1-1.253.147-2.509.234-3.761a93.929,93.929,0,0,0,.077-11.417c-.1-1.986-.271-3.964-.458-5.943-.11-1.15-.247-2.3-.375-3.444.81.042,1.622.084,2.432.113,1.231.047,2.456.075,3.689.025a28.963,28.963,0,0,0,6-.827,13.519,13.519,0,0,1-2.656,1.253,14.941,14.941,0,0,1-3.614.785,17.731,17.731,0,0,1-2.062-.014c-.459-.031-.916-.075-1.375-.106-.676-.046-1.354-.087-2.031-.13,0,0-.007.006,0,.007q.882.262,1.776.491a23.021,23.021,0,0,0,2.379.533,10.572,10.572,0,0,0,1.569.147c.066,0,.133,0,.2,0a10.864,10.864,0,0,0,1.517-.145A11.775,11.775,0,0,0,414.1,38.8a9.454,9.454,0,0,0,2.694-1.884q.284-.294.548-.606a21.618,21.618,0,0,0,2.839-1.207,13.884,13.884,0,0,0,2.676-1.75c.246-.213.486-.442.716-.68.541-.332,1.058-.7,1.565-1.084.148-.113.292-.233.434-.352.2-.163.414-.318.6-.5a2.238,2.238,0,0,0,.279-.32,1.114,1.114,0,0,0,.135-.31A.975.975,0,0,0,426.508,29.37ZM376.482,40.729l-.008.041.007-.043h0l.006-.019Zm5.789-2.2c-.164.19-.325.382-.485.576a10.49,10.49,0,0,1-1.591,1.437,6.648,6.648,0,0,1-1.162.591,5.37,5.37,0,0,1-1.131.224,3.8,3.8,0,0,1-.631-.047,3.611,3.611,0,0,1-.451-.15,1.029,1.029,0,0,1-.129-.09.955.955,0,0,1-.106-.123,1.1,1.1,0,0,1-.072-.141c0-.023-.011-.046-.016-.07s0-.045,0-.067a1.321,1.321,0,0,1,.07-.227,1.846,1.846,0,0,1,.2-.3,4.276,4.276,0,0,1,.445-.383c.148-.1.3-.186.457-.268a.182.182,0,0,0,.038.147.857.857,0,0,0,.646.367c.428.053.86.051,1.293.066v-.008a12.283,12.283,0,0,1-1.4-.365l-.111-.069-.045-.059.243-.173A4.484,4.484,0,0,1,379,39.09a24.574,24.574,0,0,1,2.391-.629l.136-.028a5.035,5.035,0,0,1,.8.038C382.307,38.491,382.289,38.512,382.271,38.531Zm.249-.279c-.04.043-.081.088-.12.133-.1-.028-.2-.051-.3-.07.151-.032.3-.064.455-.094A.291.291,0,0,0,382.52,38.252ZM425.4,30.173a5.945,5.945,0,0,1-.566.823c.065-.121.127-.246.184-.371l-.007,0c-.144.115-.288.223-.438.33-.118.076-.235.154-.353.234l.021-.015c-.53.317-1.051.648-1.6.926a20.169,20.169,0,0,1-2.332.963c-.387.127-.778.242-1.168.351.058-.13.117-.262.174-.393.173-.216.348-.429.529-.636a10.128,10.128,0,0,1,1.754-1.547,7.917,7.917,0,0,1,1.53-.77,5.872,5.872,0,0,1,1.172-.252,3.872,3.872,0,0,1,.7.04,2.584,2.584,0,0,1,.363.113c.034.021.068.043.1.067C425.437,30.08,425.419,30.126,425.4,30.173Z"/>
  </g>
</svg>
